<svg width="126" height="51" viewBox="0 0 126 51" class="lmi-header__logo-lmi">
            <g transform="translate(0 -.63)">
                <path d="M13.33 25.486c-.061-.08-.187-.141-.38-.181a3.93 3.93 0 0 0-.622-.077c-.223-.01-6.224.016-6.65.016-.424 0-.707-.132-.85-.396a1.108 1.108 0 0 1-.075-.348 4.931 4.931 0 0 1-.016-.41v-.305c0-.185-.027-.236-.016-.39.009-.15-.014-.358-.014-.52V8.373c0-.233-.05-.42-.151-.562-.102-.142-.26-.217-.471-.227-.213-.011-3.336-.006-3.477.014-.181.009-.406.163-.486.303a.944.944 0 0 0-.107.426C.005 8.51 0 28.194 0 28.387c0 .194.04.349.122.472a.63.63 0 0 0 .47.288c.212.03 11.897.045 12.1.045.202 0 .354-.041.456-.122a.705.705 0 0 0 .303-.334.812.812 0 0 0 .046-.364c-.011-.141-.015-2.248-.015-2.43a.689.689 0 0 0-.152-.456zm8.337.958c-1.691 0-3.743-1.364-3.743-5.025 0-3.706 1.958-5.058 4.062-5.058 1.992 0 3.684 1.799 3.684 5.058 0 4.132-2.375 5.025-4.003 5.025zm.142-13.29H21.7c-6.574 0-8.021 5.5-8.021 8.079v.002c-.076 1.216.254 2.812.713 3.827 1.048 2.29 3.252 4.573 7.416 4.573 4.193 0 8.133-2.601 8.133-8.323v-.046c.108-2.612-1.657-8.112-8.133-8.112zm17.104 12.375c-2.036 0-3.52-1.578-3.52-4.962 0-2.807 1.67-4.241 3.494-4.241 1.638 0 3.72 1.41 3.72 4.27 0 3.143-1.517 4.933-3.694 4.933zm7.506-11.796a.746.746 0 0 0-.441-.167c-.171-.01-2.501-.01-2.672 0a.88.88 0 0 0-.44.137.629.629 0 0 0-.168.288c-.018.066-.012.107-.026.197-.057.36-.184.653-.45.685-.147.018-.29-.053-.396-.177-.572-.465-1.481-1.574-3.952-1.574-5.318 0-6.603 5.043-6.717 6.867 0 0-.034.506-.042.769 0 5.594 3.148 8.009 6.769 8.009 1.723 0 3.464-.932 3.848-1.42.048-.05.097-.092.148-.13a.48.48 0 0 1 .204-.108.442.442 0 0 1 .368.019c.21.124.243.374.21.747.003.035-.121 1.438-.161 1.62-.142.828-.742 2.55-2.97 2.784-1.821.19-2.94-.55-3.621-1.797-.091-.168-.361-.31-.607-.32-.102 0-2.744-.038-2.946 0a.803.803 0 0 0-.47.26c-.112.132-.138.33-.076.592.505 2.05 2.759 4.13 6.864 4.13h.08c6.23 0 7.907-3.55 7.907-7.228 0 0-.006-13.45-.016-13.682-.01-.232-.086-.4-.227-.501zm37.442 5.709c-.101.163-.307.249-.621.259-.315.01-4.805.015-5.088.015-.283 0-.506-.05-.668-.152a.545.545 0 0 1-.196-.305 1.042 1.042 0 0 1-.016-.38c.082-.745 1.137-2.601 3.533-2.601 2.084 0 2.89 1.789 3.103 2.42.1.297.095.54-.047.744zm-3.31-6.317c-5.58.163-7.733 5.017-7.733 8.236 0 1.909.759 8.23 8.055 8.23 5.316 0 6.748-3.902 6.938-4.41.04-.1.055-.222.046-.363a.612.612 0 0 0-.03-.143c-.036-.186-.165-.323-.321-.323H84.95c-.173 0-.453.112-.66.359-.063.08-.147.192-.217.27-.357.406-1.238 1.416-2.986 1.416-2.938 0-3.795-1.97-3.895-2.964-.008-.078-.016-.153-.016-.224a.758.758 0 0 1 .46-.76.947.947 0 0 1 .35-.061c.132 0 8.908.025 9.142.015.23-.01.444-.03.637-.06a.952.952 0 0 0 .44-.168c.1-.061.172-.192.213-.395.03-.153.048-.575.042-.765 0-3.067-2.163-8.058-7.908-7.89zm42.334-9.951a.136.136 0 0 1 .007-.056v-.051a.22.22 0 0 0 .008-.037.057.057 0 0 1 .012-.032c.01-.022.033-.037.063-.046l.022-.002a.075.075 0 0 1 .02-.003h.223c.076 0 .144.005.207.014a.53.53 0 0 1 .166.05.241.241 0 0 1 .109.116.32.32 0 0 1 .027.099.26.26 0 0 1-.01.118.296.296 0 0 1-.054.124.214.214 0 0 1-.088.07.546.546 0 0 1-.124.04.859.859 0 0 1-.15.017l-.16.002-.144-.002c-.047-.002-.082-.018-.104-.05-.021-.026-.031-.073-.03-.14l.003-.172a.614.614 0 0 0-.003-.06zm-.301 1.422a.206.206 0 0 1 .013.047.055.055 0 0 0 .025.036.106.106 0 0 0 .06.024.508.508 0 0 0 .079.002.195.195 0 0 0 .07-.018c.024-.011.038-.025.043-.04a.186.186 0 0 0 .017-.084c-.003-.034-.003-.067-.003-.1V4.09c0-.04 0-.08.003-.116 0-.036.009-.067.024-.092a.073.073 0 0 1 .047-.027.863.863 0 0 0 .064-.014h.042c.027 0 .054 0 .08.002a.14.14 0 0 1 .067.02.282.282 0 0 1 .087.096c.022.038.045.075.07.112l.29.456c.018.025.036.053.053.083a.165.165 0 0 0 .067.069c.012.01.025.014.039.014.013 0 .028.003.043.01a.193.193 0 0 0 .083 0 .209.209 0 0 1 .038-.005.07.07 0 0 0 .03-.01c.023-.021.028-.048.016-.082a.416.416 0 0 0-.035-.07l-.043-.064-.277-.428a.853.853 0 0 0-.037-.058.39.39 0 0 1-.037-.062l-.01-.023a.092.092 0 0 1-.004-.028.078.078 0 0 1 .033-.053.316.316 0 0 1 .059-.035.897.897 0 0 1 .067-.024.527.527 0 0 0 .062-.026.7.7 0 0 0 .136-.115.453.453 0 0 0 .089-.166.88.88 0 0 0 .022-.1.283.283 0 0 0 .002-.107v-.042l-.013-.082a.678.678 0 0 0-.102-.226.307.307 0 0 0-.092-.075.562.562 0 0 0-.286-.105 4.58 4.58 0 0 0-.378-.014h-.488a.057.057 0 0 0-.018.003l-.018.002a.103.103 0 0 0-.061.045.105.105 0 0 0-.018.065v1.627l-.002.066a.202.202 0 0 0 .002.057v.028zm.64-2.568a1.68 1.68 0 0 1 1.679 1.677 1.679 1.679 0 1 1-1.679-1.677zm0 3.672a1.998 1.998 0 0 0 1.996-1.995c0-1.1-.895-1.995-1.996-1.995a1.998 1.998 0 0 0-1.995 1.995c0 1.1.896 1.995 1.995 1.995zm-4.122 22.974c-.012.354-.152.597-.44.68-.311.09-3.013.048-3.205.017a.628.628 0 0 1-.44-.26.898.898 0 0 1-.137-.47c-.01-.191-.016-7.272-.016-7.272 0-.75-.03-1.444-.09-2.081-.061-.638-.356-2.626-2.791-2.626-2.163 0-2.95 1.75-3.07 2.64a22.349 22.349 0 0 0-.183 3.007v6.198c0 .18-.03.333-.09.455a.676.676 0 0 1-.487.393c-.31.078-2.784.052-3.007.032-.223-.021-.384-.09-.485-.213-.143-.182-.207-.445-.198-.791.009-.342.02-13.757.03-13.94a.74.74 0 0 1 .168-.454c.122-.163.388-.241.864-.241l1.726-.015c.485 0 1.085.014 1.16.464.019.115.13 1.047.526 1.055.12.002.202-.055.299-.153.047-.034.627-.668 1.096-.94 1.584-.986 4.382-1.07 6.052-.292a4.379 4.379 0 0 1 1.913 1.7c.469.76.82 2.152.82 3.494 0 .304-.006 9.258-.015 9.613zm-17.787.41c-.08.14-.315.319-.61.333-.292.013-3.098-.01-3.292-.03a.855.855 0 0 1-.47-.183c-.101-.102-.162-.253-.182-.455a6.487 6.487 0 0 1-.03-.638s-.005-18.78-.015-19.164c-.011-.384.035-.66.137-.82.079-.122.295-.32.56-.32.052 0 3.184-.01 3.387 0 .202.01.354.087.455.229a.998.998 0 0 1 .168.546c.009.224.019 19.448.03 19.772.01.323-.036.568-.138.73zM107.497.63c-9.955 0-18.024 8.07-18.024 18.024 0 9.953 8.069 18.023 18.024 18.023 9.953 0 18.022-8.07 18.022-18.023 0-9.954-8.07-18.024-18.022-18.024zM70.894 7.567H65.67a.718.718 0 0 0-.472.153.79.79 0 0 0-.333.395l-.181.486c-.103.324-4.163 12.855-4.21 12.913-.101.196-.215.306-.334.306-.225 0-.387-.424-.591-1.053-.117-.317-4.221-12.353-4.281-12.546a.823.823 0 0 0-.304-.44c-.182-.141-.44-.214-.774-.214-.335 0-5.047.027-5.087.017a.166.166 0 0 0-.121.014c-.244.06-.406.163-.486.303a1.133 1.133 0 0 0-.092.35c-.02.152-.03.309-.03.47v19.166c0 .222.01.44.03.65.02.216.092.37.213.473a.754.754 0 0 0 .455.167c.182.01 2.51.02 2.673.03.16.01.313-.004.456-.046.223-.04.374-.131.455-.273a.618.618 0 0 0 .122-.394l.03-12.738c0-.141.069-.385.245-.362.073.01.109.025.15.055.04.03.08.066.12.106.123.182.234.415.335.699.019.04 4.289 12.14 4.345 12.273.157.37.408.665.787.665l2.69-.004c.312 0 .483-.27.569-.493.855-2.186 3.745-11.136 4.515-12.968.076-.18.228-.415.26-.44.04-.03.184-.124.245-.104.12.04.143.053.17.217.027.16.022.482.019.629-.002.187.037 11.949.037 11.949v.516c0 .16.04.293.12.394.083.122.29.304.699.304 0 0 2.704-.005 2.886-.015a.76.76 0 0 0 .456-.167c.122-.102.187-.257.197-.472.01-.211.016-19.831.016-20.165 0-.334-.113-.562-.335-.684-.102-.08-.248-.122-.44-.122z"></path>
            </g>
            <g transform="translate(48 39.37)">
                <path d="M73.916 9.67a1.002 1.002 0 0 0-.205-.307.969.969 0 0 0-1.05-.203.93.93 0 0 0-.3.203.983.983 0 0 0 0 1.356.882.882 0 0 0 .3.202c.116.047.24.071.373.071a.981.981 0 0 0 .372-.07.918.918 0 0 0 .305-.203.928.928 0 0 0 .28-.677.934.934 0 0 0-.075-.373zm-3.529-2.184a2.406 2.406 0 0 0-.56-.35 6.455 6.455 0 0 0-.644-.254 23.345 23.345 0 0 0-.642-.205 3.897 3.897 0 0 1-.56-.216 1.284 1.284 0 0 1-.398-.284.58.58 0 0 1-.15-.41c0-.122.027-.24.081-.345a.851.851 0 0 1 .236-.28c.103-.08.228-.142.377-.185a1.73 1.73 0 0 1 .495-.065c.223 0 .42.024.585.071.166.048.312.102.435.161.123.06.23.112.321.161a.546.546 0 0 0 .252.072.325.325 0 0 0 .172-.042.375.375 0 0 0 .123-.136l.328-.533a2.804 2.804 0 0 0-.964-.617 3.483 3.483 0 0 0-1.279-.225c-.415 0-.78.055-1.098.168a2.375 2.375 0 0 0-.8.455 1.936 1.936 0 0 0-.493.663 1.943 1.943 0 0 0-.167.794c0 .305.05.563.15.776.101.212.234.392.401.54.166.148.355.27.567.365.213.096.428.181.647.253.218.074.434.143.646.205.212.065.402.138.567.22.167.081.3.18.401.294.1.113.15.26.15.438a.86.86 0 0 1-.308.683 1.137 1.137 0 0 1-.396.216c-.16.052-.349.08-.568.08-.265 0-.486-.032-.663-.095a2.472 2.472 0 0 1-.455-.2 6.764 6.764 0 0 1-.329-.202.506.506 0 0 0-.283-.094.425.425 0 0 0-.229.06.492.492 0 0 0-.155.161l-.34.561c.136.123.292.237.467.341.176.105.365.196.568.271A3.989 3.989 0 0 0 68.22 11c.438 0 .827-.059 1.166-.172a2.36 2.36 0 0 0 .851-.479c.228-.204.402-.447.52-.724.12-.278.178-.58.178-.91 0-.283-.05-.524-.15-.72a1.628 1.628 0 0 0-.397-.509zm-5.97 0a2.406 2.406 0 0 0-.562-.35 6.438 6.438 0 0 0-.642-.254 23.39 23.39 0 0 0-.643-.205 3.897 3.897 0 0 1-.56-.216 1.309 1.309 0 0 1-.398-.284.585.585 0 0 1-.15-.41c0-.122.027-.24.081-.345a.863.863 0 0 1 .236-.28c.103-.08.23-.142.377-.185.148-.044.313-.065.495-.065.223 0 .42.024.585.071.166.048.311.102.435.161.123.06.23.112.321.161a.546.546 0 0 0 .253.072.319.319 0 0 0 .171-.042.359.359 0 0 0 .123-.136l.33-.533a2.799 2.799 0 0 0-.966-.617 3.482 3.482 0 0 0-1.278-.225c-.416 0-.782.055-1.099.168a2.375 2.375 0 0 0-.8.455 1.928 1.928 0 0 0-.66 1.457c0 .305.051.563.151.776.1.212.233.392.4.54.166.148.355.27.568.365.212.096.427.181.646.253.218.074.434.143.646.205.212.065.402.138.568.22.166.081.3.18.4.294.1.113.15.26.15.438a.938.938 0 0 1-.075.373.857.857 0 0 1-.232.31 1.133 1.133 0 0 1-.397.216c-.16.052-.349.08-.568.08-.265 0-.485-.032-.663-.095a2.472 2.472 0 0 1-.455-.2 7.286 7.286 0 0 1-.329-.202.511.511 0 0 0-.283-.094.428.428 0 0 0-.229.06.49.49 0 0 0-.154.161l-.342.561c.137.123.293.237.468.341.176.105.365.196.568.271.203.075.417.134.643.177.226.044.46.066.701.066.438 0 .827-.059 1.166-.172.34-.113.624-.273.852-.479a2.03 2.03 0 0 0 .52-.724c.118-.278.177-.58.177-.91 0-.283-.05-.524-.15-.72a1.596 1.596 0 0 0-.397-.509zm-10.198-.872c.082-.55.276-.979.581-1.284.305-.307.725-.459 1.258-.459.265 0 .498.045.702.134.203.088.373.211.51.37a1.6 1.6 0 0 1 .311.553c.07.212.106.441.106.686H54.22zm3.946-1.989a2.603 2.603 0 0 0-.943-.612 3.324 3.324 0 0 0-1.19-.209c-.516 0-.978.09-1.385.27a3.077 3.077 0 0 0-1.04.736 3.25 3.25 0 0 0-.657 1.093c-.153.42-.229.871-.229 1.356 0 .604.085 1.141.256 1.605.171.467.408.856.712 1.171a3 3 0 0 0 1.073.715c.414.161.862.242 1.344.242.247 0 .5-.019.76-.058.26-.039.512-.102.76-.192.245-.089.477-.203.697-.345a2.63 2.63 0 0 0 .588-.52l-.417-.539a.314.314 0 0 0-.274-.139.588.588 0 0 0-.3.101 6.566 6.566 0 0 1-.398.218 3.299 3.299 0 0 1-.546.218c-.21.067-.459.1-.747.1-.3 0-.573-.046-.816-.14a1.623 1.623 0 0 1-.63-.427 2.103 2.103 0 0 1-.42-.722 3.484 3.484 0 0 1-.185-1.029h4.48c.132 0 .223-.038.274-.117.05-.077.075-.229.075-.458 0-.497-.075-.94-.223-1.33a2.82 2.82 0 0 0-.619-.988zm-8.344 6.265h1.47V.767h-1.47V10.89zM48.16 9.522a.235.235 0 0 0-.126.043 2.237 2.237 0 0 1-.154.097c-.059.034-.13.066-.212.096a.882.882 0 0 1-.294.045.646.646 0 0 1-.492-.198c-.123-.133-.185-.326-.185-.577v-3.96h1.935V4.01h-1.935V1.718h-.753a.321.321 0 0 0-.219.072.392.392 0 0 0-.116.19l-.32 2.016-1.13.164v.595c0 .104.03.183.09.235.06.054.13.078.211.078h.766v4.064c0 .593.156 1.052.468 1.38.313.325.76.488 1.338.488.328 0 .648-.055.957-.16.31-.109.58-.263.808-.463l-.438-.719c-.05-.09-.117-.136-.199-.136zm-5.266-8.41A1.066 1.066 0 0 0 42.575.9a.97.97 0 0 0-.386-.079.904.904 0 0 0-.373.08 1.006 1.006 0 0 0-.592.907c0 .132.026.257.08.375.051.12.121.221.207.312.087.088.19.158.305.212a.968.968 0 0 0 .759 0 1.006 1.006 0 0 0 .533-.524.904.904 0 0 0 .08-.375.93.93 0 0 0-.08-.384 1.006 1.006 0 0 0-.215-.312zM41.47 10.89h1.471V3.913h-1.47v6.977zm-2.404-6.392a1.969 1.969 0 0 0-.745-.516 2.631 2.631 0 0 0-1-.178 2.89 2.89 0 0 0-.676.08 2.387 2.387 0 0 0-.625.242c-.197.108-.374.25-.534.423a2.26 2.26 0 0 0-.397.623 2.592 2.592 0 0 0-.259-.568 1.747 1.747 0 0 0-.373-.43 1.599 1.599 0 0 0-.496-.275 1.918 1.918 0 0 0-.616-.095c-.21 0-.405.026-.585.075-.179.051-.348.12-.505.21a2.698 2.698 0 0 0-.443.313 4.414 4.414 0 0 0-.395.401l-.096-.61c-.055-.186-.183-.279-.384-.279h-.888v6.976h1.47V5.747c.197-.242.411-.432.644-.57.232-.14.485-.21.76-.21.395 0 .696.12.901.36.205.238.308.613.308 1.124v4.44h1.47V6.45c0-.246.035-.463.107-.646.07-.184.167-.339.29-.462.123-.123.267-.217.431-.28.164-.064.34-.096.527-.096.414 0 .728.124.94.373.212.248.317.62.317 1.111v4.44h1.471V6.45c0-.42-.052-.794-.157-1.12a2.234 2.234 0 0 0-.462-.833zM26.724 10.89h1.472V3.913h-1.472v6.977zm1.423-9.778A1.054 1.054 0 0 0 27.83.9a.966.966 0 0 0-.759 0 1.001 1.001 0 0 0-.513.524.946.946 0 0 0 0 .76 1.038 1.038 0 0 0 .513.524.965.965 0 0 0 .759 0c.121-.055.227-.125.318-.213a.992.992 0 0 0 .216-.312.904.904 0 0 0 .08-.375.93.93 0 0 0-.08-.384.992.992 0 0 0-.216-.312zm-6.675-.07h-1.6v9.848h5.69V9.55h-4.09V1.04zM10.038 6.613c.082-.55.275-.979.581-1.284.305-.307.725-.459 1.26-.459.262 0 .496.045.7.134.202.088.372.211.51.37.136.155.24.341.31.553.071.212.106.441.106.686h-3.467zm3.945-1.989a2.594 2.594 0 0 0-.943-.612 3.318 3.318 0 0 0-1.19-.209c-.515 0-.978.09-1.385.27a3.077 3.077 0 0 0-1.04.736c-.285.31-.504.674-.656 1.093-.153.42-.229.871-.229 1.356 0 .604.085 1.141.256 1.605.171.467.408.856.712 1.171.303.314.66.553 1.073.715.413.161.861.242 1.344.242.246 0 .5-.019.76-.058.26-.039.512-.102.758-.192.246-.089.48-.203.698-.345.22-.14.415-.314.588-.52l-.417-.539a.315.315 0 0 0-.274-.139.59.59 0 0 0-.3.101 7.177 7.177 0 0 1-.397.218 3.29 3.29 0 0 1-.548.218c-.209.067-.457.1-.745.1-.3 0-.573-.046-.817-.14a1.605 1.605 0 0 1-.629-.427 2.12 2.12 0 0 1-.42-.722 3.484 3.484 0 0 1-.186-1.029h4.48c.132 0 .223-.038.273-.117.05-.077.076-.229.076-.458 0-.497-.074-.94-.222-1.33a2.837 2.837 0 0 0-.62-.988zM5.821 8.636a1.276 1.276 0 0 1-.343.516 1.633 1.633 0 0 1-.608.346 2.844 2.844 0 0 1-.913.127H1.974V6.5H3.95c.684 0 1.184.133 1.501.4.318.267.476.632.476 1.098 0 .228-.036.44-.106.64zM1.974 2.293H3.65c.674 0 1.171.121 1.488.361.317.243.475.635.475 1.178 0 .497-.169.877-.506 1.142-.338.263-.848.397-1.533.397H1.974V2.293zm3.44 3.515c.305-.1.57-.226.793-.376.223-.15.41-.322.558-.51.148-.19.258-.393.327-.608.072-.217.107-.442.107-.674 0-.402-.068-.762-.202-1.084a1.998 1.998 0 0 0-.633-.818c-.287-.223-.654-.395-1.1-.516-.448-.12-.985-.18-1.615-.18H.373v9.848h3.611c.561 0 1.06-.07 1.498-.212a3.205 3.205 0 0 0 1.105-.592c.298-.253.526-.555.684-.902.157-.35.235-.735.235-1.154 0-1.185-.697-1.925-2.092-2.222z"></path>
            </g>
</svg>