<svg width="35" height="45" viewBox="0 0 35 45" xmlns="http://www.w3.org/2000/svg"><title>remote</title><defs><filter x="-50%" y="-50%" width="200%" height="200%" filterUnits="objectBoundingBox" id="a"><feOffset dy="-2" in="SourceAlpha" result="shadowOffsetInner1"/><feGaussianBlur in="shadowOffsetInner1" result="shadowBlurInner1"/><feComposite in="shadowBlurInner1" in2="SourceAlpha" operator="arithmetic" k2="-1" k3="1" result="shadowInnerInner1"/><feColorMatrix values="0 0 0 0 0 0 0 0 0 0 0 0 0 0 0 0 0 0 0.14 0" in="shadowInnerInner1" result="shadowMatrixInner1"/><feOffset dy="2" in="SourceAlpha" result="shadowOffsetInner2"/><feGaussianBlur in="shadowOffsetInner2" result="shadowBlurInner2"/><feComposite in="shadowBlurInner2" in2="SourceAlpha" operator="arithmetic" k2="-1" k3="1" result="shadowInnerInner2"/><feColorMatrix values="0 0 0 0 1 0 0 0 0 1 0 0 0 0 1 0 0 0 0.14 0" in="shadowInnerInner2" result="shadowMatrixInner2"/><feMerge><feMergeNode in="SourceGraphic"/><feMergeNode in="shadowMatrixInner1"/><feMergeNode in="shadowMatrixInner2"/></feMerge></filter></defs><path d="M297.773 1925.455c0 13.557-7.785 24.545-17.387 24.545-9.6 0-17.386-10.988-17.386-24.545 0-5.648 4.58-10.228 10.227-10.228h6.137c0-3.39 2.747-6.136 6.136-6.136h2.045c2.26 0 4.09-1.83 4.09-4.09h2.047c0 3.39-2.747 6.136-6.137 6.136H285.5c-2.258 0-4.09 1.833-4.09 4.09h6.135c5.648 0 10.228 4.58 10.228 10.23zm-17.387 20.454c6.427 0 11.754-7.04 12.99-16.365h-25.978c1.235 9.326 6.562 16.364 12.988 16.364zm-1.022-26.592h-6.137c-3.39 0-6.136 2.747-6.136 6.137v2.045h12.274v-8.182zm2.045 8.182h12.272v-2.045c0-3.39-2.747-6.137-6.137-6.137h-6.136v8.182z" transform="translate(-263 -1905)" filter="url(#a)" fill="#45B6F2" fill-rule="evenodd"/></svg>