<svg width="197" height="40" viewBox="0 0 197 40" fill="none" xmlns="http://www.w3.org/2000/svg">
<path d="M19.4784 2.77557e-06C8.72079 2.77557e-06 0 8.73311 0 19.5059C0 30.2788 8.72079 39.0119 19.4784 39.0119C30.2361 39.0119 38.9568 30.2788 38.9568 19.5059C38.9596 14.3318 36.9083 9.36879 33.2548 5.71011C29.6013 2.05144 24.6453 -0.0027562 19.4784 2.77557e-06ZM17.9617 20.4214L12.4662 27.6412C12.0818 28.151 11.7598 28.0365 11.7598 27.3916V23.6048C11.7656 22.971 11.2602 22.451 10.6274 22.4396H6.00455C5.37176 22.4282 4.8664 21.9082 4.87215 21.2745V17.7374C4.8664 17.1037 5.37176 16.5836 6.00455 16.5723H10.6067C11.2394 16.5609 11.7448 16.0409 11.739 15.4071V11.6203C11.739 10.9753 12.061 10.8609 12.4454 11.3707L17.9617 18.5905C18.3473 19.1397 18.3473 19.8722 17.9617 20.4214ZM34.0847 17.7374V21.2745C34.0904 21.9082 33.5851 22.4282 32.9523 22.4396H28.3502C27.7174 22.451 27.212 22.971 27.2179 23.6048V27.3916C27.2179 28.0365 26.8958 28.151 26.5218 27.6412L21.0055 20.4214C20.6199 19.8722 20.6199 19.1397 21.0055 18.5905L26.5218 11.3707C26.8958 10.8609 27.2179 10.9753 27.2179 11.6203V15.4071C27.212 16.0409 27.7174 16.5609 28.3502 16.5723H32.9523C33.5851 16.5836 34.0904 17.1037 34.0847 17.7374ZM74.9945 24.0729H70.4236C70.1847 24.067 69.9463 24.0986 69.7172 24.1666C69.4309 24.2957 69.2095 24.5361 69.1043 24.8324C69.0004 25.1133 68.9069 25.4358 68.8134 25.7791C68.7199 26.1224 68.5121 26.5385 68.3874 26.9234C68.2706 27.2882 68.1101 27.6375 67.9096 27.9637C67.5082 28.6118 67.0303 29.2091 66.4863 29.7427C65.9492 30.2782 65.3144 30.7056 64.6164 31.0015C64.3072 31.1555 63.9788 31.2675 63.6399 31.3344L62.6011 31.5216C62.4599 31.543 62.3163 31.543 62.1751 31.5216C61.9687 31.5565 61.7607 31.5808 61.5518 31.5944C61.3447 31.6122 61.1361 31.5874 60.9389 31.5216H60.5649C60.4128 31.5328 60.26 31.5328 60.1078 31.5216L59.6611 31.4592L58.4249 31.0951C56.8674 30.6768 55.5089 29.7182 54.5915 28.3903C53.8421 27.3608 53.2666 26.215 52.8878 24.9988C52.7911 24.7125 52.7113 24.4207 52.6489 24.125C52.5866 23.8267 52.5242 23.5042 52.4619 23.1575C52.4078 22.9077 52.3765 22.6535 52.3684 22.398C52.2996 22.2486 52.2744 22.0827 52.2957 21.9195C52.3064 21.7566 52.2816 21.5933 52.223 21.4409V21.0144C52.1972 20.8909 52.1972 20.7634 52.223 20.6399C52.223 20.5151 52.223 20.3798 52.223 20.255C52.223 20.1301 52.223 19.7452 52.223 19.4747C52.2014 19.213 52.2224 18.9495 52.2853 18.6945C52.3498 18.486 52.3744 18.2672 52.358 18.0495C52.3449 17.849 52.3696 17.6479 52.4307 17.4565C52.4307 17.2381 52.4931 17.03 52.5242 16.8427C52.5554 16.6555 52.5865 16.4474 52.6177 16.2289C52.7839 15.7816 52.919 15.3551 53.0436 14.939C53.1683 14.5228 53.3137 14.1379 53.4696 13.753C54.316 11.6878 55.9555 10.0498 58.0197 9.20681C58.2283 9.117 58.4437 9.04394 58.6638 8.98834L59.3495 8.82189C60.0294 8.65603 60.7274 8.57565 61.4272 8.58262C62.1107 8.56308 62.7924 8.66162 63.4425 8.87391C64.2249 9.12422 64.972 9.47384 65.6657 9.91423C66.6516 10.5257 67.4665 11.3776 68.0342 12.3902C68.2364 12.697 68.3971 13.0294 68.5121 13.3785C68.6127 13.7285 68.8109 14.0424 69.0835 14.2836C69.304 14.3981 69.5433 14.4721 69.7899 14.502C70.1015 14.502 70.4548 14.5748 70.8287 14.5957H71.9923H73.0311H73.7167C73.9341 14.61 74.1522 14.5853 74.3608 14.5228H74.7348L75.327 14.3564C75.4983 14.3084 75.6323 14.1743 75.6802 14.0027C75.7809 13.7441 75.799 13.4606 75.7321 13.1912C75.6698 12.9103 75.6075 12.6607 75.5451 12.4318C75.3737 11.8131 75.1656 11.2051 74.9218 10.6112C74.6961 10.035 74.4106 9.48407 74.07 8.96754C72.7991 6.9641 71.0403 5.31731 68.9588 4.18208C66.4274 2.89083 63.5982 2.29833 60.7623 2.46556C60.6858 2.49734 60.5998 2.49734 60.5234 2.46556C60.4469 2.43377 60.3609 2.43377 60.2844 2.46556C60.0351 2.46556 59.7858 2.52798 59.5572 2.53838L58.8196 2.6112C58.654 2.67505 58.4777 2.70682 58.3002 2.70483C58.1059 2.70454 57.9129 2.73617 57.7289 2.79846C57.2856 2.89555 56.8597 2.99959 56.4511 3.11055C56.0482 3.22064 55.6526 3.35616 55.2668 3.51628C54.2342 3.9151 53.2426 4.41332 52.3061 5.00393C51.4247 5.57837 50.6064 6.2444 49.8648 6.99094L49.3038 7.56311C49.1108 7.75298 48.9337 7.95825 48.774 8.1769C48.2012 8.93108 47.6806 9.72357 47.2157 10.5488C46.9895 10.9146 46.7915 11.2972 46.6236 11.6932C46.447 12.0989 46.2807 12.515 46.1249 12.9207C45.9568 13.3157 45.8179 13.7225 45.7094 14.1379C45.6159 14.5644 45.512 15.0014 45.3873 15.4383C45.3199 15.6804 45.2713 15.9273 45.2419 16.1769C45.2074 16.4223 45.1589 16.6654 45.0964 16.9052C45.0964 17.1964 45.0964 17.4773 45.0237 17.7686C45.0134 18.0389 44.9751 18.3073 44.9095 18.5697V18.9962C44.9095 19.0586 44.9095 19.1522 44.9095 19.2563C44.9358 19.3586 44.9358 19.466 44.9095 19.5684C44.8378 19.797 44.8062 20.0363 44.816 20.2758C44.805 20.5187 44.8366 20.7616 44.9095 20.9936V21.8467C44.9347 21.9667 44.9347 22.0907 44.9095 22.2108C44.9023 22.3464 44.9272 22.4819 44.9822 22.6061C45.0474 22.9048 45.096 23.207 45.1276 23.5112C45.1558 23.8151 45.2009 24.1173 45.2627 24.4162C45.2944 24.5316 45.3119 24.6504 45.3146 24.77C45.3212 24.9097 45.3529 25.0472 45.4081 25.1757C45.5639 25.675 45.7094 26.164 45.834 26.6425C45.9644 27.1336 46.124 27.6165 46.3119 28.0886C47.076 29.9041 48.1598 31.5674 49.5116 32.9989C50.8762 34.4119 52.5123 35.5337 54.3214 36.2967C54.5707 36.4215 54.8409 36.5359 55.1213 36.6504C55.4018 36.7648 55.6927 36.8688 55.9732 36.9625L56.8978 37.2017C57.199 37.2642 57.5107 37.337 57.8223 37.4306L58.5288 37.5242L59.1936 37.6283C59.3522 37.6061 59.513 37.6061 59.6715 37.6283C59.9333 37.6919 60.202 37.7234 60.4714 37.7219H62.092L62.7257 37.6491H63.3698C63.5116 37.5922 63.6641 37.5674 63.8165 37.5763C63.9692 37.5922 64.1234 37.5671 64.2632 37.5034L65.3021 37.3162C65.6553 37.2505 66.0027 37.1566 66.3409 37.0353C69.4625 36.0987 72.1502 34.0819 73.9245 31.3448C74.0751 31.1273 74.2006 30.8935 74.2985 30.6477C74.4023 30.3929 74.531 30.1489 74.6829 29.9195C74.8972 29.5083 75.0779 29.0804 75.2231 28.6399L75.6698 27.2563L75.9607 25.9767C76.0623 25.6399 76.101 25.2873 76.0749 24.9364C76.0832 24.6417 75.9523 24.3603 75.7217 24.177C75.494 24.0741 75.2419 24.038 74.9945 24.0729ZM196.031 34.0808V5.5657C196.031 5.19119 196.031 4.81667 196.031 4.45256C196.035 4.13502 195.929 3.82594 195.73 3.5787C195.545 3.41363 195.311 3.31479 195.065 3.29781C194.765 3.26404 194.463 3.24668 194.161 3.24579H190.702H190.463H190.234L189.87 3.43305C189.759 3.50013 189.669 3.59755 189.611 3.71394C189.428 4.09931 189.356 4.52794 189.403 4.95191C189.403 5.51369 189.403 5.99223 189.403 6.41876V34.9443C189.403 35.2876 189.403 35.6309 189.403 35.9846C189.4 36.2605 189.513 36.525 189.715 36.7128C189.914 36.8821 190.161 36.9841 190.421 37.0041C190.739 37.021 191.058 37.021 191.377 37.0041H193.652C193.88 36.9894 194.109 36.9894 194.338 37.0041C194.546 37.0521 194.763 37.0521 194.971 37.0041C195.314 36.9535 195.621 36.7657 195.823 36.4839C196.003 36.1424 196.079 35.7552 196.041 35.3708C196.031 34.9026 196.031 34.4657 196.031 34.0808ZM185.642 34.8714C185.658 34.768 185.658 34.6628 185.642 34.5593C185.509 34.0075 185.443 33.4417 185.445 32.874V20.4734C185.445 19.7452 185.445 19.0274 185.445 18.3304C185.428 17.6951 185.298 17.068 185.061 16.4786C184.717 15.608 184.164 14.836 183.45 14.2315C182.711 13.6221 181.871 13.1468 180.968 12.8271C179.926 12.4649 178.845 12.2274 177.747 12.1197C176.512 11.9912 175.27 11.9426 174.028 11.9741C173.966 12.0365 173.799 12.0573 173.529 12.0261C173.333 11.9938 173.133 11.9938 172.937 12.0261C172.53 12.1189 172.117 12.1815 171.701 12.2133C171.302 12.2436 170.906 12.3062 170.517 12.4006C169.883 12.5878 169.27 12.7855 168.668 12.9936C168.07 13.205 167.498 13.4842 166.964 13.8258C166.817 13.9122 166.675 14.0059 166.538 14.1067L166.112 14.4396C166.032 14.5344 165.938 14.6153 165.832 14.6789C165.471 14.9848 165.15 15.3342 164.876 15.7192L164.595 16.1977L164.315 16.6659C164.153 16.9294 164.017 17.2082 163.91 17.4981C163.795 17.7998 163.702 18.1223 163.598 18.4656C163.598 18.6009 163.536 18.7361 163.504 18.8922C163.473 19.0502 163.473 19.2127 163.504 19.3707C163.544 19.659 163.746 19.8983 164.024 19.9845C164.088 20.0465 164.174 20.0802 164.263 20.0781C164.345 20.0769 164.427 20.0947 164.502 20.1301H164.928C165.068 20.1569 165.213 20.1569 165.354 20.1301H165.832H168.481C168.753 20.1316 169.026 20.1002 169.291 20.0365C169.601 19.9726 169.858 19.7579 169.977 19.4643C170.091 19.1573 170.227 18.8584 170.382 18.5697C170.462 18.3427 170.582 18.1315 170.735 17.9455C170.877 17.7503 171.045 17.5754 171.234 17.4253C171.394 17.2991 171.56 17.1811 171.732 17.0716C171.899 16.9602 172.081 16.8727 172.272 16.8115C172.611 16.703 172.959 16.623 173.311 16.5723C173.703 16.5064 174.099 16.4681 174.496 16.4578C174.897 16.4265 175.3 16.4265 175.701 16.4578C176.053 16.4974 176.401 16.5706 176.739 16.6763C177.683 16.9566 178.429 17.684 178.734 18.6217C178.768 18.7304 178.792 18.8418 178.807 18.9546C178.817 19.0809 178.838 19.2062 178.869 19.3291V19.61C178.89 19.706 178.89 19.8053 178.869 19.9013C178.844 19.9611 178.844 20.0287 178.869 20.0885C178.888 20.1672 178.888 20.2491 178.869 20.3278C178.77 20.6881 178.577 21.0151 178.308 21.2745C177.904 21.6953 177.383 21.9852 176.812 22.1067C176.262 22.2212 175.649 22.346 174.984 22.5125C174.753 22.5722 174.516 22.6037 174.277 22.6061C174.052 22.6065 173.829 22.638 173.612 22.6997C173.382 22.7583 173.144 22.7829 172.906 22.7725C172.682 22.7549 172.456 22.7796 172.241 22.8454C171.96 22.9031 171.676 22.9413 171.389 22.9598C171.116 22.9746 170.845 23.0129 170.579 23.0742C170.143 23.1783 169.696 23.2511 169.249 23.3135C168.813 23.3778 168.384 23.4894 167.972 23.6464C167.035 23.9334 166.144 24.3501 165.322 24.8844C164.559 25.4312 163.927 26.1421 163.473 26.965C163.31 27.2747 163.184 27.6031 163.099 27.9429C162.995 28.307 162.902 28.6607 162.808 28.9832C162.804 29.2561 162.772 29.5279 162.715 29.7947C162.685 30.0086 162.685 30.2257 162.715 30.4397C162.716 30.6395 162.741 30.8385 162.788 31.0327C162.808 31.188 162.808 31.3454 162.788 31.5008C162.771 31.6639 162.796 31.8286 162.86 31.9793C162.923 32.2602 162.995 32.5307 163.068 32.7804C163.141 33.0301 163.234 33.2797 163.328 33.4982C163.66 34.3467 164.191 35.103 164.876 35.7037C165.573 36.284 166.363 36.7413 167.213 37.0561C167.47 37.1795 167.743 37.267 168.023 37.3162L168.927 37.4826C169.115 37.5433 169.312 37.568 169.509 37.5554C169.726 37.5339 169.946 37.5587 170.153 37.6283H170.579C170.891 37.6908 171.212 37.6908 171.524 37.6283H172.054C172.147 37.6385 172.241 37.6385 172.335 37.6283H172.615L173.259 37.5554C173.474 37.5417 173.687 37.5033 173.893 37.441L175.275 37.0873C175.713 36.9706 176.14 36.8175 176.552 36.6296L177.124 36.3487C177.307 36.2537 177.481 36.1423 177.643 36.0158C177.799 35.9505 177.949 35.8704 178.09 35.7765C178.231 35.6826 178.38 35.6025 178.537 35.5372C178.661 35.4928 178.797 35.4928 178.921 35.5372C179.011 35.5767 179.092 35.6333 179.16 35.7037C179.35 35.8663 179.503 36.0687 179.607 36.2967C179.715 36.5227 179.889 36.7111 180.105 36.8376C180.29 36.9717 180.511 37.0477 180.739 37.0561H181.57H184.884C185.114 37.0605 185.342 37.0106 185.549 36.9105C185.869 36.8338 186.083 36.5309 186.048 36.203C186.035 35.8539 185.996 35.5063 185.933 35.1627C185.801 35.0926 185.688 34.9929 185.601 34.8714H185.642ZM178.682 27.8701V28.2966C178.619 28.5384 178.581 28.7858 178.568 29.0353C178.552 29.2673 178.513 29.4972 178.454 29.7219C178.233 30.4819 177.862 31.1895 177.363 31.8025C176.844 32.3856 176.17 32.808 175.42 33.0197C174.886 33.183 174.336 33.2842 173.779 33.3214C173.227 33.3765 172.671 33.352 172.127 33.2485C171.628 33.1641 171.142 33.0137 170.683 32.8012C170.26 32.6365 169.897 32.3461 169.644 31.9689C169.344 31.59 169.163 31.13 169.125 30.6477C168.947 29.8188 169.128 28.9531 169.623 28.2654C170.071 27.7119 170.645 27.2732 171.296 26.9858C171.51 26.8944 171.733 26.8247 171.961 26.7778L172.678 26.6113C173.061 26.4829 173.459 26.4025 173.862 26.372C174.275 26.3403 174.684 26.2777 175.088 26.1848C175.229 26.2068 175.372 26.2068 175.514 26.1848C175.764 26.1255 176.017 26.0804 176.272 26.0495C176.514 26.0191 176.754 25.9704 176.989 25.9039L177.321 25.8311L177.654 25.7583C177.903 25.74 178.152 25.8059 178.36 25.9455C178.479 26.0372 178.549 26.1798 178.547 26.3304C178.55 26.5077 178.582 26.6832 178.641 26.8506C178.676 27.0322 178.693 27.2169 178.692 27.402C178.702 27.558 178.699 27.7146 178.682 27.8701ZM102.316 24.0729C102.243 23.8019 102.219 23.5202 102.244 23.2407C102.258 22.9647 102.233 22.688 102.171 22.4188C102.046 21.9715 101.932 21.5242 101.838 21.0872C101.748 20.6514 101.623 20.2235 101.464 19.8076L101.101 18.8297C100.995 18.5275 100.863 18.2351 100.706 17.9559C100.446 17.571 100.207 17.2068 99.9892 16.8427C99.7711 16.4786 99.5321 16.1249 99.2828 15.8024C99.1258 15.7112 98.9938 15.5826 98.8984 15.4279C98.6691 15.1587 98.4152 14.9114 98.1401 14.6893C97.8708 14.4555 97.5863 14.24 97.2882 14.0443C96.3256 13.3889 95.2768 12.8707 94.1717 12.5046C92.8284 12.0841 91.4223 11.9011 90.0163 11.9636C89.781 11.9783 89.5451 11.9783 89.3099 11.9636C89.0701 11.9669 88.8308 11.9843 88.5931 12.0157C88.0944 12.1405 87.5542 12.2445 87.1491 12.3174C86.6855 12.403 86.2327 12.5391 85.7986 12.7231C82.6431 14.0231 80.1652 16.5723 78.9525 19.766C78.7551 20.2191 78.6121 20.694 78.5266 21.1809C78.4227 21.6906 78.3188 22.2212 78.1942 22.7517L78.0487 23.8857V24.4579C78.0222 24.6302 78.0222 24.8056 78.0487 24.978C78.0487 25.1653 78.0487 25.3421 78.0487 25.4982L78.1422 26.8298C78.1706 27.2507 78.2509 27.6665 78.3812 28.0678C78.3958 28.1852 78.3958 28.304 78.3812 28.4215C78.3668 28.5389 78.3668 28.6577 78.3812 28.7752C78.5306 29.1374 78.6555 29.5093 78.7552 29.8883C78.8598 30.2433 78.9882 30.5909 79.1395 30.9286C79.6233 31.9996 80.2796 32.9837 81.0822 33.8415C81.8816 34.6926 82.7898 35.4342 83.7832 36.047C84.0418 36.2172 84.3211 36.3535 84.6143 36.4527L85.5804 36.8064C85.8767 36.9721 86.195 37.0947 86.5257 37.1705L87.5646 37.3786C87.7303 37.4424 87.9065 37.4742 88.084 37.4722C88.2615 37.4702 88.4378 37.502 88.6035 37.5659C88.8053 37.6111 89.0146 37.6111 89.2164 37.5659C89.4369 37.5345 89.6607 37.5345 89.8812 37.5659C90.0371 37.5659 90.2241 37.5659 90.4318 37.6387C90.615 37.6533 90.7992 37.6284 90.972 37.5659H91.4915C91.6252 37.5392 91.7629 37.5392 91.8966 37.5659C92.0308 37.5873 92.1676 37.5873 92.3018 37.5659C92.6429 37.4775 92.9901 37.4149 93.3406 37.3786C93.6965 37.3486 94.0463 37.2681 94.3795 37.1393C95.5595 36.7736 96.677 36.2298 97.6934 35.5268C98.6295 34.8433 99.4323 33.9935 100.062 33.0197C100.309 32.6897 100.531 32.342 100.727 31.9793C100.932 31.5989 101.106 31.2022 101.246 30.7934C101.315 30.6147 101.34 30.422 101.319 30.2316C101.334 30.0591 101.254 29.8919 101.111 29.7947C100.907 29.6751 100.681 29.5973 100.446 29.5658H99.9685C99.7971 29.4974 99.6116 29.4724 99.4283 29.493H98.8361H97.4856C97.0728 29.4598 96.6584 29.5313 96.2805 29.7011C96.0288 29.7931 95.8063 29.9512 95.6365 30.1588C95.4589 30.3611 95.2925 30.573 95.1378 30.7934C94.8968 31.0988 94.6008 31.3564 94.2652 31.5528C93.9311 31.7775 93.5843 31.9825 93.2263 32.1666C92.977 32.2706 92.7173 32.3539 92.4472 32.4371C92.1771 32.5203 91.8862 32.5827 91.5642 32.6452H91.1382C90.7647 32.7123 90.384 32.7298 90.0059 32.6972C89.6561 32.6779 89.3086 32.6292 88.967 32.5515C88.6947 32.4619 88.4172 32.3889 88.136 32.3331C87.8585 32.2864 87.5935 32.1837 87.3568 32.0314C86.776 31.6985 86.2675 31.2528 85.8609 30.7206C85.4547 30.1499 85.1426 29.5177 84.9363 28.848C84.8744 28.6736 84.8359 28.4916 84.822 28.307C84.7981 28.1197 84.7564 27.9351 84.6974 27.7557C84.6522 27.5923 84.6522 27.4197 84.6974 27.2563C84.7363 27.1274 84.7998 27.0073 84.8844 26.9026C85.0029 26.7329 85.1693 26.6025 85.3622 26.5281C85.5346 26.4624 85.718 26.4306 85.9024 26.4345H98.0985C98.3894 26.4345 98.7115 26.4345 99.0751 26.4345H100.166C100.526 26.4345 100.872 26.4032 101.205 26.3408C101.45 26.3081 101.685 26.2191 101.89 26.0808C102.079 25.925 102.199 25.7005 102.223 25.4566C102.285 25.1756 102.285 24.8844 102.223 24.6035L102.316 24.0729ZM95.2001 21.8467C94.9683 22.1381 94.6041 22.291 94.234 22.2524C93.7458 22.2524 93.2783 22.2524 92.8316 22.2524H86.2972C85.935 22.2765 85.5737 22.1933 85.2584 22.0131C85.1069 21.8947 84.9976 21.7305 84.9467 21.545C84.9101 21.349 84.9101 21.1479 84.9467 20.952C84.9764 20.7413 85.0322 20.5351 85.1129 20.3382C85.1717 20.1676 85.241 20.0008 85.3207 19.8389C85.9474 18.5689 87.0784 17.6214 88.4372 17.2277C88.604 17.163 88.7787 17.121 88.9567 17.1028C89.1348 17.093 89.3103 17.0544 89.4761 16.9884C89.5847 16.9572 89.6999 16.9572 89.8085 16.9884C89.9132 17.0404 90.0362 17.0404 90.1409 16.9884C91.1992 16.9649 92.2451 17.2196 93.1744 17.727C93.9253 18.2126 94.5318 18.8918 94.93 19.6932C95.0235 19.9221 95.1586 20.255 95.3248 20.7335C95.4778 21.1013 95.4307 21.522 95.2001 21.8467ZM162.289 13.857C162.357 13.3866 162.277 12.9067 162.06 12.4838C161.908 12.264 161.678 12.1113 161.416 12.0573C161.113 11.9904 160.803 11.959 160.492 11.9636C160.343 12.0468 160.17 12.0728 160.004 12.0365C159.821 12.0054 159.635 12.0054 159.453 12.0365L158.414 12.3278C158.085 12.4168 157.762 12.528 157.448 12.6607C157.129 12.8136 156.82 12.9874 156.523 13.1808L155.64 13.7426C155.52 13.8358 155.409 13.9403 155.308 14.0547C155.213 14.1741 155.101 14.2792 154.976 14.3668C154.766 14.5145 154.583 14.6976 154.435 14.9077C154.292 15.1108 154.124 15.2959 153.937 15.4591C153.9 15.5339 153.831 15.5876 153.75 15.6048C153.677 15.6096 153.61 15.6433 153.563 15.6984C153.352 15.7064 153.163 15.5688 153.106 15.3655C153.025 15.1257 152.969 14.8781 152.939 14.6269C152.939 14.3564 152.887 14.0859 152.867 13.7946C152.869 13.5666 152.816 13.3415 152.711 13.1392C152.566 12.8968 152.324 12.7296 152.046 12.6815C151.702 12.6314 151.355 12.6071 151.007 12.6086H148.555C148.176 12.6064 147.796 12.6413 147.423 12.7127C147.128 12.7583 146.867 12.9289 146.706 13.1808C146.573 13.4033 146.508 13.6602 146.519 13.9194V34.9443C146.519 35.2563 146.519 35.5684 146.519 35.8701C146.525 36.1152 146.601 36.3535 146.737 36.5567C146.791 36.7064 146.916 36.8194 147.07 36.8584L147.548 37.0249H148.181C148.378 37.0085 148.577 37.0085 148.774 37.0249H151.329C151.505 37.0418 151.683 37.0418 151.859 37.0249H152.088L152.545 36.9105C152.665 36.8706 152.77 36.7943 152.846 36.692C153.022 36.4414 153.123 36.1453 153.137 35.8389C153.137 35.4956 153.137 35.1107 153.137 34.705V27.6308C153.152 27.371 153.152 27.1104 153.137 26.8506C153.089 26.6067 153.089 26.3558 153.137 26.112V25.3525C153.158 25.2531 153.158 25.1503 153.137 25.0508C153.112 24.9308 153.112 24.8068 153.137 24.6867C153.2 24.4634 153.231 24.2322 153.23 24.0001C153.229 23.768 153.261 23.5369 153.324 23.3135C153.386 23.0638 153.459 22.8038 153.542 22.5333C153.615 22.2628 153.708 22.0027 153.802 21.753C153.895 21.5034 154.124 21.1913 154.3 20.9208L154.789 20.1405C155.11 19.718 155.513 19.3643 155.973 19.1002C156.452 18.8146 156.961 18.5809 157.49 18.4032C157.692 18.3423 157.902 18.3039 158.113 18.2888C158.338 18.2748 158.561 18.2365 158.778 18.1743C159.078 18.1093 159.386 18.0917 159.692 18.1223C160.024 18.1223 160.346 18.1743 160.648 18.1743C160.917 18.1779 161.186 18.1464 161.448 18.0807C161.684 18.0176 161.883 17.8594 161.998 17.6438C162.135 17.3151 162.192 16.9585 162.164 16.6035C162.164 16.1665 162.164 15.7712 162.164 15.4175L162.289 13.857ZM139.933 18.8089C139.902 18.637 139.902 18.4608 139.933 18.2888C139.983 18.0311 140.07 17.7823 140.193 17.5502C140.302 17.3397 140.501 17.1904 140.733 17.1444C140.818 17.0857 140.921 17.0598 141.024 17.0716C141.133 17.0966 141.247 17.0966 141.356 17.0716C141.472 17.0438 141.593 17.0438 141.709 17.0716H142.115C142.738 17.0716 143.309 17.0716 143.818 17.0716C144.294 17.0594 144.701 16.7251 144.805 16.2602C144.88 16.0793 144.905 15.8818 144.878 15.688C144.878 15.4695 144.878 15.2511 144.878 15.0222C144.882 14.5634 144.858 14.1048 144.805 13.649C144.787 13.2744 144.557 12.9431 144.213 12.7959C144.047 12.7321 143.871 12.7003 143.694 12.7023H143.122H141.439C140.989 12.7397 140.546 12.5715 140.234 12.2445C140.107 12.0891 140.025 11.9022 139.995 11.7036C139.979 11.475 139.979 11.2455 139.995 11.017V10.4032C139.973 10.22 139.973 10.0349 139.995 9.85181C139.995 9.64374 139.995 9.46689 139.995 9.31084V6.52279C140.001 6.32784 139.969 6.13363 139.902 5.95062C139.767 5.62311 139.464 5.39563 139.112 5.35764C138.696 5.30403 138.275 5.2797 137.855 5.28482H134.739C134.654 5.3126 134.563 5.3126 134.479 5.28482C134.394 5.26081 134.304 5.26081 134.219 5.28482C133.903 5.37529 133.641 5.59936 133.503 5.8986C133.435 6.12806 133.403 6.36677 133.409 6.60602V10.4032C133.409 10.6841 133.409 10.9649 133.409 11.2562C133.394 11.5166 133.338 11.7729 133.243 12.0157C133.071 12.3312 132.749 12.5357 132.391 12.5566C131.95 12.6086 131.506 12.6329 131.061 12.6295H130.635C130.506 12.6133 130.375 12.6388 130.261 12.7023C129.783 12.8271 129.513 13.0664 129.451 13.4097C129.381 13.8639 129.349 14.3233 129.358 14.7829V15.8232C129.42 16.1041 129.482 16.3434 129.544 16.5306C129.624 16.7431 129.803 16.9028 130.022 16.9572C130.458 17.1276 130.932 17.1779 131.394 17.1028C131.842 17.0313 132.301 17.0816 132.723 17.2485C133.067 17.4118 133.313 17.728 133.388 18.1015C133.452 18.2995 133.473 18.5086 133.451 18.7153C133.451 18.9442 133.451 19.1626 133.451 19.3811V30.8246C133.451 30.9806 133.451 31.1367 133.451 31.2927C133.424 31.4336 133.424 31.5784 133.451 31.7193V32.1978C133.486 32.2725 133.504 32.3544 133.503 32.4371C133.486 32.516 133.486 32.5975 133.503 32.6764C133.521 32.8075 133.521 32.9406 133.503 33.0717C133.484 33.1966 133.506 33.3242 133.565 33.4358C133.802 34.1498 134.153 34.8208 134.604 35.4228L134.843 35.6413L135.082 35.8493L135.414 36.1094C135.502 36.1886 135.596 36.2616 135.694 36.3279C135.986 36.4906 136.288 36.6331 136.598 36.7544C136.937 36.8872 137.284 36.9984 137.637 37.0873L138.198 37.1809L138.821 37.2746C138.994 37.2915 139.168 37.2915 139.341 37.2746C139.514 37.2579 139.688 37.2579 139.86 37.2746H140.38C140.52 37.3013 140.665 37.3013 140.806 37.2746H141.284H141.782C141.947 37.3005 142.116 37.3005 142.281 37.2746C142.386 37.2477 142.497 37.2477 142.603 37.2746H142.894H143.361C143.496 37.2184 143.641 37.1935 143.787 37.2017C143.933 37.2165 144.08 37.1914 144.213 37.1289C144.695 36.9759 145.017 36.5217 145.003 36.0158C145.003 35.4644 145.003 34.8506 145.003 34.1952V33.2901C145.014 33.0309 144.949 32.774 144.816 32.5515C144.67 32.3418 144.445 32.2023 144.192 32.1666C143.895 32.1488 143.596 32.1488 143.299 32.1666H142.779C142.695 32.1388 142.604 32.1388 142.52 32.1666C142.417 32.1882 142.311 32.1882 142.208 32.1666L141.377 31.9585C141.13 31.8894 140.91 31.7482 140.743 31.5528C140.391 31.1139 140.184 30.5756 140.151 30.0131C140.099 29.4306 140.078 28.7336 140.078 27.9325V19.3291C140.063 19.1481 140.013 18.9717 139.933 18.8089ZM127.56 19.1418C127.502 18.9238 127.464 18.701 127.446 18.476C127.431 18.2371 127.393 18.0002 127.332 17.7686C127.197 17.3525 127.072 16.9468 126.947 16.5514C126.821 16.1602 126.647 15.7862 126.428 15.4383C125.714 14.2813 124.678 13.3591 123.446 12.7855C121.954 12.1411 120.33 11.8629 118.709 11.9741C118.583 12.0045 118.451 12.0045 118.325 11.9741C118.184 11.9494 118.04 11.9494 117.899 11.9741C117.556 12.0365 117.224 12.0781 116.933 12.1093C116.632 12.1441 116.336 12.2104 116.05 12.307C115.039 12.6884 114.09 13.2178 113.235 13.8778C112.96 14.0451 112.717 14.26 112.518 14.5124C112.316 14.7721 111.992 14.9064 111.666 14.8661L111.448 14.7309C111.375 14.6468 111.321 14.5472 111.292 14.4396C111.225 14.3628 111.198 14.2586 111.219 14.1587C111.238 14.0486 111.238 13.936 111.219 13.8258C111.164 13.5998 111.094 13.3775 111.011 13.16C110.924 12.965 110.763 12.812 110.565 12.7335C110.356 12.6667 110.139 12.6282 109.921 12.6191C109.682 12.6191 109.443 12.6191 109.183 12.6191H106.7C106.534 12.6026 106.367 12.6026 106.202 12.6191H105.963L105.516 12.7335C105.391 12.7707 105.282 12.8473 105.204 12.952C105.045 13.1543 104.954 13.402 104.945 13.6594C104.945 13.9507 104.945 14.2628 104.945 14.6165V33.9455C104.945 34.4137 104.945 34.9234 104.945 35.4644C104.899 35.8963 105.006 36.3305 105.246 36.692C105.442 36.9034 105.716 37.024 106.004 37.0249C106.357 37.0249 106.7 37.0249 107.043 37.0249H109.412C109.839 37.0303 110.267 36.999 110.689 36.9313C111.031 36.8635 111.315 36.6292 111.448 36.3071C111.546 36.0847 111.592 35.8427 111.583 35.5997V26.0079C111.57 24.4356 111.667 22.8644 111.874 21.3057C111.989 20.0383 112.644 18.8821 113.671 18.1327C114.204 17.773 114.799 17.5154 115.427 17.3733C115.517 17.341 115.611 17.3235 115.707 17.3213C115.817 17.3341 115.929 17.3341 116.039 17.3213C116.217 17.284 116.398 17.2631 116.58 17.2589C116.78 17.2315 116.982 17.2315 117.182 17.2589C117.356 17.3193 117.538 17.3509 117.722 17.3525C117.893 17.3514 118.062 17.3832 118.221 17.4461C118.966 17.654 119.62 18.1042 120.081 18.7257C120.574 19.4862 120.867 20.3595 120.932 21.2641C121.026 22.3044 121.078 23.3447 121.078 24.5099V34.913C121.078 35.2668 121.078 35.5892 121.078 35.8909C121.079 36.1482 121.151 36.4001 121.286 36.6192C121.454 36.8426 121.705 36.9889 121.982 37.0249C122.325 37.0797 122.673 37.104 123.021 37.0977H126.334C126.56 37.1009 126.784 37.0693 126.999 37.0041C127.433 36.848 127.712 36.4244 127.685 35.9638C127.685 35.4124 127.685 34.8298 127.685 34.2368V20.9C127.686 20.4372 127.655 19.9748 127.591 19.5164C127.556 19.3949 127.546 19.2675 127.56 19.1418Z" fill="#165C7D"/>
</svg>
