<svg width="40" height="38" viewBox="0 0 40 38" xmlns="http://www.w3.org/2000/svg"><title>activity</title><defs><filter x="-50%" y="-50%" width="200%" height="200%" filterUnits="objectBoundingBox" id="a"><feOffset dy="-2" in="SourceAlpha" result="shadowOffsetInner1"/><feGaussianBlur in="shadowOffsetInner1" result="shadowBlurInner1"/><feComposite in="shadowBlurInner1" in2="SourceAlpha" operator="arithmetic" k2="-1" k3="1" result="shadowInnerInner1"/><feColorMatrix values="0 0 0 0 0 0 0 0 0 0 0 0 0 0 0 0 0 0 0.14 0" in="shadowInnerInner1" result="shadowMatrixInner1"/><feOffset dy="2" in="SourceAlpha" result="shadowOffsetInner2"/><feGaussianBlur in="shadowOffsetInner2" result="shadowBlurInner2"/><feComposite in="shadowBlurInner2" in2="SourceAlpha" operator="arithmetic" k2="-1" k3="1" result="shadowInnerInner2"/><feColorMatrix values="0 0 0 0 1 0 0 0 0 1 0 0 0 0 1 0 0 0 0.14 0" in="shadowInnerInner2" result="shadowMatrixInner2"/><feMerge><feMergeNode in="SourceGraphic"/><feMergeNode in="shadowMatrixInner1"/><feMergeNode in="shadowMatrixInner2"/></feMerge></filter></defs><path d="M1072.953 2178.505c-1.046-.004-2.224-.767-2.715-1.693-.507-1.034-1.287-1.034-1.774-.102l-6.457 12.357c-.487.93-1.105.863-1.378-.153l-6.34-23.59c-.274-1.014-.85-1.06-1.28-.103l-5.188 11.57c-.43.957-1.638 1.737-2.686 1.73l-4.56-.03c-1.05-.005-1.576-.872-1.576-1.923v-.242c0-1.05.547-1.904 1.593-1.898l1.89.014c1.046.007 2.157-.78 2.564-1.748l8.36-19.99c.41-.968.95-.93 1.224.083l6.963 25.565c.276 1.013.896 1.082 1.385.15l5.495-10.497c.487-.93 1.287-.93 1.778-.005l2.512 4.75c.49.928 1.75 1.69 2.798 1.695l1.873.01c1.047.008 1.567.87 1.567 1.92v.243c0 1.05-.53 1.91-1.576 1.905l-4.47-.015z" transform="translate(-1039 -2152)" filter="url(#a)" fill="#45B6F2" fill-rule="evenodd"/></svg>