<svg width="43" height="35" viewBox="0 0 43 35" xmlns="http://www.w3.org/2000/svg"><title>folder</title><defs><filter x="-50%" y="-50%" width="200%" height="200%" filterUnits="objectBoundingBox" id="a"><feOffset dy="-2" in="SourceAlpha" result="shadowOffsetInner1"/><feGaussianBlur in="shadowOffsetInner1" result="shadowBlurInner1"/><feComposite in="shadowBlurInner1" in2="SourceAlpha" operator="arithmetic" k2="-1" k3="1" result="shadowInnerInner1"/><feColorMatrix values="0 0 0 0 0 0 0 0 0 0 0 0 0 0 0 0 0 0 0.14 0" in="shadowInnerInner1" result="shadowMatrixInner1"/><feOffset dy="2" in="SourceAlpha" result="shadowOffsetInner2"/><feGaussianBlur in="shadowOffsetInner2" result="shadowBlurInner2"/><feComposite in="shadowBlurInner2" in2="SourceAlpha" operator="arithmetic" k2="-1" k3="1" result="shadowInnerInner2"/><feColorMatrix values="0 0 0 0 1 0 0 0 0 1 0 0 0 0 1 0 0 0 0.14 0" in="shadowInnerInner2" result="shadowMatrixInner2"/><feMerge><feMergeNode in="SourceGraphic"/><feMergeNode in="shadowMatrixInner1"/><feMergeNode in="shadowMatrixInner2"/></feMerge></filter></defs><path d="M1077.89 1950h-35c-2.15 0-3.89-1.74-3.89-3.89v-27.22c0-2.15 1.74-3.89 3.89-3.89h9.663c2.434 0 5.123 3.89 7.814 3.89h17.522c2.147 0 3.888 1.74 3.888 3.888v23.333c0 2.15-1.74 3.89-3.89 3.89zm0-25.278c0-1.073-.872-1.944-1.946-1.944h-15.608c-2.69 0-5.376-3.89-7.738-3.89h-7.765c-1.073 0-1.944.872-1.944 1.945v23.334c0 1.073.87 1.944 1.943 1.944h31.11c1.075 0 1.946-.87 1.946-1.943v-19.445z" transform="translate(-1039 -1915)" filter="url(#a)" fill="#45B6F2" fill-rule="evenodd"/></svg>