<?xml version="1.0" encoding="UTF-8"?>
<svg width="63px" height="44px" viewBox="0 0 63 44" version="1.1" xmlns="http://www.w3.org/2000/svg" xmlns:xlink="http://www.w3.org/1999/xlink">
    <!-- Generator: Sketch 52.3 (67297) - http://www.bohemiancoding.com/sketch -->
    <title>andriod-icon</title>
    <desc>Created with Sketch.</desc>
    <g id="RescueAssist-Web-2.0-Temp-Launch" stroke="none" stroke-width="1" fill="none" fill-rule="evenodd">
        <g id="RescueAssist-Web-Mockup-Classic" transform="translate(-185.000000, -1317.000000)">
            <g id="Homepage">
                <g id="Module-2" transform="translate(82.000000, 1123.000000)">
                    <g id="andriod-icon" transform="translate(134.000000, 215.500000) rotate(-90.000000) translate(-134.000000, -215.500000) translate(112.500000, 184.500000)">
                        <rect id="Rectangle" stroke="#2A969D" stroke-linecap="round" stroke-linejoin="round" fill-rule="nonzero" x="-1.87583282e-12" y="16" width="24.5" height="46" rx="0.5"></rect>
                        <rect id="Rectangle" fill="#2A969D" x="10" y="58" width="5" height="1" rx="0.5"></rect>
                        <rect id="Rectangle-Copy" fill="#2A969D" x="10" y="20" width="4" height="2" rx="1"></rect>
                        <g id="computer_sm" transform="translate(19.000000, -0.000000)" stroke="#2A969D" stroke-linecap="round">
                            <path d="M11.805512,23.9787539 L3.40588279,23.9787539 C1.74902854,23.9787539 0.405882794,22.6356081 0.405882794,20.9787539 L0.405882794,7.47875386 C0.405882794,5.82189961 1.74902854,4.47875386 3.40588279,4.47875386 L23.9058828,4.47875386 C25.562737,4.47875386 26.9058828,5.82189961 26.9058828,7.47875386 L26.9058828,19.7125817" id="Path" transform="translate(13.655883, 14.228754) rotate(-270.000000) translate(-13.655883, -14.228754) "></path>
                            <path d="M-5.36011434,13.5567499 L21.0618896,13.5567499" id="Line-8" transform="translate(7.639886, 14.056750) rotate(-270.000000) translate(-7.639886, -14.056750) "></path>
                            <path d="M1.10947335,5.5 L1.10947335,12.3471089" id="Line-9" stroke-linejoin="round"></path>
                        </g>
                        <g id="android_logo" transform="translate(12.000000, 39.000000) rotate(-270.000000) translate(-12.000000, -39.000000) translate(4.500000, 30.000000)" fill="#2A969D">
                            <path d="M12.0815869,13.627103 C12.0815869,13.9421871 11.8267762,14.1978574 11.5123657,14.1978574 L3.14369056,14.1978574 C2.8294528,14.1978574 2.57429657,13.9421871 2.57429657,13.627103 L2.57429657,6.14285881 C2.57429657,5.82777467 2.8294528,5.57227764 3.14369056,5.57227764 L11.5123657,5.57227764 C11.8267762,5.57227764 12.0815869,5.82777467 12.0815869,6.14285881 L12.0815869,13.627103 Z" id="Fill-39"></path>
                            <path d="M14.6246152,10.8275658 C14.6246152,11.3884467 14.1711385,11.843318 13.6114186,11.843318 C13.0520443,11.843318 12.5985676,11.3884467 12.5985676,10.8275658 L12.5985676,6.26291643 C12.5985676,5.70203549 13.0520443,5.24716417 13.6114186,5.24716417 C14.1711385,5.24716417 14.6246152,5.70203549 14.6246152,6.26291643 L14.6246152,10.8275658 Z" id="Fill-41"></path>
                            <path d="M2.05764408,10.8275658 C2.05764408,11.3884467 1.60416737,11.843318 1.04444755,11.843318 C0.485073237,11.843318 0.0315965294,11.3884467 0.0315965294,10.8275658 L0.0315965294,6.26291643 C0.0315965294,5.70203549 0.485073237,5.24716417 1.04444755,5.24716417 C1.60416737,5.24716417 2.05764408,5.70203549 2.05764408,6.26291643 L2.05764408,10.8275658 Z" id="Fill-43"></path>
                            <path d="M9.40113359,3.51659184 C9.08706857,3.51659184 8.83260336,3.26126803 8.83260336,2.94653033 C8.83260336,2.63161941 9.08706857,2.3762956 9.40113359,2.3762956 C9.71485309,2.3762956 9.96966381,2.63161941 9.96966381,2.94653033 C9.96966381,3.26126803 9.71485309,3.51659184 9.40113359,3.51659184 M5.25506083,3.51659184 C4.94099582,3.51659184 4.68635786,3.26126803 4.68635786,2.94653033 C4.68635786,2.63161941 4.94099582,2.3762956 5.25506083,2.3762956 C5.56895309,2.3762956 5.82359106,2.63161941 5.82359106,2.94653033 C5.82359106,3.26126803 5.56895309,3.51659184 5.25506083,3.51659184 M7.32809721,0.98188808 C2.71006318,0.967684177 2.60485658,5.00973381 2.60485658,5.00973381 L12.0513378,5.00973381 C12.0513378,5.00973381 11.9025975,0.996091982 7.32809721,0.98188808" id="Fill-45"></path>
                            <path d="M5.09854659,1.52536058 C5.11513088,1.54909149 5.16678404,1.54146988 5.21394561,1.50803874 C5.26024343,1.47495404 5.28477436,1.42853153 5.26801731,1.40497384 L4.38576758,0.15624293 C4.36866503,0.132338801 4.31701188,0.140133626 4.27071406,0.173218326 C4.22372524,0.206649463 4.19936706,0.252725537 4.2161241,0.276629666 L5.09854659,1.52536058 Z" id="Fill-47"></path>
                            <path d="M9.5573196,1.52536058 C9.54056256,1.54909149 9.48925491,1.54146988 9.44192058,1.50803874 C9.39562276,1.47495404 9.37109183,1.42853153 9.38784888,1.40497384 L10.2700986,0.15624293 C10.2870284,0.132338801 10.3388543,0.140133626 10.3853249,0.173218326 C10.4323137,0.206649463 10.4566719,0.252725537 10.4397421,0.276629666 L9.5573196,1.52536058 Z" id="Fill-49"></path>
                            <path d="M10.2960116,16.7352634 C10.2960116,17.2961443 9.84253486,17.7510156 9.28281503,17.7510156 C8.72344072,17.7510156 8.26996401,17.2961443 8.26996401,16.7352634 L8.26996401,12.170614 C8.26996401,11.6095599 8.72344072,11.1548618 9.28281503,11.1548618 C9.84253486,11.1548618 10.2960116,11.6095599 10.2960116,12.170614 L10.2960116,16.7352634 Z" id="Fill-51"></path>
                            <path d="M6.38609221,16.7352634 C6.38609221,17.2961443 5.9326155,17.7510156 5.37306843,17.7510156 C4.81369412,17.7510156 4.36004466,17.2961443 4.36004466,16.7352634 L4.36004466,12.170614 C4.36004466,11.6095599 4.81369412,11.1548618 5.37306843,11.1548618 C5.9326155,11.1548618 6.38609221,11.6095599 6.38609221,12.170614 L6.38609221,16.7352634 Z" id="Fill-53"></path>
                        </g>
                    </g>
                </g>
            </g>
        </g>
    </g>
</svg>