<svg xmlns="http://www.w3.org/2000/svg" width="115" height="115" viewBox="0 0 115 115">
    <g fill="none" fill-rule="evenodd">
        <circle cx="57.5" cy="57.5" r="57.5" fill="#84CB69"/>
        <g stroke="#FFF" stroke-linecap="round" stroke-linejoin="round" stroke-width="2" transform="translate(15 32)">
            <path d="M34.411 26.461v-.806c0-.887.642-1.81 1.424-2.054l3.76-1.17.279-1.266M45.229 21.098l.292 1.333 3.76 1.169c.783.243 1.425 1.168 1.425 2.055v.806M46.756 15.862c0 3.254-1.989 6.412-4.198 6.412-2.209 0-4.197-3.158-4.197-6.412 0-3.25 1.306-5.364 4.197-5.364 2.892 0 4.198 2.11 4.198 5.364zM8.41 18.55c0 .48-.331 1.22-.995 2.22C3.156 21.6.75 22.76.197 24.25c-.604 1.63.18 7.279 2.355 16.948M12.685 18.55c0 .48.332 1.22.995 2.22 4.26.83 6.665 1.99 7.218 3.48.605 1.63-.18 7.279-2.354 16.948M19.624 36.485h45.003M45.424 36.485v-8.65M38.635 36.485v-8.65"/>
            <path d="M48.87 3.34h9.546a2.7 2.7 0 0 1 2.7 2.7v18.937a2.7 2.7 0 0 1-2.7 2.7H27.153a2.7 2.7 0 0 1-2.7-2.7V6.04a2.7 2.7 0 0 1 2.7-2.7h9.99"/>
            <ellipse cx="42.785" cy="2.684" rx="2.716" ry="2.684"/>
            <path d="M14.742 13.178c0 3.254-1.988 6.412-4.197 6.412s-4.197-3.158-4.197-6.412c0-3.25 1.306-5.364 4.197-5.364s4.197 2.11 4.197 5.364zM72.696 18.55c0 .48-.332 1.22-.996 2.22-4.259.83-6.665 1.99-7.218 3.48-.604 1.63.18 7.279 2.355 16.948M76.97 18.55c0 .48.331 1.22.995 2.22 4.26.83 6.665 1.99 7.218 3.48.605 1.63-.18 7.279-2.354 16.948"/>
            <path d="M79.027 13.178c0 3.254-1.988 6.412-4.197 6.412-2.21 0-4.197-3.158-4.197-6.412 0-3.25 1.306-5.364 4.197-5.364s4.197 2.11 4.197 5.364zM42.106 40.025L25.81 43.48l12.062 1.57M42.106 40.025L58.4 43.48l-12.307 1.602"/>
            <path d="M42.164 40.025l2.93 1.2 2.425 9.43H36.693l2.433-9.456z"/>
        </g>
    </g>
</svg>
