<svg xmlns="http://www.w3.org/2000/svg" width="115" height="115" viewBox="0 0 115 115">
    <g fill="none" fill-rule="evenodd">
        <circle cx="57.5" cy="57.5" r="57.5" fill="#54C0B9"/>
        <g transform="translate(26 27)">
            <path stroke="#FFF" stroke-linecap="round" stroke-linejoin="round" stroke-width="2" d="M52.658 16.236v16.132c0 1.81-1.45 3.278-3.24 3.278H15.392c-1.79 0-3.24-1.468-3.24-3.278V11.062c0-1.81 1.45-3.277 3.24-3.277H46.78M8.337 49.576c0 .439-.296 1.116-.891 2.033-3.811.76-5.964 1.823-6.46 3.187C.769 55.4.753 56.6.94 58.401m11.223-8.825c0 .439.297 1.116.89 2.033 3.812.76 5.966 1.823 6.46 3.187.215.59.234 1.756.058 3.498"/>
            <path stroke="#FFF" stroke-linecap="round" stroke-linejoin="round" stroke-width="2" d="M14.003 44.656c0 2.98-1.779 5.872-3.756 5.872-1.976 0-3.756-2.893-3.756-5.872 0-2.977 1.169-4.913 3.756-4.913 2.587 0 3.756 1.932 3.756 4.913z"/>
            <g stroke="#FFF" stroke-linecap="round" stroke-linejoin="round" stroke-width="2">
                <path d="M30.21 49.576c0 .439-.296 1.116-.89 2.033-3.812.76-5.965 1.823-6.46 3.187-.219.603-.235 1.804-.048 3.605m11.223-8.825c0 .439.297 1.116.891 2.033 3.812.76 5.965 1.823 6.46 3.187.214.59.233 1.756.058 3.498"/>
                <path d="M35.876 44.656c0 2.98-1.779 5.872-3.755 5.872-1.977 0-3.757-2.893-3.757-5.872 0-2.977 1.17-4.913 3.757-4.913 2.586 0 3.755 1.932 3.755 4.913z"/>
            </g>
            <g stroke="#FFF" stroke-linecap="round" stroke-linejoin="round" stroke-width="2">
                <path d="M52.084 49.576c0 .439-.297 1.116-.891 2.033-3.811.76-5.964 1.823-6.46 3.187-.218.603-.234 1.804-.047 3.605m11.222-8.825c0 .439.298 1.116.892 2.033 3.811.76 5.965 1.823 6.459 3.187.214.59.234 1.756.058 3.498"/>
                <path d="M57.75 44.656c0 2.98-1.78 5.872-3.756 5.872-1.977 0-3.756-2.893-3.756-5.872 0-2.977 1.169-4.913 3.756-4.913 2.587 0 3.756 1.932 3.756 4.913z"/>
            </g>
            <path stroke="#FFF" stroke-linecap="round" stroke-linejoin="round" stroke-width="2" d="M19.67 33.212c.373-.381.819-.672 1.299-.814l6.17-1.833.456-1.983m16.785 4.63c-.371-.381-.818-.672-1.297-.814l-6.171-1.833-.456-1.983m2.43-8.302c0 5.095-3.261 10.04-6.886 10.04s-6.886-4.945-6.886-10.04c0-5.09 2.143-8.398 6.886-8.398s6.886 3.302 6.886 8.398zM57.69 9.077c0-3.008-2.421-5.446-5.408-5.446M61.296 8.17c0-4.513-4.036-8.17-9.014-8.17"/>
            <ellipse cx="51.831" cy="8.623" stroke="#FFF" stroke-width="2" rx="2.254" ry="2.269"/>
        </g>
    </g>
</svg>
