<svg id="computer_access" data-name="computer access" xmlns="http://www.w3.org/2000/svg" viewBox="0 0 60 60"><defs><style>.cls-1{fill:#2a969d;}</style></defs><title>remote-diagnostics-g2a</title><path class="cls-1" d="M53.21,25.62A11.78,11.78,0,0,0,45,22.29a16.37,16.37,0,0,0-30.87,5.63A9.13,9.13,0,0,0,4,37a8.57,8.57,0,0,0,2.41,6.37,11.09,11.09,0,0,0,7.23,2.76H46.16c0.11,0,10.71-1.52,10.71-11.92A11.83,11.83,0,0,0,53.21,25.62Zm-7.15,19H13.64s-3.82,0-6.21-2.33a7.13,7.13,0,0,1-2-5.3,7.64,7.64,0,0,1,7.63-7.63,7.72,7.72,0,0,1,1.58.16,0.75,0.75,0,0,0,.9-0.69,14.87,14.87,0,0,1,28.3-5.47,0.71,0.71,0,0,0,.71.43,10.4,10.4,0,0,1,10.8,10.41C55.37,43.28,46.34,44.59,46.06,44.63Z"/><polygon class="cls-1" points="31.02 26.47 29.52 26.47 29.52 31.64 24.35 31.64 24.35 33.14 29.52 33.14 29.52 38.31 31.02 38.31 31.02 33.14 36.19 33.14 36.19 31.64 31.02 31.64 31.02 26.47"/></svg>