<svg xmlns="http://www.w3.org/2000/svg" width="115" height="115" viewBox="0 0 115 115">
    <g fill="none" fill-rule="evenodd">
        <circle cx="57.5" cy="57.5" r="57.5" fill="#0097E1"/>
        <g stroke="#FFF" stroke-linecap="round" stroke-linejoin="round" stroke-width="2">
            <path d="M60.748 13.5H49.294c-.995 0-1.8-.806-1.8-1.8V1.8c0-.994.805-1.8 1.8-1.8h11.454c.994 0 1.8.806 1.8 1.8v3.021h0L69 1.93v9.642L62.548 8.68V11.7c0 .994-.806 1.8-1.8 1.8z" transform="translate(23 29)"/>
            <g>
                <path d="M0 27.45v-1.386c0-1.525 1.164-3.113 2.583-3.532L9.41 20.52l.504-2.178M19.631 18.227l.531 2.293 6.823 2.01c1.422.418 2.586 2.01 2.586 3.534v1.386M22.403 9.223c0 5.596-3.608 11.027-7.617 11.027-4.01 0-7.617-5.43-7.617-11.027C7.169 3.634 9.539 0 14.786 0s7.617 3.628 7.617 9.223z" transform="translate(23 29) translate(18.818 17.1)"/>
            </g>
            <path d="M62.727 18.9L62.727 45.9M4.48 45.9V12.656C4.48 11.294 5.81 9.9 7.327 9.9H43.42M41.605 48.6l-1.867 1.8H27.47l-1.867-1.8H1.8c-.994 0-1.8.806-1.8 1.8v.9h0C0 52.793 1.434 54 3.2 54h60.807c1.77 0 3.2-1.207 3.2-2.7v-.9c0-.994-.805-1.8-1.8-1.8H41.606h0z" transform="translate(23 29)"/>
        </g>
    </g>
</svg>
