<?xml version="1.0" encoding="UTF-8"?>
<svg width="51px" height="44px" viewBox="0 0 51 44" version="1.1" xmlns="http://www.w3.org/2000/svg" xmlns:xlink="http://www.w3.org/1999/xlink">
    <!-- Generator: Sketch 52.3 (67297) - http://www.bohemiancoding.com/sketch -->
    <title>camera-icon</title>
    <desc>Created with Sketch.</desc>
    <g id="RescueAssist-Web-2.0-Temp-Launch" stroke="none" stroke-width="1" fill="none" fill-rule="evenodd">
        <g id="RescueAssist-Web-Mockup-Classic" transform="translate(-199.000000, -1317.000000)">
            <g id="Homepage">
                <g id="Module-2" transform="translate(82.000000, 1123.000000)">
                    <g id="camera-icon" transform="translate(143.000000, 216.500000) rotate(-90.000000) translate(-143.000000, -216.500000) translate(121.500000, 191.500000)">
                        <rect id="Rectangle" stroke="#2A969D" stroke-linecap="round" stroke-linejoin="round" fill-rule="nonzero" x="2" y="0" width="24" height="42.2666667" rx="5"></rect>
                        <path d="M38.25,36 C37.56,36 37,36.563451 37,37.254902 C37,37.9463529 37.56,38.5098039 38.25,38.5098039 C38.94,38.5098039 39.5,37.9463529 39.5,37.254902 C39.5,36.563451 38.94,36 38.25,36 L38.25,36 Z" id="Path" fill="#2A969D"></path>
                        <rect id="Rectangle-Copy-2" fill="#2A969D" transform="translate(34.087744, 49.500000) rotate(-180.000000) translate(-34.087744, -49.500000) " x="31.5877445" y="49" width="5" height="1" rx="0.5"></rect>
                        <path d="M9.66666667,29.155457 L9.66666667,20.7498984 C9.66666667,17.9884746 11.9052429,15.7498984 14.6666667,15.7498984 L28.6666667,15.7498984 C31.4280904,15.7498984 33.6666667,17.9884746 33.6666667,20.7498984 L33.6666667,53.016565 C33.6666667,55.7779888 31.4280904,58.016565 28.6666667,58.016565" id="Path" stroke="#2A969D" stroke-linecap="round" stroke-linejoin="round" fill-rule="nonzero" transform="translate(21.666667, 36.883232) rotate(-270.000000) translate(-21.666667, -36.883232) "></path>
                        <path d="M20.9430281,17.3924536 C21.2880281,17.3924536 21.5680281,17.6735516 21.5680281,18.0199046 L21.5680281,25.5493163 C21.5680281,25.8956693 21.2880281,26.1767673 20.9430281,26.1767673 L7.19302811,26.1767673 C6.84802811,26.1767673 6.56802811,25.8956693 6.56802811,25.5493163 L6.56802811,18.0199046 C6.56802811,17.6735516 6.84802811,17.3924536 7.19302811,17.3924536 L10.2442781,17.3924536 L11.3217781,15.2290026 C11.4280281,15.0169242 11.6442781,14.8826497 11.8805281,14.8826497 L16.2555281,14.8826497 C16.4917781,14.8826497 16.7080281,15.0169242 16.8142781,15.2290026 L17.8917781,17.3924536 L20.9430281,17.3924536 Z M14.0680281,23.6669634 C15.4467781,23.6669634 16.5680281,22.5413163 16.5680281,21.1571595 C16.5680281,19.7730026 15.4467781,18.6473556 14.0680281,18.6473556 C12.6892781,18.6473556 11.5680281,19.7730026 11.5680281,21.1571595 C11.5680281,22.5413163 12.6892781,23.6669634 14.0680281,23.6669634 Z" id="Combined-Shape" fill="#2A969D" transform="translate(14.068028, 20.529708) rotate(-270.000000) translate(-14.068028, -20.529708) "></path>
                        <path d="M13.345098,19.295098 C12.655098,19.295098 12.095098,19.858549 12.095098,20.55 C12.095098,21.241451 12.655098,21.804902 13.345098,21.804902 C14.035098,21.804902 14.595098,21.241451 14.595098,20.55 C14.595098,19.858549 14.035098,19.295098 13.345098,19.295098 L13.345098,19.295098 Z" id="Path" fill="#2A969D" transform="translate(13.345098, 20.550000) rotate(-270.000000) translate(-13.345098, -20.550000) "></path>
                        <path d="M13.25,3 C12.56,3 12,3.56345098 12,4.25490196 C12,4.94635294 12.56,5.50980392 13.25,5.50980392 C13.94,5.50980392 14.5,4.94635294 14.5,4.25490196 C14.5,3.56345098 13.94,3 13.25,3 L13.25,3 Z" id="Path-Copy" fill="#2A969D" transform="translate(13.250000, 4.254902) rotate(-270.000000) translate(-13.250000, -4.254902) "></path>
                        <path d="M18.4626359,26.4980686 L19.7126359,26.4980686 C20.0576359,26.4980686 20.3376359,26.2169705 20.3376359,25.8706176 C20.3376359,25.5242646 20.0576359,25.2431666 19.7126359,25.2431666 L18.4626359,25.2431666 C18.1176359,25.2431666 17.8376359,25.5242646 17.8376359,25.8706176 C17.8376359,26.2169705 18.1176359,26.4980686 18.4626359,26.4980686 L18.4626359,26.4980686 Z" id="Path" fill="#2A969D" transform="translate(19.087636, 25.870618) rotate(-270.000000) translate(-19.087636, -25.870618) "></path>
                        <rect id="Rectangle" fill="#2A969D" x="11" y="38" width="5" height="2" rx="1"></rect>
                        <rect id="Rectangle-Copy-2" fill="#2A969D" transform="translate(26.500000, 11.912256) rotate(-90.000000) translate(-26.500000, -11.912256) " x="24" y="11.4122555" width="5" height="1" rx="0.5"></rect>
                    </g>
                </g>
            </g>
        </g>
    </g>
</svg>