<svg id="computer_access" data-name="computer access" xmlns="http://www.w3.org/2000/svg" viewBox="0 0 60 60"><defs><style>.cls-1{fill:#2a969d;}</style></defs><title>file-transfer-g2a</title><path class="cls-1" d="M13.79,22.82a0.75,0.75,0,0,0,1-1.09L7.05,14.42h42.5V28.73a0.75,0.75,0,0,0,1.5,0V13.67a0.75,0.75,0,0,0-.75-0.75H7.07l7.75-7.21a0.75,0.75,0,1,0-1-1.1L4.65,13.12h0a0.75,0.75,0,0,0-.13.18l0,0.06a0.75,0.75,0,0,0-.05.24s0,0,0,0h0a0.75,0.75,0,0,0,.06.29l0,0a0.75,0.75,0,0,0,.14.2h0Z"/><path class="cls-1" d="M55.26,46.28l0-.05a0.74,0.74,0,0,0,0-.59l0-.05a0.75,0.75,0,0,0-.13-0.19h0L46,36.78a0.75,0.75,0,0,0-1,1.09l7.76,7.31H10.21V31a0.75,0.75,0,1,0-1.5,0V45.93a0.75,0.75,0,0,0,.75.75H52.71L44.94,54a0.75,0.75,0,1,0,1,1.09l9.14-8.6h0A0.75,0.75,0,0,0,55.26,46.28Z"/></svg>