<?xml version="1.0" encoding="UTF-8"?>
<svg width="63px" height="44px" viewBox="0 0 63 44" version="1.1" xmlns="http://www.w3.org/2000/svg" xmlns:xlink="http://www.w3.org/1999/xlink">
    <!-- Generator: Sketch 52.3 (67297) - http://www.bohemiancoding.com/sketch -->
    <title>apple-icon</title>
    <desc>Created with Sketch.</desc>
    <g id="RescueAssist-Web-2.0-Temp-Launch" stroke="none" stroke-width="1" fill="none" fill-rule="evenodd">
        <g id="RescueAssist-Web-Mockup-Classic" transform="translate(-185.000000, -1317.000000)">
            <g id="Homepage">
                <g id="Module-2" transform="translate(82.000000, 1123.000000)">
                    <g id="apple-icon" transform="translate(134.000000, 215.500000) rotate(-90.000000) translate(-134.000000, -215.500000) translate(112.500000, 184.500000)">
                        <rect id="Rectangle" stroke="#2A969D" stroke-linecap="round" stroke-linejoin="round" fill-rule="nonzero" x="-4.34852154e-12" y="16" width="24.5" height="46" rx="5.5"></rect>
                        <path d="M12.2902199,18.8982726 C11.4622199,18.8982726 10.7902199,19.5717726 10.7902199,20.3982726 C10.7902199,21.2247726 11.4622199,21.8982726 12.2902199,21.8982726 C13.1182199,21.8982726 13.7902199,21.2247726 13.7902199,20.3982726 C13.7902199,19.5717726 13.1182199,18.8982726 12.2902199,18.8982726 L12.2902199,18.8982726 Z" id="Path-Copy" fill="#2A969D" transform="translate(12.290220, 20.398273) rotate(-270.000000) translate(-12.290220, -20.398273) "></path>
                        <rect id="Rectangle" fill="#2A969D" x="10" y="58" width="6" height="2" rx="1"></rect>
                        <g id="apple_logo" transform="translate(12.255901, 39.000000) rotate(-269.000000) translate(-12.255901, -39.000000) translate(6.255901, 31.500000)" fill="#2A969D">
                            <path d="M7.07732063,1.33113541 C7.97149684,0.00641887267 9.21482317,0 9.21482317,0 C9.21482317,0 9.39958563,1.24543478 8.51127489,2.44524352 C7.56276586,3.72624233 6.48459895,3.51667481 6.48459895,3.51667481 C6.48459895,3.51667481 6.28208571,2.50908528 7.07732063,1.33113541" id="Fill-34"></path>
                            <path d="M6.10300214,4.23113341 C6.60065107,4.23113341 7.52399766,3.52941176 8.72596756,3.52941176 C10.7948582,3.52941176 11.608859,5.03990314 11.608859,5.03990314 C11.608859,5.03990314 10.0169166,5.87487824 10.0169166,7.90108449 C10.0169166,10.1869466 12,10.9746493 12,10.9746493 C12,10.9746493 10.6137281,14.977734 8.74132606,14.977734 C7.88124983,14.977734 7.21265407,14.3832317 6.30650232,14.3832317 C5.38315573,14.3832317 4.46682062,15 3.87000918,15 C2.16020701,15 0,11.2026189 0,8.15012117 C0,5.14695123 1.8284967,3.57154589 3.54347403,3.57154589 C4.6583011,3.57154589 5.52338555,4.23113341 6.10300214,4.23113341" id="Fill-37"></path>
                        </g>
                        <g id="computer_sm" transform="translate(19.000000, 0.000000)" stroke="#2A969D" stroke-linecap="round">
                            <path d="M11.805512,23.9787539 L3.40588279,23.9787539 C1.74902854,23.9787539 0.405882794,22.6356081 0.405882794,20.9787539 L0.405882794,7.47875386 C0.405882794,5.82189961 1.74902854,4.47875386 3.40588279,4.47875386 L23.9058828,4.47875386 C25.562737,4.47875386 26.9058828,5.82189961 26.9058828,7.47875386 L26.9058828,19.7125817" id="Path" transform="translate(13.655883, 14.228754) rotate(-270.000000) translate(-13.655883, -14.228754) "></path>
                            <path d="M-5.36011434,13.5567499 L21.0618896,13.5567499" id="Line-8" transform="translate(7.639886, 14.056750) rotate(-270.000000) translate(-7.639886, -14.056750) "></path>
                            <path d="M1.10947335,5.5 L1.10947335,12.3471089" id="Line-9" stroke-linejoin="round"></path>
                        </g>
                    </g>
                </g>
            </g>
        </g>
    </g>
</svg>