<svg id="computer_access" data-name="computer access" xmlns="http://www.w3.org/2000/svg" viewBox="0 0 60 60"><defs><style>.cls-1{fill:#2a969d;}</style></defs><title>multi-session-support-g2a</title><path class="cls-1" d="M48.5,31.65a0.75,0.75,0,0,0-.75.75V46.28H13.25V32.4a0.75,0.75,0,0,0-1.5,0V48.15a4.13,4.13,0,0,0,4.13,4.13H29.75v3h-6a0.75,0.75,0,0,0,0,1.5h13.5a0.75,0.75,0,0,0,0-1.5h-6v-3H45.13a4.13,4.13,0,0,0,4.13-4.13V32.4A0.75,0.75,0,0,0,48.5,31.65ZM45.13,50.78H15.87a2.63,2.63,0,0,1-2.63-2.63V47.78H47.75v0.38A2.63,2.63,0,0,1,45.13,50.78Z"/><path class="cls-1" d="M12.5,21.52h0a0.69,0.69,0,0,0-.48.2l0,0h0a0.76,0.76,0,0,0-.22.53h0V27.9a0.75,0.75,0,0,0,1.5,0V24.09L23.15,34A0.75,0.75,0,0,0,24.21,33L14.3,23h3.82a0.75,0.75,0,0,0,0-1.5H12.5Z"/><path class="cls-1" d="M17.75,17.77a7.64,7.64,0,0,0-3.85-6.89,4.13,4.13,0,1,0-5,0A7.64,7.64,0,0,0,5,17.77a0.75,0.75,0,0,0,.75.75H17A0.75,0.75,0,0,0,17.75,17.77Zm-9-10.13a2.63,2.63,0,1,1,2.63,2.63A2.63,2.63,0,0,1,8.75,7.65ZM6.53,17c0.3-3,2.36-5.25,4.84-5.25s4.54,2.29,4.84,5.25H6.53Z"/><path class="cls-1" d="M52.15,10.89a4.13,4.13,0,1,0-5,0,7.64,7.64,0,0,0-3.85,6.89,0.75,0.75,0,0,0,.75.75H55.25A0.75,0.75,0,0,0,56,17.77,7.64,7.64,0,0,0,52.15,10.89ZM47,7.65a2.63,2.63,0,1,1,2.63,2.63A2.63,2.63,0,0,1,47,7.65ZM44.79,17c0.3-3,2.36-5.25,4.84-5.25s4.54,2.29,4.84,5.25H44.79Z"/><path class="cls-1" d="M24.12,17.77a0.75,0.75,0,0,0,.75.75H36.13a0.75,0.75,0,0,0,.75-0.75A7.64,7.64,0,0,0,33,10.89a4.13,4.13,0,1,0-5,0A7.64,7.64,0,0,0,24.12,17.77ZM27.87,7.65a2.63,2.63,0,1,1,2.63,2.63A2.63,2.63,0,0,1,27.87,7.65Zm2.63,4.13C33,11.77,35,14.07,35.34,17H25.66C26,14.07,28,11.77,30.5,11.77Z"/><path class="cls-1" d="M49.2,22A0.75,0.75,0,0,0,49,21.74h0l0,0a0.68,0.68,0,0,0-.48-0.2H42.88a0.75,0.75,0,0,0,0,1.5H46.7L36.79,33A0.75,0.75,0,1,0,37.85,34l9.9-9.94V27.9a0.75,0.75,0,1,0,1.5,0V22.27h0A0.75,0.75,0,0,0,49.2,22Z"/><path class="cls-1" d="M30.5,34.24h0a0.75,0.75,0,0,0,.75-0.75l0-9.67,3.31,2.43A0.75,0.75,0,0,0,35.48,25L31,21.74l-0.1-.05-0.08,0a0.74,0.74,0,0,0-.53,0l-0.08,0-0.1,0L25.59,25a0.75,0.75,0,1,0,.88,1.21l3.3-2.4,0,9.67A0.75,0.75,0,0,0,30.5,34.24Z"/></svg>