<?xml version="1.0" encoding="UTF-8" standalone="no"?>
<svg width="30px" height="36px" viewBox="0 0 30 36" version="1.1" xmlns="http://www.w3.org/2000/svg" xmlns:xlink="http://www.w3.org/1999/xlink">
    <!-- Generator: Sketch 39.1 (31720) - http://www.bohemiancoding.com/sketch -->
    <title>Av-icon-01</title>
    <desc>Created with Sketch.</desc>
    <defs></defs>
    <g id="Page-1" stroke="none" stroke-width="1" fill="none" fill-rule="evenodd">
        <g id="Av-icon-01" fill="#45B6F2">
            <g id="Av-icon">
                <path d="M27.16,36 C26.554635,36.0305505 25.9949489,35.6787478 25.76,35.12 L25.46,34.61 C25.2168099,34.1665922 24.9357648,33.7450246 24.62,33.35 L24.56,33.27 C24.0029115,32.5020888 23.3279112,31.8270885 22.56,31.27 C20.5387754,32.9817382 17.9882353,33.9426065 15.34,33.99 L15.19,33.99 C12.5302783,33.817742 9.9929196,32.8097981 7.94,31.11 C7.13106319,31.7011298 6.40757208,32.4010653 5.79,33.19 C5.52,33.57 5.27,33.99 4.99,34.43 L4.64,34.99 C4.32612691,35.636782 3.58572728,35.9559197 2.9,35.74 C2.42604232,35.5855802 2.05441983,35.2139577 1.9,34.74 C1.70832655,34.297692 1.7456925,33.7895152 2,33.38 C2.42205441,32.6116182 2.89650955,31.8732057 3.42,31.17 C4.13115033,30.2420407 4.95782934,29.4086407 5.88,28.69 C5.42792035,28.0177577 5.06804556,27.2879181 4.81,26.52 C4.52184115,25.7391555 4.31083438,24.9319708 4.18,24.11 L1.85,24.11 C1.44152796,24.1207475 1.04552975,23.9687185 0.749191618,23.6873848 C0.452853489,23.4060512 0.280471967,23.0184792 0.27,22.61 C0.266473,22.1969944 0.434534134,21.8010536 0.734068513,21.5166855 C1.03360289,21.2323174 1.43773441,21.0850374 1.85,21.11 L4.28,21.11 C4.44331537,19.8179558 4.84332814,18.5670684 5.46,17.42 L5.46,17.42 C5.26,17.24 5.07,17.07 4.85,16.9 L4.77,16.83 C3.66683731,15.7533885 2.73293283,14.5160493 2,13.16 L1.94,13 C1.67694908,12.4657144 1.77255821,11.8243364 2.18,11.39 C2.49301283,11.0527976 2.92997627,10.8577891 3.39,10.85 C3.96691918,10.8530031 4.48467591,11.2047615 4.7,11.74 C5.08,12.34 5.5,13.01 5.9,13.58 C6.25226942,14.0273144 6.64020549,14.4453489 7.06,14.83 C9.13096725,12.5868733 12.0573211,11.3290865 15.11,11.37 C18.1676884,11.3288006 21.0984772,12.5905669 23.17,14.84 C23.5517278,14.5015893 23.8878741,14.115021 24.17,13.69 C24.44,13.32 24.66,12.98 24.89,12.64 C25.12,12.3 25.39,11.87 25.66,11.51 L25.75,11.41 C25.8851687,11.2044482 26.0758883,11.0414696 26.3,10.94 C26.863928,10.6309859 27.5668844,10.7557711 27.99,11.24 C28.5023782,11.7230333 28.6066503,12.4988177 28.24,13.1 C27.9765391,13.6253926 27.6792473,14.133127 27.35,14.62 C26.6529634,15.6724785 25.8189778,16.6275265 24.87,17.46 C25.20183,18.061667 25.4731584,18.6947666 25.68,19.35 C25.82,19.82 25.91,20.28 26,20.72 L26.1,21.21 L28.41,21.21 C29.0646155,21.1744031 29.6606502,21.5854616 29.86,22.21 C30.0936831,22.7614996 29.9668198,23.3997805 29.54,23.82 L29.43,23.93 L29.31,24 C29.0049345,24.1732918 28.6608284,24.2662005 28.31,24.27 L26.11,24.27 C25.878719,25.9181331 25.288128,27.4953183 24.38,28.89 C26.0116568,30.2024409 27.3561419,31.8362455 28.33,33.69 C28.4819581,34.0004508 28.5508648,34.3449846 28.53,34.69 C28.4698987,35.4100853 27.8820536,35.9721854 27.16,36 L27.16,36 Z M15.2,14.45 C12.2292363,14.3457627 9.43842076,15.871177 7.92213021,18.4279651 C6.40583966,20.9847531 6.40583966,24.1652469 7.92213021,26.7220349 C9.43842076,29.278823 12.2292363,30.8042373 15.2,30.7 C19.5816883,30.5921586 23.089163,27.0303326 23.1296199,22.6475042 C23.1700768,18.2646757 19.7289509,14.6387089 15.35,14.45 L15.2,14.45 L15.2,14.45 Z" id="Shape"></path>
                <path d="M10.07,11.6 C9.82188309,11.6013054 9.57752673,11.5393559 9.36,11.42 C8.94775543,11.1893485 8.66127561,10.7853385 8.58,10.32 C8.02389353,7.84495595 8.9378089,5.27043691 10.93,3.7 C10.4005479,3.32980798 9.7657385,3.14041735 9.12,3.16 C8.70773441,3.18496262 8.30360289,3.03768258 8.00406851,2.7533145 C7.70453413,2.46894642 7.536473,2.07300558 7.54,1.66 C7.51979991,1.23508679 7.67976702,0.821363693 7.98056536,0.520565357 C8.28136369,0.21976702 8.69508679,0.0597999124 9.12,0.08 C11.0256246,0.0101342173 12.8460734,0.871863093 14,2.39 C14.7933589,2.2442215 15.6066411,2.2442215 16.4,2.39 C17.4919893,0.948133099 19.1913533,0.094756815 21,0.08 L21,0.08 C21.7894941,0.0434409362 22.4940383,0.571849104 22.68,1.34 L22.68,1.58 C22.683527,1.99300558 22.5154659,2.38894642 22.2159315,2.6733145 C21.9163971,2.95768258 21.5122656,3.10496262 21.1,3.08 C20.4842037,3.11161244 19.8905426,3.31991457 19.39,3.68 C21.4309382,5.19657511 22.3517619,7.79701286 21.72,10.26 C21.6689423,10.7719398 21.3556875,11.2206335 20.892703,11.4449872 C20.4297186,11.6693409 19.8834411,11.6371606 19.45,11.36 C18.4669109,10.9019841 17.4107219,10.6210107 16.33,10.53 C14.921301,10.3792182 13.4966716,10.511821 12.14,10.92 C11.6972661,11.0679267 11.2660882,11.2484197 10.85,11.46 C10.6015111,11.5567081 10.3366104,11.6042543 10.07,11.6 L10.07,11.6 Z M15.12,7.48 C16.3521538,7.47555663 17.5783765,7.65073129 18.76,8 C18.3021106,6.35081355 16.7702592,5.23297605 15.06,5.3 C13.4726037,5.37510096 12.1150564,6.46598718 11.7,8 C12.8110905,7.67338977 13.9619595,7.50176896 15.12,7.49 L15.12,7.48 Z" id="Shape"></path>
            </g>
        </g>
    </g>
</svg>