<svg width="32" height="40" viewBox="0 0 32 40" xmlns="http://www.w3.org/2000/svg"><title>report</title><defs><filter x="-50%" y="-50%" width="200%" height="200%" filterUnits="objectBoundingBox" id="a"><feOffset dy="-2" in="SourceAlpha" result="shadowOffsetInner1"/><feGaussianBlur in="shadowOffsetInner1" result="shadowBlurInner1"/><feComposite in="shadowBlurInner1" in2="SourceAlpha" operator="arithmetic" k2="-1" k3="1" result="shadowInnerInner1"/><feColorMatrix values="0 0 0 0 0 0 0 0 0 0 0 0 0 0 0 0 0 0 0.14 0" in="shadowInnerInner1" result="shadowMatrixInner1"/><feOffset dy="2" in="SourceAlpha" result="shadowOffsetInner2"/><feGaussianBlur in="shadowOffsetInner2" result="shadowBlurInner2"/><feComposite in="shadowBlurInner2" in2="SourceAlpha" operator="arithmetic" k2="-1" k3="1" result="shadowInnerInner2"/><feColorMatrix values="0 0 0 0 1 0 0 0 0 1 0 0 0 0 1 0 0 0 0.14 0" in="shadowInnerInner2" result="shadowMatrixInner2"/><feMerge><feMergeNode in="SourceGraphic"/><feMergeNode in="shadowMatrixInner1"/><feMergeNode in="shadowMatrixInner2"/></feMerge></filter></defs><path d="M682 2190h-24c-2.21 0-4-1.79-4-4v-28c0-2.21 1.792-4 4-4h4c0-2.21 1.79-4 4-4h8c2.21 0 4 1.79 4 4h4c2.21 0 4 1.79 4 4v28c0 2.21-1.79 4-4 4zm-8-34c0-1.104-.896-2-2-2h-4c-1.104 0-2 .896-2 2v2h8v-2zm8 4c0-1.104-.896-2-2-2h-4c0 1.104-.896 2-2 2h-8c-1.104 0-2-.896-2-2h-4c-1.104 0-2 .896-2 2v24c0 1.104.896 2 2 2h20c1.104 0 2-.896 2-2v-24zm-7 18h-10c-.552 0-1-.448-1-1s.448-1 1-1h10c.552 0 1 .448 1 1s-.448 1-1 1zm0-8h-10c-.552 0-1-.448-1-1s.448-1 1-1h10c.552 0 1 .448 1 1s-.448 1-1 1z" transform="translate(-654 -2150)" filter="url(#a)" fill="#45B6F2" fill-rule="evenodd"/></svg>