<svg width="51" height="40" viewBox="0 0 51 40" xmlns="http://www.w3.org/2000/svg"><title>people</title><defs><filter x="-50%" y="-50%" width="200%" height="200%" filterUnits="objectBoundingBox" id="a"><feOffset dy="-2" in="SourceAlpha" result="shadowOffsetInner1"/><feGaussianBlur in="shadowOffsetInner1" result="shadowBlurInner1"/><feComposite in="shadowBlurInner1" in2="SourceAlpha" operator="arithmetic" k2="-1" k3="1" result="shadowInnerInner1"/><feColorMatrix values="0 0 0 0 0 0 0 0 0 0 0 0 0 0 0 0 0 0 0.14 0" in="shadowInnerInner1" result="shadowMatrixInner1"/><feOffset dy="2" in="SourceAlpha" result="shadowOffsetInner2"/><feGaussianBlur in="shadowOffsetInner2" result="shadowBlurInner2"/><feComposite in="shadowBlurInner2" in2="SourceAlpha" operator="arithmetic" k2="-1" k3="1" result="shadowInnerInner2"/><feColorMatrix values="0 0 0 0 1 0 0 0 0 1 0 0 0 0 1 0 0 0 0.14 0" in="shadowInnerInner2" result="shadowMatrixInner2"/><feMerge><feMergeNode in="SourceGraphic"/><feMergeNode in="shadowMatrixInner1"/><feMergeNode in="shadowMatrixInner2"/></feMerge></filter></defs><path d="M693.22 1950h-3.245c.2-1.027.322-1.8.322-2.14 0-2.3-5.18-4.163-7.375-4.163-.62 0-1.48.16-2.39.425-.136-1.362-.86-2.65-1.978-3.806 1.47-.522 3.052-.838 4.478-.838 4.107 0 11.494 2.497 11.494 5.58 0 .795-.503 2.647-1.307 4.942zm-10.28-12.632c-4.077 0-7.38-5.07-7.38-9.25s3.303-7.57 7.38-7.57c4.075 0 7.378 3.39 7.378 7.57s-3.303 9.25-7.38 9.25zm0-12.656c-1.748 0-3.167 1.572-3.167 3.513 0 1.94 1.42 4.92 3.168 4.92 1.75 0 3.17-2.98 3.17-4.92-.003-1.94-1.42-3.513-3.17-3.513zm-22.098 8.446c-5.813 0-10.526-6.817-10.526-12.632 0-5.814 4.713-10.526 10.526-10.526s10.526 4.712 10.526 10.526c0 5.815-4.713 12.632-10.526 12.632zm0-18.947c-3.488 0-6.316 2.828-6.316 6.316 0 3.49 2.828 8.42 6.316 8.42 3.49 0 6.316-4.93 6.316-8.42 0-3.488-2.827-6.315-6.316-6.315zm16.853 30.893c0 .922-.35 2.682-.922 4.895h-4.19c.566-2.19.903-3.8.903-4.436 0-3.362-9.38-6.088-12.638-6.088-3.256 0-12.64 2.726-12.64 6.09 0 .636.337 2.247.9 4.436h-4.188c-.57-2.215-.92-3.975-.92-4.897 0-5.446 11.46-9.863 16.848-9.863 5.388 0 16.847 4.417 16.847 9.863z" transform="translate(-644 -1910)" filter="url(#a)" fill="#45B6F2" fill-rule="evenodd"/></svg>