<?xml version="1.0" encoding="UTF-8"?>
<svg width="191px" height="30px" viewBox="0 0 191 30" version="1.1" xmlns="http://www.w3.org/2000/svg" xmlns:xlink="http://www.w3.org/1999/xlink">
    <!-- Generator: Sketch 55.1 (78136) - https://sketchapp.com -->
    <title>LMI_GoToMeeting_Orange_HEX</title>
    <desc>Created with Sketch.</desc>
    <g id="Page-1" stroke="none" stroke-width="1" fill="none" fill-rule="evenodd">
        <g id="Logos_Colour" transform="translate(-24.000000, -264.000000)">
            <g id="LMI_GoToMeeting_Orange_HEX" transform="translate(24.000000, 264.000000)">
                <path d="M47.6671567,13.7496765 L41.8927787,13.7496765 C41.5468804,13.7084689 41.2009165,13.8260109 40.9520874,14.0692785 C40.7032583,14.312546 40.5784141,14.6552889 40.6126306,15.0012118 L40.6126306,15.5747059 C40.5784118,15.9206293 40.7032552,16.2633736 40.9520849,16.5066417 C41.2009146,16.7499098 41.5468799,16.867451 41.8927787,16.8262412 L45.0543003,16.8262412 L45.0543003,19.6420118 C44.0637906,20.1314623 42.9717716,20.3815087 41.8665044,20.3719412 C40.2951551,20.4452064 38.7649496,19.8580232 37.6476768,18.7530574 C36.5304039,17.6480915 35.9283292,16.1264821 35.9877366,14.5579294 C35.946258,13.0262862 36.5287329,11.543277 37.6021211,10.4476291 C38.6755092,9.35198124 40.1481296,8.7372768 41.6836278,8.74391765 C42.8799259,8.68815262 44.0697309,8.94902442 45.132404,9.50008235 C45.8639163,9.83901176 46.4129352,9.78692941 46.883084,9.13511765 L47.5364927,8.30082353 C47.7769694,8.04621641 47.8823317,7.69297374 47.820517,7.34858997 C47.7587024,7.00420621 47.5370218,6.7094128 47.2229343,6.55391765 C45.542087,5.58353446 43.6248824,5.09628609 41.6836278,5.14612941 C35.9614269,5.14612941 31.8333333,9.42195882 31.8333333,14.5839706 C31.8333333,19.6940941 35.8833233,23.9699319 41.7879998,23.9699319 C44.0782766,23.9736741 46.3073421,23.2322547 48.1373056,21.8580471 C48.6696311,21.5077364 48.9774638,20.9033556 48.947287,20.2677765 L48.947287,15.0012118 C48.9814385,14.6553081 48.8565761,14.3126077 48.6077669,14.0693563 C48.3589577,13.8261049 48.0130376,13.708539 47.6671567,13.7496765 L47.6671567,13.7496765 Z" id="Path" fill="#53565A"></path>
                <path d="M58.3026852,9.99545294 C54.0435031,9.99545294 50.8561139,13.1241 50.8561139,16.9826882 C50.8561139,20.8673118 54.0435266,23.9699176 58.3026852,23.9699176 C62.5614605,23.9699176 65.7492623,20.8412706 65.7492623,16.9826882 C65.7492623,13.1241059 62.5614605,9.99545294 58.3026852,9.99545294 Z M58.3026852,20.7108706 C56.7847518,20.759411 55.3892699,19.8835762 54.7757576,18.4972942 C54.1622454,17.1110122 54.4535584,15.4918855 55.5120194,14.405129 C56.5704804,13.3183726 58.1841328,12.981609 59.590349,13.5539959 C60.9965652,14.1263829 61.9137508,15.4933002 61.908435,17.0087294 C61.9371165,17.9810196 61.5698722,18.9234366 60.8904801,19.6209907 C60.211088,20.3185447 59.2774976,20.7117372 58.3026852,20.7108706 Z" id="Shape" fill="#53565A" fill-rule="nonzero"></path>
                <path d="M78.0303029,7.67505294 L78.0303029,6.68431765 C78.0644226,6.33836557 77.9394843,5.99563723 77.6905857,5.7524124 C77.4416872,5.50918757 77.0956825,5.39170809 76.7497717,5.43297647 L64.2607179,5.43297647 C63.9173254,5.39275426 63.5743735,5.51159233 63.3298722,5.75552869 C63.0853709,5.99946505 62.9662229,6.34165921 63.0064787,6.68431765 L63.0064787,7.67505294 C62.9662151,8.0177303 63.0853526,8.35994743 63.3298484,8.60391721 C63.5743441,8.84788699 63.9173,8.96676934 64.2607179,8.92659412 L68.4410064,8.92659412 L68.4410064,22.4315412 C68.4007424,22.7742181 68.5198801,23.116435 68.7643761,23.3604039 C69.0088722,23.6043729 69.3518284,23.7232537 69.6952456,23.6830765 L71.26266,23.6830765 C71.6060935,23.7233217 71.9490916,23.6044632 72.1936052,23.3604779 C72.4381188,23.1164926 72.5572357,22.7742344 72.5169052,22.4315412 L72.5169052,8.92659412 L76.7497717,8.92659412 C77.0957078,8.96781579 77.4417167,8.85029213 77.6906098,8.60703377 C77.9395029,8.3637754 78.0644307,8.02102388 78.0303029,7.67505294 L78.0303029,7.67505294 Z" id="Path" fill="#53565A"></path>
                <path d="M82.7340965,9.99545294 C78.4749144,9.99545294 75.2875252,13.1241 75.2875252,16.9826882 C75.2875252,20.8673118 78.474932,23.9699176 82.7340965,23.9699176 C86.9928659,23.9699176 90.1806677,20.8412706 90.1806677,16.9826882 C90.1806677,13.1241059 86.9928659,9.99545294 82.7340965,9.99545294 Z M82.7340965,20.7108706 C81.2161631,20.759411 79.8206812,19.8835762 79.2071689,18.4972942 C78.5936567,17.1110122 78.8849697,15.4918855 79.9434307,14.405129 C81.0018917,13.3183726 82.6155441,12.981609 84.0217603,13.5539959 C85.4279765,14.1263829 86.3451621,15.4933002 86.3398463,17.0087294 C86.3685278,17.9810196 86.0012835,18.9234366 85.3218914,19.6209907 C84.6424993,20.3185447 83.7089089,20.7117372 82.7340965,20.7108706 L82.7340965,20.7108706 Z" id="Shape" fill="#53565A" fill-rule="nonzero"></path>
                <path d="M111.371304,5.43297647 L110.221455,5.43297647 C109.856657,5.40470594 109.520728,5.631857 109.411845,5.98042353 L103.010344,20.7629412 L96.6088611,5.98042353 C96.500161,5.63172147 96.1641066,5.40448614 95.799251,5.43297647 L94.6494015,5.43297647 C94.4667153,5.41580315 94.2853488,5.47710531 94.1507293,5.60152846 C94.0161099,5.72595161 93.9409886,5.90171049 93.9441812,6.08478235 L92.3504748,22.9531412 C92.3109311,23.1466822 92.367354,23.3473737 92.5020133,23.4921497 C92.6366726,23.6369257 92.833038,23.7080143 93.0294032,23.6830765 L93.6828177,23.6830765 C93.8709945,23.7017593 94.0586126,23.6425888 94.2018484,23.5193862 C94.3450842,23.3961835 94.4313935,23.2197384 94.4406161,23.0312647 L95.7207642,8.43122353 L101.965291,22.9008647 C102.083423,23.2426619 102.41335,23.4657328 102.775273,23.4485118 L103.245805,23.4485118 C103.601287,23.4647807 103.923062,23.2398161 104.029123,22.9008647 L110.300331,8.43122353 L111.580473,23.0312647 C111.589545,23.2197243 111.675757,23.3962033 111.818947,23.5194272 C111.962136,23.6426512 112.149744,23.7018131 112.337894,23.6830765 L112.991302,23.6830765 C113.187685,23.7079631 113.384051,23.6368764 113.518759,23.4921307 C113.653467,23.347385 113.710003,23.1467261 113.67062,22.9531412 L112.076914,6.08478235 C112.080014,5.90166844 112.004809,5.72590392 111.870126,5.60149022 C111.735442,5.47707652 111.55403,5.41579115 111.371304,5.43297647 Z" id="Path" fill="#53565A"></path>
                <path d="M122.974195,10.3864706 C121.129637,10.3447349 119.346793,11.0503032 118.032324,12.3422378 C116.717855,13.6341723 115.983864,15.402292 115.997772,17.2432941 C115.997772,20.9193941 118.819426,23.9699176 123.313662,23.9699176 C125.110313,24.0156655 126.863355,23.4140649 128.251749,22.2752882 C128.439964,22.1680747 128.56801,21.9801357 128.598696,21.7660574 C128.629383,21.551979 128.55927,21.3357578 128.408722,21.1801941 L128.199554,20.9716706 C127.951737,20.6887615 127.523283,20.654046 127.23297,20.8933529 C126.109837,21.7538499 124.729582,22.2129425 123.313662,22.1969706 C120.099957,22.1969706 117.826933,20.0590588 118.009816,17.1651706 L128.800767,17.1651706 C129.270916,17.1651706 129.558189,16.9043706 129.480085,16.4612765 C129.140235,12.2898059 126.161607,10.3864706 122.974195,10.3864706 Z M118.19271,15.6269941 C118.827585,13.509759 120.812883,12.0855506 123.026401,12.1594118 C124.829276,12.1594118 126.867223,12.9416235 127.468053,15.6269941 L118.19271,15.6269941 Z" id="Shape" fill="#53565A" fill-rule="nonzero"></path>
                <path d="M138.495232,10.3864706 C136.650696,10.3448057 134.867895,11.0503977 133.553445,12.3423173 C132.238994,13.634237 131.504985,15.4023151 131.518827,17.2432941 C131.518827,20.9193941 134.34087,23.9699176 138.834717,23.9699176 C140.631368,24.0156655 142.38441,23.4140649 143.772804,22.2752882 C143.961019,22.1680747 144.089065,21.9801357 144.119751,21.7660574 C144.150438,21.551979 144.080325,21.3357578 143.929777,21.1801941 L143.720609,20.9716706 C143.472792,20.6887615 143.044338,20.654046 142.754025,20.8933529 C141.630892,21.7538499 140.250637,22.2129425 138.834717,22.1969706 C135.621012,22.1969706 133.347988,20.0590588 133.530871,17.1651706 L144.321822,17.1651706 C144.791971,17.1651706 145.079244,16.9043706 145.00114,16.4612765 C144.661278,12.2898059 141.682645,10.3864706 138.495232,10.3864706 Z M133.713747,15.6269941 C134.348719,13.5098261 136.333959,12.0856634 138.547444,12.1594176 C140.350319,12.1594176 142.388266,12.9416294 142.989096,15.6269941 L133.713747,15.6269941 Z" id="Shape" fill="#53565A" fill-rule="nonzero"></path>
                <path d="M158.589375,10.6733059 L157.98855,10.6733059 C157.797477,10.6591252 157.609695,10.7287245 157.474231,10.8639328 C157.338767,10.9991411 157.269068,11.1865368 157.28333,11.3771941 L157.28333,22.9791824 C157.26459,23.1709566 157.332838,23.3610361 157.469362,23.4973029 C157.605885,23.6335697 157.796357,23.7017232 157.98855,23.6830765 L158.589375,23.6830765 C158.777961,23.6961523 158.962672,23.6252379 159.09384,23.489401 C159.225008,23.3535642 159.28917,23.1667471 159.269076,22.9791824 L159.269076,11.3771941 C159.289169,11.1896303 159.225005,11.0028149 159.093837,10.8669795 C158.962669,10.731144 158.77796,10.6602303 158.589375,10.6733059 L158.589375,10.6733059 Z" id="Path" fill="#53565A"></path>
                <path d="M158.276206,4.85928824 C157.676658,4.8430714 157.126826,5.19028753 156.884878,5.73790532 C156.642929,6.28552311 156.756922,6.92476752 157.173334,7.35548874 C157.589745,7.78620996 158.225861,7.92285247 158.783001,7.70125738 C159.340141,7.47966228 159.707638,6.94384571 159.712938,6.34539412 C159.729311,5.95559483 159.584961,5.57611566 159.313506,5.29533161 C159.04205,5.01454756 158.667183,4.85696706 158.276206,4.85928824 Z" id="Path" fill="#53565A"></path>
                <path d="M169.589501,10.3864706 C167.568258,10.3004612 165.726031,11.5366503 165.04346,13.437 L165.04346,11.3771941 C165.06211,11.1853672 164.993772,10.9952751 164.857177,10.8590184 C164.720581,10.7227616 164.530056,10.6546333 164.337821,10.6733059 L163.736996,10.6733059 C163.549691,10.6647394 163.367763,10.7370828 163.237701,10.8718493 C163.107638,11.0066158 163.042044,11.1907486 163.057679,11.3771941 L163.057679,22.9791824 C163.037557,23.1666859 163.101656,23.3534584 163.232745,23.4892904 C163.363835,23.6251224 163.548463,23.6960758 163.736996,23.6830765 L164.337821,23.6830765 C164.530057,23.7017494 164.720583,23.6336202 164.857179,23.4973621 C164.993775,23.361104 165.062112,23.1710102 165.04346,22.9791824 L165.04346,17.3736941 C165.069362,13.1761824 168.022087,12.1594059 169.45882,12.1594059 C171.10511,12.1594059 172.751011,13.1501412 172.751011,16.3048353 L172.751011,22.9791824 C172.732361,23.1710035 172.800693,23.3610905 172.93728,23.4973472 C173.073868,23.6336039 173.264384,23.7017381 173.456615,23.6830765 L174.057445,23.6830765 C174.249682,23.7017494 174.440208,23.6336202 174.576804,23.4973621 C174.713399,23.361104 174.781736,23.1710102 174.763084,22.9791824 L174.763084,16.3048353 C174.763055,12.0029412 172.359349,10.3864706 169.589501,10.3864706 Z" id="Path" fill="#53565A"></path>
                <path d="M190.179313,10.6733059 L189.578483,10.6733059 C189.389913,10.6601664 189.205201,10.7310752 189.07408,10.8669401 C188.942959,11.002805 188.878907,11.1896598 188.899171,11.3771941 L188.899171,13.2545 C187.854312,11.4278251 185.88512,10.3249629 183.778202,10.3864588 C179.780407,10.3864588 177.272311,13.4630294 177.272311,17.1912118 C177.272311,20.9193941 179.832985,23.9699176 183.778202,23.9699176 C185.882155,24.047329 187.855133,22.9524542 188.899171,21.1281118 L188.899171,23.3701941 C188.899171,26.3424 186.965591,28.0630706 184.143955,28.0630706 C182.683641,28.1034734 181.245033,27.7036909 180.015867,26.9158941 C179.597524,26.6292412 179.283966,26.6813235 179.075186,27.1246118 L178.892304,27.4373 C178.786104,27.5911966 178.7483,27.78202 178.787828,27.9646623 C178.827357,28.1473045 178.940708,28.3055551 179.101089,28.4020059 C180.5914,29.3897693 182.35632,29.88254 184.143955,29.8099882 C187.827808,29.8099882 190.884923,27.6981176 190.884923,23.5266471 L190.884923,11.3772353 C190.903585,11.1854072 190.835257,10.9953089 190.698666,10.8590437 C190.562076,10.7227785 190.371551,10.6546407 190.179313,10.6733059 Z M184.013273,22.1969706 C181.008743,22.1969706 179.258063,19.9288529 179.258063,17.1912118 C179.258063,14.4537647 180.982451,12.1594059 183.986981,12.1594059 C186.939705,12.1594059 188.925457,14.3233647 188.925457,17.1912118 C188.993385,18.5202074 188.501297,19.8170024 187.568267,20.7678063 C186.635237,21.7186102 185.346274,22.2367939 184.013273,22.1969706 L184.013273,22.1969706 Z" id="Shape" fill="#53565A" fill-rule="nonzero"></path>
                <path d="M154.351675,10.666 L150.560873,10.666 L150.560873,7.35298235 C150.575366,7.18511608 150.512896,7.01973061 150.390969,6.90317209 C150.269041,6.78661357 150.100773,6.73142235 149.93332,6.75306471 L149.594047,6.75306471 C149.429899,6.73768195 149.266661,6.79053915 149.142842,6.89916674 C149.019023,7.00779433 148.945588,7.16257276 148.939861,7.32698824 L148.548481,10.666 L146.770059,10.666 C146.655222,10.6511311 146.539975,10.6903038 146.458113,10.7720308 C146.37625,10.8537579 146.337052,10.9687769 146.352011,11.0833588 L146.352011,11.8398294 C146.332507,11.9553631 146.370213,12.0731748 146.453216,12.1560421 C146.536219,12.2389093 146.654266,12.2765957 146.770059,12.2571941 L148.548481,12.2571941 L148.548481,19.9303706 C148.548481,22.8698588 150.211779,23.6776059 151.898952,23.6776059 L153.699121,23.6776059 C153.891322,23.6962536 154.081808,23.6281518 154.218409,23.4919522 C154.35501,23.3557526 154.423409,23.1657305 154.404872,22.9739294 L154.404872,22.6082824 C154.417891,22.4200685 154.346747,22.2357582 154.21056,22.1048904 C154.074374,21.9740226 153.887117,21.9100233 153.699121,21.9300941 L151.898952,21.9300941 C151.192865,21.9300941 150.560861,21.5221824 150.560861,20.1687235 L150.560861,12.2572059 L154.351663,12.2572059 C154.466532,12.2722158 154.581867,12.2330883 154.663764,12.1513251 C154.745662,12.0695619 154.784813,11.9544552 154.769711,11.8398412 L154.769711,11.0833706 C154.780217,10.9698282 154.73957,10.8575053 154.65879,10.7768545 C154.578011,10.6962037 154.465468,10.655581 154.351675,10.666 L154.351675,10.666 Z" id="Path" fill="#53565A"></path>
                <path d="M24.6973611,16.8138529 C23.3764748,16.0151324 21.7065399,16.0746433 20.4461197,16.9653529 C20.199446,17.1422378 19.8720351,17.1592822 19.6082545,17.0089706 L15.755926,14.7896706 C15.7259281,14.7723867 15.707449,14.7404472 15.707449,14.7058824 C15.707449,14.6713175 15.7259281,14.639378 15.755926,14.6220941 L19.5865371,12.4152824 C19.851834,12.2641713 20.181278,12.2823409 20.4282694,12.4617059 C21.6875576,13.3624532 23.3633084,13.4287921 24.6901515,12.6304235 C26.4448187,11.5498485 27.0611518,9.29793185 26.1004978,7.47739412 C25.2271279,5.86297017 23.3376718,5.08243015 21.5762656,5.60842018 C19.8148594,6.13441021 18.6657227,7.82233298 18.8247006,9.65008824 C18.8531911,9.95063891 18.7043294,10.2403789 18.4431427,10.3927412 L14.5923705,12.6111765 C14.5623711,12.6284565 14.5254121,12.6284551 14.495414,12.6111728 C14.4654158,12.5938905 14.4469355,12.5619525 14.4469335,12.5273882 L14.4469629,8.08867647 C14.4483975,7.78555255 14.6269089,7.511122 14.9037831,7.38639412 C16.5593378,6.62669378 17.4615876,4.81937345 17.0720345,3.04311247 C16.6824815,1.26685149 15.1061992,0.000487423281 13.2839747,0.000487423281 C11.4617501,0.000487423281 9.88508953,1.26584011 9.49500564,3.04198508 C9.10492174,4.81813006 10.0066313,6.6257188 11.6619589,7.38591176 C11.9393099,7.5106198 12.1182707,7.78530465 12.1199345,8.08885294 L12.1199345,12.5274118 C12.1199324,12.561976 12.1014521,12.593914 12.071454,12.6111963 C12.0414559,12.6284786 12.0044968,12.62848 11.9744974,12.6112 L8.12356602,10.3926471 C7.86265467,10.2407475 7.71379018,9.95157366 7.74201404,9.65147059 C7.89922307,7.84057088 6.77186099,6.16466673 5.03272676,5.6239218 C3.29359252,5.08317686 1.41173065,5.82343004 0.510218385,7.40290529 C-0.391293878,8.98238054 -0.0693186676,10.9750934 1.28399228,12.1918117 C2.63730322,13.4085301 4.65696193,13.5211051 6.13765531,12.4623529 C6.38484207,12.2826081 6.71468507,12.2642038 6.98041333,12.4153294 L10.8109242,14.6220824 C10.8409221,14.6393662 10.8594013,14.6713057 10.8594013,14.7058706 C10.8594013,14.7404355 10.8409221,14.772375 10.8109242,14.7896588 L6.95858981,17.0089706 C6.69481146,17.1592826 6.36740188,17.1422382 6.12073059,16.9653529 C4.86031035,16.0746433 3.19037543,16.0151324 1.86948914,16.8138529 C0.119769363,17.8965037 -0.492945898,20.1450158 0.466434969,21.9627118 C1.342225,23.580689 3.23805241,24.3603444 5.00200193,23.8279549 C6.76595144,23.2955655 7.91092241,21.5981464 7.7412241,19.7670588 C7.71077826,19.4650331 7.85968841,19.1730405 8.12229858,19.0198235 L11.9744974,16.8005882 C12.0044963,16.7833043 12.0414575,16.7833037 12.0714569,16.8005868 C12.1014564,16.8178699 12.1199361,16.8498107 12.1199345,16.8843765 L12.1199345,21.3230882 C12.1185004,21.6262 11.9399956,21.9006195 11.663132,22.0253412 C10.0075516,22.7850228 9.10526892,24.592347 9.49480363,26.3686279 C9.88433835,28.1449087 11.4606212,29.4113174 13.2828613,29.4113174 C15.1051015,29.4113174 16.6817857,28.1459818 17.0718837,26.369824 C17.4619816,24.5936662 16.5602721,22.7860573 14.9049326,22.0258529 C14.6275827,21.9011437 14.4486223,21.6264596 14.446957,21.3229118 L14.446957,16.8843588 C14.4469554,16.849793 14.4654351,16.8178523 14.4954346,16.8005692 C14.525434,16.7832861 14.5623952,16.7832866 14.5923941,16.8005706 L18.4445929,19.0198235 C18.7072009,19.1730426 18.8561102,19.4650336 18.8256674,19.7670588 C18.6559691,21.5981464 19.8009401,23.2955655 21.5648896,23.8279549 C23.3288391,24.3603444 25.2246665,23.580689 26.1004565,21.9627118 C27.0598299,20.1450055 26.4470959,17.8964904 24.6973611,16.8138529 Z" id="Path" fill="#F68D2E"></path>
            </g>
        </g>
    </g>
</svg>