<svg width="189" height="41" viewBox="0 0 189 41" fill="none" xmlns="http://www.w3.org/2000/svg">
<path d="M47.5522 13.4597H41.7922C41.6218 13.4393 41.449 13.4574 41.2865 13.5127C41.124 13.5679 40.976 13.659 40.8534 13.779C40.7307 13.8991 40.6366 14.0452 40.5779 14.2065C40.5192 14.3678 40.4975 14.5402 40.5143 14.711V15.2841C40.4975 15.4549 40.5193 15.6273 40.578 15.7886C40.6367 15.9499 40.7308 16.0959 40.8534 16.216C40.9761 16.336 41.1241 16.4271 41.2865 16.4823C41.449 16.5376 41.6218 16.5558 41.7922 16.5354H44.9459V19.3504C43.9577 19.8398 42.8684 20.0897 41.7658 20.0802C40.9904 20.1164 40.2159 19.9913 39.4914 19.7127C38.7669 19.434 38.1082 19.0081 37.5568 18.4616C37.0055 17.9152 36.5736 17.2603 36.2886 16.5383C36.0035 15.8163 35.8714 15.043 35.9007 14.2674C35.8802 13.5094 36.0123 12.7551 36.2889 12.0492C36.5656 11.3433 36.9813 10.7001 37.5113 10.1579C38.0413 9.61577 38.6749 9.18561 39.3743 8.89299C40.0738 8.60038 40.8249 8.45128 41.5831 8.45455C42.7768 8.39895 43.964 8.65976 45.0245 9.21058C45.7539 9.54962 46.3013 9.49754 46.7705 8.84567L47.4218 8.01172C47.5402 7.88624 47.6275 7.73477 47.6768 7.56945C47.726 7.40413 47.7359 7.22956 47.7055 7.05975C47.6751 6.88994 47.6054 6.72961 47.5018 6.59162C47.3983 6.45364 47.2639 6.34183 47.1094 6.26518C45.4325 5.29504 43.5198 4.8079 41.5832 4.85772C35.8749 4.85772 31.7563 9.13265 31.7563 14.2936C31.7563 19.4029 35.7968 23.6774 41.6877 23.6774C43.9725 23.6811 46.1963 22.9398 48.022 21.566C48.2831 21.3939 48.495 21.1568 48.6366 20.878C48.7783 20.5993 48.845 20.2884 48.8301 19.976V14.711C48.8469 14.5401 48.8252 14.3677 48.7666 14.2064C48.7079 14.0451 48.6138 13.899 48.4911 13.7789C48.3685 13.6589 48.2205 13.5678 48.058 13.5126C47.8955 13.4573 47.7226 13.4392 47.5522 13.4597ZM58.163 9.70583C53.9147 9.70583 50.734 12.834 50.734 16.692C50.734 20.5755 53.9147 23.6774 58.163 23.6774C62.4119 23.6774 65.592 20.5496 65.592 16.692C65.592 12.834 62.4119 9.70583 58.163 9.70583ZM58.163 20.4192C57.4227 20.443 56.6923 20.245 56.0653 19.8507C55.4384 19.4564 54.9436 18.8838 54.6444 18.2063C54.3452 17.5288 54.2552 16.7773 54.3861 16.0484C54.5169 15.3194 54.8626 14.6461 55.3788 14.115C55.8949 13.5839 56.558 13.2191 57.2829 13.0674C58.0079 12.9158 58.7616 12.9842 59.4474 13.2639C60.1331 13.5437 60.7197 14.0219 61.1318 14.6373C61.5438 15.2527 61.7626 15.9772 61.76 16.7179C61.7742 17.199 61.6916 17.6781 61.5171 18.1267C61.3427 18.5753 61.08 18.9843 60.7445 19.3295C60.4091 19.6747 60.0077 19.949 59.5643 20.1362C59.1208 20.3234 58.6443 20.4196 58.163 20.4192ZM77.8436 7.38611V6.39557C77.8605 6.22484 77.8389 6.05251 77.7803 5.89126C77.7217 5.73001 77.6277 5.58396 77.5052 5.46388C77.3827 5.3438 77.2348 5.25275 77.0724 5.19744C76.91 5.14213 76.7372 5.12398 76.5669 5.14432H64.1067C63.9377 5.12454 63.7663 5.1433 63.6055 5.19919C63.4447 5.25509 63.2987 5.34666 63.1783 5.46705C63.058 5.58744 62.9664 5.73351 62.9106 5.89432C62.8547 6.05513 62.836 6.22649 62.8558 6.39557V7.38611C62.836 7.55519 62.8547 7.72656 62.9106 7.88737C62.9664 8.04818 63.0579 8.19425 63.1783 8.31464C63.2987 8.43503 63.4447 8.52661 63.6055 8.58251C63.7663 8.63841 63.9377 8.65717 64.1067 8.6374H68.2775V22.1395C68.2577 22.3087 68.2765 22.4801 68.3324 22.6409C68.3883 22.8018 68.4798 22.9479 68.6003 23.0682C68.7207 23.1886 68.8668 23.2802 69.0276 23.3361C69.1885 23.3919 69.3599 23.4107 69.529 23.3908H71.0929C71.262 23.4106 71.4334 23.3919 71.5942 23.336C71.7551 23.2801 71.9012 23.1885 72.0216 23.0681C72.142 22.9478 72.2335 22.8017 72.2894 22.6409C72.3454 22.48 72.3641 22.3087 72.3444 22.1395V8.6374H76.5669C76.7372 8.65773 76.91 8.63957 77.0724 8.58426C77.2348 8.52895 77.3827 8.43789 77.5052 8.31781C77.6277 8.19773 77.7217 8.05168 77.7803 7.89043C77.8389 7.72918 77.8605 7.55684 77.8436 7.38611ZM82.5365 9.70583C78.2882 9.70583 75.1081 12.834 75.1081 16.692C75.1081 20.5755 78.2882 23.6774 82.5365 23.6774C86.7854 23.6774 89.9655 20.5496 89.9655 16.692C89.9655 12.834 86.7854 9.70583 82.5365 9.70583ZM82.5365 20.4192C81.7962 20.443 81.0658 20.245 80.4388 19.8507C79.8119 19.4564 79.3171 18.8838 79.0179 18.2063C78.7187 17.5288 78.6287 16.7773 78.7596 16.0483C78.8904 15.3194 79.2361 14.6461 79.7523 14.115C80.2684 13.5839 80.9315 13.2191 81.6565 13.0674C82.3814 12.9158 83.1351 12.9842 83.8209 13.2639C84.5067 13.5437 85.0932 14.0219 85.5053 14.6373C85.9173 15.2527 86.1361 15.9772 86.1335 16.7179C86.1476 17.199 86.065 17.678 85.8906 18.1266C85.7161 18.5752 85.4534 18.9842 85.1179 19.3294C84.7825 19.6746 84.3811 19.9489 83.9377 20.1361C83.4943 20.3233 83.0178 20.4196 82.5365 20.4192ZM107.222 20.8362C107.186 20.7468 107.129 20.6669 107.057 20.603C106.984 20.539 106.898 20.4926 106.805 20.4673C106.711 20.4421 106.614 20.4388 106.519 20.4575C106.424 20.4763 106.335 20.5166 106.258 20.5755C104.885 21.3887 103.319 21.8206 101.723 21.8267C96.796 21.8267 93.9548 18.3599 93.9548 14.2674C93.9548 10.1753 96.796 6.70843 101.723 6.70843C103.319 6.71455 104.885 7.14651 106.258 7.95972C106.335 8.01852 106.424 8.05884 106.519 8.07757C106.614 8.09629 106.711 8.09291 106.805 8.06769C106.898 8.04247 106.984 7.99608 107.057 7.93213C107.129 7.86819 107.186 7.7884 107.222 7.69897L107.405 7.3599C107.453 7.28216 107.485 7.19526 107.498 7.1047C107.511 7.01413 107.505 6.92186 107.48 6.83372C107.456 6.74557 107.413 6.66346 107.355 6.59257C107.298 6.52169 107.226 6.46356 107.144 6.42185C105.54 5.35815 103.647 4.81224 101.723 4.85777C95.5192 4.85777 91.8694 9.18479 91.8694 14.2674C91.8694 19.3505 95.5192 23.6775 101.723 23.6775C103.7 23.7305 105.644 23.1557 107.275 22.0355C107.561 21.853 107.588 21.566 107.405 21.1753L107.222 20.8362ZM115.669 10.097C114.329 10.1098 113.024 10.5187 111.916 11.2721C110.808 12.0254 109.948 13.0897 109.443 14.3308C108.939 15.572 108.813 16.9346 109.081 18.2471C109.35 19.5597 110 20.7636 110.951 21.7072C111.902 22.6509 113.111 23.2922 114.426 23.5504C115.74 23.8086 117.102 23.6722 118.339 23.1584C119.576 22.6445 120.634 21.7762 121.379 20.6626C122.124 19.549 122.522 18.24 122.525 16.9003C122.515 15.09 121.787 13.3576 120.502 12.0824C119.217 10.8073 117.479 10.0933 115.669 10.097ZM115.669 21.905C114.373 21.8799 113.14 21.3415 112.241 20.4081C111.342 19.4746 110.85 18.2225 110.873 16.9265C110.903 15.9782 111.212 15.0598 111.762 14.2863C112.311 13.5127 113.077 12.9184 113.962 12.5775C114.848 12.2367 115.814 12.1645 116.74 12.37C117.666 12.5755 118.512 13.0495 119.17 13.7328C119.828 14.4161 120.27 15.2784 120.441 16.2117C120.612 17.145 120.504 18.108 120.13 18.9802C119.757 19.8523 119.134 20.595 118.341 21.1152C117.547 21.6355 116.618 21.9102 115.669 21.905ZM131.18 10.097C130.197 10.0551 129.227 10.3285 128.411 10.8772C127.595 11.4259 126.976 12.2212 126.645 13.1468V11.0875C126.654 10.9928 126.642 10.8972 126.61 10.8077C126.578 10.7181 126.526 10.6368 126.459 10.5695C126.391 10.5022 126.31 10.4507 126.22 10.4186C126.131 10.3866 126.035 10.3747 125.94 10.3839H125.341C125.249 10.3797 125.156 10.3952 125.07 10.4294C124.985 10.4636 124.907 10.5157 124.843 10.5823C124.779 10.6489 124.729 10.7284 124.698 10.8155C124.667 10.9026 124.655 10.9954 124.663 11.0875V22.6869C124.653 22.7795 124.664 22.8732 124.694 22.9613C124.724 23.0495 124.773 23.1299 124.838 23.197C124.902 23.2642 124.981 23.3163 125.068 23.3498C125.155 23.3833 125.248 23.3973 125.341 23.3909H125.94C126.035 23.4001 126.131 23.3882 126.22 23.3561C126.31 23.324 126.391 23.2725 126.459 23.2052C126.526 23.1379 126.578 23.0565 126.61 22.9669C126.642 22.8773 126.654 22.7817 126.645 22.6869V17.0828C126.67 12.8861 129.616 11.8698 131.049 11.8698C132.692 11.8698 134.334 12.8603 134.334 16.0139V22.6869C134.325 22.7816 134.336 22.8772 134.369 22.9669C134.401 23.0565 134.452 23.1378 134.52 23.2051C134.587 23.2724 134.668 23.324 134.758 23.3561C134.848 23.3882 134.943 23.4001 135.038 23.3909H135.637C135.732 23.4001 135.827 23.3882 135.917 23.3561C136.007 23.324 136.088 23.2724 136.155 23.2051C136.223 23.1378 136.274 23.0565 136.306 22.9669C136.338 22.8772 136.35 22.7816 136.341 22.6869V16.0139C136.341 11.7131 133.943 10.097 131.18 10.097ZM145.83 10.097C144.847 10.0551 143.877 10.3285 143.061 10.8772C142.245 11.4259 141.626 12.2212 141.295 13.1468V11.0875C141.304 10.9928 141.292 10.8972 141.26 10.8077C141.228 10.7181 141.176 10.6368 141.109 10.5695C141.041 10.5022 140.96 10.4507 140.87 10.4186C140.781 10.3865 140.685 10.3747 140.591 10.3839H139.991C139.899 10.3797 139.806 10.3952 139.72 10.4294C139.635 10.4636 139.557 10.5157 139.493 10.5823C139.429 10.6489 139.379 10.7284 139.348 10.8155C139.318 10.9026 139.305 10.9954 139.313 11.0875V22.6869C139.303 22.7795 139.314 22.8732 139.344 22.9613C139.374 23.0495 139.423 23.1299 139.488 23.197C139.552 23.2642 139.631 23.3163 139.718 23.3498C139.805 23.3833 139.898 23.3973 139.991 23.3909H140.591C140.685 23.4001 140.781 23.3882 140.87 23.3561C140.96 23.324 141.041 23.2725 141.109 23.2052C141.176 23.1379 141.228 23.0565 141.26 22.9669C141.292 22.8773 141.304 22.7817 141.295 22.6869V17.0828C141.32 12.8861 144.266 11.8698 145.699 11.8698C147.342 11.8698 148.984 12.8603 148.984 16.0139V22.6869C148.975 22.7816 148.987 22.8772 149.019 22.9668C149.051 23.0565 149.102 23.1378 149.17 23.2051C149.237 23.2724 149.318 23.324 149.408 23.3561C149.498 23.3882 149.593 23.4001 149.688 23.3909H150.287C150.382 23.4001 150.477 23.3882 150.567 23.3561C150.657 23.324 150.738 23.2724 150.805 23.2051C150.873 23.1378 150.924 23.0565 150.956 22.9669C150.988 22.8772 151 22.7816 150.991 22.6869V16.0139C150.991 11.7131 148.593 10.097 145.83 10.097ZM159.386 10.097C158.475 10.0763 157.569 10.2388 156.722 10.5747C155.875 10.9106 155.105 11.4131 154.455 12.0524C153.806 12.6917 153.292 13.4549 152.944 14.2965C152.595 15.1382 152.419 16.0414 152.426 16.9524C152.426 20.6279 155.241 23.6774 159.724 23.6774C161.517 23.7232 163.265 23.1218 164.65 21.9833C164.743 21.9305 164.822 21.8572 164.883 21.7689C164.943 21.6807 164.982 21.58 164.997 21.4744C165.012 21.3688 165.003 21.2611 164.97 21.1596C164.937 21.0581 164.881 20.9654 164.807 20.8887L164.599 20.68C164.48 20.544 164.313 20.4598 164.132 20.4451C163.952 20.4305 163.774 20.4867 163.634 20.6017C162.514 21.462 161.137 21.921 159.724 21.905C156.518 21.905 154.25 19.7677 154.433 16.8741H165.198C165.668 16.8741 165.954 16.6133 165.876 16.1705C165.537 12.0001 162.566 10.097 159.386 10.097ZM154.615 15.3366C154.923 14.3073 155.564 13.4089 156.436 12.7817C157.308 12.1546 158.364 11.8339 159.438 11.8697C161.236 11.8697 163.269 12.6516 163.869 15.3366H154.615ZM175.313 11.8697C176.353 11.8779 177.375 12.1467 178.284 12.6516C178.702 12.8603 178.989 12.834 179.249 12.4691L179.432 12.2346C179.498 12.1615 179.547 12.0736 179.572 11.9782C179.598 11.8828 179.601 11.7826 179.581 11.6859C179.56 11.5892 179.517 11.4987 179.455 11.4219C179.393 11.3451 179.313 11.2842 179.223 11.2441C178.02 10.5129 176.643 10.1169 175.235 10.097C170.517 10.097 167.91 13.1989 167.91 17.0045C167.937 20.7058 170.621 23.6774 175.235 23.6774C176.51 23.6695 177.764 23.3473 178.885 22.7393C179.536 22.4003 179.666 21.9309 179.406 21.566L179.249 21.3315C179.204 21.2494 179.142 21.1781 179.067 21.1221C178.992 21.0662 178.906 21.027 178.814 21.0073C178.723 20.9875 178.628 20.9877 178.537 21.0077C178.445 21.0276 178.359 21.067 178.284 21.1232C177.375 21.6278 176.353 21.8966 175.313 21.905C172.107 21.905 169.943 19.7936 169.918 16.9003C169.943 14.007 172.107 11.8697 175.313 11.8697ZM188.579 10.3819H184.798V7.06958C184.805 6.98673 184.794 6.90334 184.764 6.82553C184.735 6.74772 184.688 6.67747 184.628 6.61994C184.568 6.5624 184.496 6.51905 184.417 6.49307C184.338 6.46708 184.254 6.45912 184.172 6.46976H183.833C183.752 6.46217 183.67 6.47121 183.593 6.49634C183.516 6.52147 183.444 6.56215 183.383 6.61588C183.322 6.66961 183.272 6.73527 183.238 6.80881C183.203 6.88236 183.183 6.96224 183.181 7.04356L182.79 10.3819H181.016C180.959 10.3746 180.902 10.3803 180.848 10.3987C180.794 10.4171 180.745 10.4476 180.705 10.4879C180.665 10.5282 180.634 10.5773 180.616 10.6312C180.597 10.6852 180.592 10.7427 180.599 10.7992V11.5555C180.599 11.8425 180.729 11.9728 181.016 11.9728H182.79V19.6444C182.79 22.5833 184.449 23.3908 186.133 23.3908L187.929 23.3908C188.023 23.4 188.119 23.3882 188.209 23.3561C188.298 23.324 188.379 23.2725 188.447 23.2052C188.514 23.138 188.566 23.0566 188.598 22.9671C188.63 22.8775 188.642 22.782 188.633 22.6873V22.3217C188.639 22.2288 188.625 22.1355 188.592 22.0485C188.558 21.9616 188.506 21.883 188.439 21.8184C188.372 21.7537 188.291 21.7046 188.203 21.6744C188.115 21.6442 188.021 21.6337 187.929 21.6436H186.133C185.428 21.6436 184.798 21.2358 184.798 19.8826V11.9728H188.579C188.636 11.9802 188.694 11.9746 188.748 11.9562C188.802 11.9379 188.851 11.9074 188.891 11.8671C188.931 11.8267 188.962 11.7776 188.98 11.7236C188.999 11.6696 189.004 11.6121 188.997 11.5555V10.7992C189.002 10.7431 188.995 10.6865 188.976 10.6335C188.957 10.5805 188.926 10.5324 188.886 10.4926C188.846 10.4528 188.798 10.4222 188.745 10.4031C188.692 10.3839 188.635 10.3767 188.579 10.3819Z" fill="#53565A"/>
<path d="M24.637 16.8099C23.9922 16.4192 23.2473 16.2254 22.4938 16.2523C21.7403 16.2792 21.0111 16.5257 20.3958 16.9614C20.2753 17.048 20.1324 17.0982 19.9842 17.1059C19.8361 17.1136 19.6888 17.0786 19.5599 17.005L15.7167 14.7862C15.702 14.7777 15.6897 14.7655 15.6813 14.7508C15.6728 14.7361 15.6683 14.7194 15.6683 14.7024C15.6683 14.6854 15.6728 14.6687 15.6813 14.654C15.6897 14.6393 15.702 14.6271 15.7167 14.6186L19.5382 12.4123C19.6678 12.3383 19.816 12.3033 19.965 12.3116C20.1139 12.3198 20.2573 12.3709 20.378 12.4587C20.9926 12.8993 21.723 13.1501 22.4786 13.1801C23.2343 13.21 23.9822 13.0179 24.6298 12.6274C25.4735 12.1067 26.088 11.2852 26.3492 10.3288C26.6103 9.37245 26.4987 8.3526 26.0368 7.47539C25.6141 6.69236 24.9344 6.07897 24.1123 5.7386C23.2901 5.39823 22.3757 5.35168 21.5233 5.60679C20.6708 5.86191 19.9323 6.4031 19.4323 7.13916C18.9323 7.87521 18.7013 8.76114 18.7782 9.64764C18.7921 9.79482 18.7637 9.9429 18.6962 10.0745C18.6288 10.206 18.5252 10.3155 18.3975 10.3901L14.5558 12.6081C14.5411 12.6166 14.5245 12.6211 14.5075 12.6211C14.4905 12.6211 14.4738 12.6166 14.4591 12.6081C14.4444 12.5996 14.4322 12.5874 14.4237 12.5727C14.4152 12.558 14.4108 12.5413 14.4108 12.5244L14.4108 8.08655C14.4115 7.93815 14.4548 7.79307 14.5356 7.66859C14.6164 7.54411 14.7313 7.44547 14.8665 7.38441C15.6682 7.01574 16.3198 6.38414 16.7132 5.59434C17.1066 4.80454 17.2183 3.90398 17.0297 3.04201C16.841 2.18003 16.3634 1.40843 15.6761 0.855144C14.9887 0.301859 14.1329 0.000131615 13.2505 4.30488e-08C12.3682 -0.000131529 11.5123 0.301339 10.8247 0.85442C10.1372 1.4075 9.6594 2.17896 9.47051 3.04088C9.28162 3.9028 9.39301 4.80339 9.78621 5.59331C10.1794 6.38323 10.8308 7.01502 11.6323 7.38392C11.7678 7.44498 11.8829 7.54368 11.9639 7.66827C12.0449 7.79287 12.0884 7.93811 12.0892 8.08672V12.5244C12.0892 12.5414 12.0848 12.558 12.0763 12.5727C12.0678 12.5874 12.0556 12.5997 12.0409 12.6081C12.0262 12.6166 12.0095 12.6211 11.9925 12.6211C11.9755 12.6211 11.9589 12.6166 11.9441 12.6082L8.1023 10.39C7.97481 10.3157 7.87125 10.2064 7.8038 10.0751C7.73636 9.94381 7.70786 9.79598 7.72165 9.64902C7.79777 8.77024 7.57125 7.89183 7.07965 7.15945C6.58805 6.42706 5.86089 5.8847 5.01875 5.62229C4.17661 5.35988 3.27008 5.39319 2.44946 5.71668C1.62885 6.04018 0.943449 6.63443 0.506911 7.40091C0.0703723 8.16739 -0.0910812 9.06006 0.049321 9.93089C0.189723 10.8017 0.623547 11.5984 1.27886 12.1888C1.93417 12.7793 2.77161 13.128 3.65231 13.1772C4.53301 13.2264 5.40408 12.9731 6.12107 12.4593C6.2418 12.3714 6.38537 12.3201 6.53452 12.3118C6.68367 12.3034 6.83206 12.3383 6.96185 12.4123L10.7833 14.6186C10.798 14.6271 10.8102 14.6393 10.8187 14.654C10.8272 14.6687 10.8317 14.6854 10.8317 14.7024C10.8317 14.7194 10.8272 14.7361 10.8187 14.7508C10.8102 14.7655 10.798 14.7777 10.7833 14.7862L6.94007 17.005C6.81121 17.0786 6.66392 17.1136 6.51573 17.1059C6.36754 17.0982 6.22469 17.048 6.10419 16.9614C5.4889 16.5257 4.75969 16.2792 4.0062 16.2523C3.25272 16.2254 2.50779 16.4192 1.86298 16.8099C1.02162 17.3317 0.409343 18.153 0.149587 19.1083C-0.11017 20.0636 0.00190935 21.0818 0.46323 21.9578C0.88704 22.7424 1.56887 23.3566 2.39339 23.6964C3.21791 24.0362 4.1345 24.0808 4.9881 23.8226C5.84171 23.5644 6.57993 23.0193 7.07789 22.2795C7.57585 21.5397 7.80298 20.6506 7.72086 19.7626C7.70599 19.6147 7.73391 19.4657 7.80131 19.3332C7.86871 19.2008 7.97275 19.0905 8.10104 19.0155L11.9441 16.7967C11.9589 16.7882 11.9755 16.7837 11.9925 16.7837C12.0095 16.7837 12.0262 16.7882 12.0409 16.7967C12.0556 16.8052 12.0678 16.8174 12.0763 16.8321C12.0848 16.8468 12.0892 16.8635 12.0892 16.8805V21.3183C12.0885 21.4667 12.0452 21.6117 11.9644 21.7362C11.8836 21.8607 11.7688 21.9593 11.6335 22.0204C10.8318 22.389 10.1803 23.0206 9.7868 23.8104C9.39335 24.6002 9.28168 25.5008 9.4703 26.3628C9.65893 27.2248 10.1365 27.9964 10.8239 28.5497C11.5112 29.103 12.367 29.4047 13.2494 29.4049C14.1318 29.405 14.9877 29.1035 15.6753 28.5504C16.3628 27.9974 16.8406 27.2259 17.0295 26.364C17.2184 25.5021 17.107 24.6015 16.7138 23.8115C16.3206 23.0216 15.6692 22.3898 14.8677 22.0209C14.7322 21.9598 14.6171 21.8611 14.5361 21.7365C14.4551 21.6119 14.4116 21.4667 14.4108 21.3181V16.8804C14.4108 16.8635 14.4152 16.8468 14.4237 16.8321C14.4322 16.8174 14.4444 16.8052 14.4591 16.7967C14.4738 16.7882 14.4905 16.7837 14.5075 16.7837C14.5245 16.7837 14.5412 16.7882 14.5559 16.7967L18.399 19.0155C18.5273 19.0905 18.6313 19.2008 18.6987 19.3332C18.7661 19.4657 18.794 19.6147 18.7792 19.7626C18.697 20.6506 18.9242 21.5397 19.4221 22.2795C19.9201 23.0193 20.6583 23.5644 21.5119 23.8226C22.3655 24.0808 23.2821 24.0362 24.1066 23.6964C24.9311 23.3566 25.613 22.7424 26.0368 21.9578C26.4981 21.0818 26.6102 20.0636 26.3504 19.1083C26.0907 18.153 25.4784 17.3317 24.637 16.8099Z" fill="#C4D600"/>
<path d="M99.3221 30.9325C99.5043 31.187 99.6389 31.4724 99.7196 31.7748C99.8072 32.1397 99.8373 32.516 99.8087 32.8902C99.7823 33.1971 99.7061 33.4976 99.5831 33.78C99.567 33.8117 99.5534 33.8414 99.5413 33.8691C99.5293 33.8968 99.5156 33.9265 99.5004 33.9578C99.4683 34.0132 99.4386 34.0666 99.4113 34.118C99.3825 34.1707 99.3486 34.2205 99.3101 34.2666C99.1568 34.4837 98.9609 34.6673 98.7343 34.8062C98.4936 34.952 98.2368 35.0695 97.9691 35.1563C97.8814 35.1884 97.7898 35.2083 97.6968 35.2157C97.6007 35.2238 97.5054 35.2396 97.4118 35.2631C97.3648 35.2711 97.3173 35.2751 97.2696 35.2751C97.2218 35.2752 97.174 35.2791 97.1267 35.2868H95.3175C95.2232 35.2809 95.1296 35.306 95.0509 35.3583C95.0085 35.393 94.9754 35.4378 94.9546 35.4885C94.9339 35.5393 94.9261 35.5944 94.9321 35.649V37.6244C94.9321 37.7191 94.9337 37.8223 94.9377 37.9327C94.9462 38.0231 94.9278 38.1139 94.8847 38.1937C94.8325 38.2626 94.7562 38.3092 94.6711 38.3242C94.6131 38.3403 94.5525 38.3443 94.4928 38.3363C94.43 38.3285 94.3667 38.3244 94.3033 38.3242H93.6151C93.5276 38.3242 93.4465 38.3226 93.3718 38.3186C93.305 38.3177 93.2403 38.2947 93.1879 38.2531C93.1625 38.2296 93.142 38.2012 93.1276 38.1696C93.1133 38.138 93.1054 38.1039 93.1044 38.0693C93.0964 37.9861 93.0932 37.9014 93.0932 37.8143V30.7189C93.0932 30.608 93.0908 30.4776 93.0868 30.3274C93.0748 30.2177 93.0935 30.1068 93.1406 30.007C93.1857 29.9497 93.2478 29.9081 93.318 29.8881C93.3348 29.8804 93.3537 29.8783 93.3718 29.8821C93.3896 29.8864 93.4083 29.8844 93.4248 29.8765H96.8537C96.9252 29.8765 96.9966 29.8745 97.0673 29.8705C97.1353 29.8662 97.2035 29.8722 97.2696 29.8881H97.3291C97.3705 29.9044 97.4146 29.9125 97.4591 29.9118C97.5039 29.9114 97.5483 29.9195 97.59 29.9355C97.6251 29.9431 97.6609 29.9471 97.6968 29.9476C97.7336 29.9488 97.7698 29.9568 97.8036 29.9712C97.9297 30.011 98.0566 30.0483 98.1827 30.0841C98.3071 30.1186 98.4269 30.1684 98.5392 30.2322C98.5794 30.2645 98.6231 30.2924 98.6693 30.3153C98.7203 30.3416 98.7682 30.3733 98.8122 30.4101C98.8485 30.432 98.8822 30.458 98.9126 30.4876C98.9443 30.5193 98.9781 30.5489 99.0137 30.5763L99.0844 30.6474C99.1729 30.7343 99.2526 30.8298 99.3221 30.9325V30.9325ZM98.0172 32.8782C98.034 32.7704 98.0399 32.6611 98.0349 32.5521C98.0337 32.4421 98.0197 32.3325 97.9931 32.2257C97.9574 32.0784 97.8971 31.938 97.8148 31.8106C97.7292 31.6942 97.62 31.597 97.4944 31.5255C97.3583 31.4479 97.2101 31.3937 97.056 31.3653C96.8701 31.3286 96.6816 31.3069 96.4923 31.3003C96.2907 31.2922 96.083 31.2902 95.8691 31.2942C95.6555 31.2983 95.454 31.3003 95.2645 31.3003C95.2429 31.3075 95.2209 31.3134 95.1986 31.3179C95.1772 31.3221 95.1554 31.3242 95.1335 31.3239C95.099 31.3351 95.0674 31.3536 95.0407 31.3782C95.0141 31.4028 94.9932 31.4329 94.9794 31.4665C94.9441 31.5467 94.9279 31.6339 94.932 31.7214V33.4535C94.9265 33.5463 94.947 33.6388 94.9914 33.7205C95.0259 33.7706 95.0758 33.8081 95.1335 33.8273C95.2022 33.8522 95.2742 33.8663 95.3471 33.8691C95.4258 33.8731 95.5109 33.8731 95.6025 33.8691C95.6932 33.8651 95.7783 33.8631 95.857 33.8631C96.2417 33.865 96.6262 33.8451 97.0086 33.8037C97.1627 33.7936 97.313 33.7515 97.4499 33.68C97.5868 33.6086 97.7073 33.5093 97.8036 33.3885C97.8516 33.3162 97.8912 33.2386 97.9216 33.1572C97.9538 33.0741 97.9851 32.981 98.0172 32.8782Z" fill="#A7A8AA"/>
<path d="M106.342 35.026C106.374 35.1586 106.374 35.297 106.342 35.4295V35.548C106.326 35.61 106.32 35.6741 106.324 35.7379C106.328 35.8017 106.322 35.8658 106.306 35.9278C106.291 35.9784 106.279 36.0299 106.271 36.082C106.263 36.1294 106.255 36.1812 106.247 36.2362C106.215 36.3233 106.187 36.4124 106.164 36.5032C106.141 36.5914 106.109 36.677 106.069 36.7585C105.922 37.1111 105.699 37.4271 105.416 37.684C105.127 37.9339 104.798 38.1342 104.443 38.277C104.349 38.3162 104.252 38.3461 104.153 38.3662C104.054 38.3858 103.953 38.4075 103.85 38.4312C103.808 38.4477 103.764 38.4558 103.72 38.4553C103.676 38.4548 103.632 38.4587 103.589 38.467C103.563 38.4672 103.537 38.4692 103.512 38.473C103.486 38.4769 103.46 38.4789 103.435 38.479C103.372 38.489 103.309 38.4949 103.245 38.4967C103.177 38.5026 103.109 38.4966 103.044 38.479H102.925C102.884 38.4709 102.842 38.4689 102.8 38.473C102.758 38.4772 102.715 38.4711 102.676 38.4553C102.647 38.4477 102.617 38.4437 102.587 38.4433C102.553 38.4426 102.519 38.4386 102.485 38.4313C102.407 38.4076 102.327 38.3879 102.249 38.3722C102.171 38.3569 102.095 38.3329 102.023 38.3008C101.928 38.2694 101.839 38.2379 101.756 38.206C101.668 38.1723 101.583 38.1326 101.501 38.0872C101.235 37.9307 100.995 37.7347 100.789 37.5058C100.581 37.2691 100.413 37.0007 100.291 36.7108C100.251 36.6402 100.221 36.5644 100.202 36.4855C100.182 36.4064 100.16 36.3233 100.136 36.2362C100.122 36.2023 100.114 36.1661 100.113 36.1294C100.111 36.0926 100.103 36.0563 100.088 36.0226C100.073 35.9586 100.065 35.8929 100.065 35.827C100.065 35.761 100.057 35.6952 100.041 35.6311C100.033 35.596 100.029 35.5602 100.029 35.5243V35.4175C100.012 35.3518 100.006 35.2837 100.011 35.216C100.012 35.1478 100.022 35.08 100.041 35.0144V34.9313C100.049 34.8902 100.051 34.8481 100.048 34.8064C100.043 34.7641 100.049 34.7214 100.065 34.682C100.073 34.6448 100.077 34.607 100.077 34.5691C100.078 34.5305 100.085 34.4923 100.1 34.4567C100.132 34.3539 100.16 34.2531 100.184 34.154C100.207 34.0546 100.239 33.9573 100.279 33.8633C100.404 33.5666 100.576 33.2921 100.789 33.0506C101.002 32.8199 101.246 32.6183 101.512 32.4512C101.593 32.4109 101.677 32.3753 101.762 32.3444C101.849 32.3131 101.935 32.2773 102.023 32.2376C102.126 32.198 102.234 32.1703 102.343 32.1549C102.459 32.1379 102.574 32.114 102.687 32.0834C102.746 32.076 102.806 32.0721 102.865 32.0718C102.921 32.0717 102.976 32.0677 103.031 32.0597C103.434 32.045 103.836 32.0931 104.224 32.2022C104.543 32.297 104.845 32.4412 105.119 32.6295C105.207 32.6929 105.295 32.7619 105.387 32.837C105.474 32.9081 105.551 32.9899 105.618 33.0803C105.681 33.1594 105.738 33.2385 105.79 33.3176C105.841 33.3967 105.895 33.4798 105.95 33.5666C106.005 33.6537 106.049 33.7475 106.08 33.8456C106.112 33.9444 106.148 34.0492 106.187 34.16C106.212 34.2257 106.232 34.2931 106.247 34.3615C106.263 34.4326 106.278 34.5041 106.294 34.5751C106.302 34.6062 106.306 34.6382 106.306 34.6703C106.306 34.7023 106.31 34.7341 106.318 34.7651C106.334 34.8067 106.338 34.8518 106.329 34.8956C106.321 34.9393 106.326 34.9845 106.342 35.026V35.026ZM104.681 35.4532C104.696 35.339 104.696 35.2233 104.681 35.1091V35.0144C104.664 34.9727 104.656 34.9283 104.657 34.8835C104.657 34.8397 104.653 34.796 104.645 34.753C104.646 34.7288 104.642 34.7046 104.633 34.6819C104.617 34.6189 104.604 34.5535 104.592 34.486C104.58 34.4193 104.562 34.3538 104.538 34.2905C104.461 34.1008 104.357 33.9231 104.23 33.7625C104.102 33.6094 103.939 33.4893 103.755 33.4124C103.708 33.3967 103.66 33.3827 103.613 33.371C103.565 33.359 103.514 33.3453 103.459 33.3293C103.393 33.3133 103.325 33.3074 103.257 33.3116C103.186 33.3156 103.114 33.3176 103.043 33.3176C103.019 33.3335 102.989 33.3397 102.96 33.3353C102.932 33.331 102.904 33.333 102.877 33.3413C102.822 33.357 102.768 33.371 102.717 33.3827C102.669 33.3932 102.623 33.4113 102.58 33.4361C102.39 33.5169 102.225 33.6457 102.1 33.8099C101.973 33.9806 101.875 34.1711 101.809 34.3736C101.785 34.455 101.767 34.5382 101.755 34.6225C101.744 34.7096 101.73 34.7968 101.714 34.8835C101.707 34.9226 101.703 34.9624 101.702 35.0023V35.1208C101.684 35.2026 101.678 35.2866 101.685 35.3701C101.685 35.4541 101.695 35.5378 101.715 35.6195V35.7263C101.729 35.787 101.741 35.8483 101.75 35.9102C101.758 35.9721 101.77 36.0335 101.785 36.0941C101.848 36.2949 101.934 36.4879 102.041 36.6694C102.151 36.8344 102.3 36.9706 102.473 37.0669C102.53 37.107 102.592 37.1389 102.657 37.1617C102.725 37.1857 102.795 37.2055 102.865 37.2211C102.892 37.2288 102.92 37.2309 102.948 37.2271C102.976 37.2234 103.004 37.2254 103.031 37.2331C103.065 37.2413 103.098 37.2472 103.132 37.2508C103.166 37.2549 103.2 37.2529 103.233 37.2448H103.328C103.39 37.2291 103.454 37.2173 103.518 37.2094C103.579 37.2018 103.639 37.1857 103.696 37.1616C103.884 37.0941 104.054 36.9845 104.194 36.8412C104.328 36.6945 104.437 36.526 104.515 36.343C104.546 36.2663 104.569 36.1868 104.585 36.1057C104.601 36.027 104.621 35.9439 104.645 35.8567C104.652 35.8276 104.656 35.7977 104.657 35.7676C104.657 35.7375 104.661 35.7076 104.669 35.6785V35.5661C104.669 35.5281 104.673 35.4903 104.681 35.4532V35.4532Z" fill="#A7A8AA"/>
<path d="M106.669 32.2024H107.547C107.634 32.2024 107.717 32.2044 107.796 32.2084C107.863 32.2087 107.929 32.2272 107.986 32.2618C108.034 32.2934 108.072 32.3361 108.099 32.3863C108.128 32.4426 108.15 32.5024 108.164 32.5641C108.18 32.6316 108.195 32.6987 108.211 32.7657C108.227 32.8332 108.243 32.8946 108.259 32.95C108.355 33.2301 108.436 33.5151 108.502 33.804C108.569 34.0967 108.646 34.3855 108.733 34.6705C108.748 34.7149 108.761 34.7604 108.769 34.8066C108.778 34.8529 108.79 34.8985 108.805 34.9431C108.844 35.0619 108.878 35.1824 108.906 35.3052C108.933 35.4274 108.967 35.5482 109.006 35.667C109.022 35.7224 109.042 35.7854 109.066 35.8569C109.074 35.8884 109.09 35.917 109.113 35.94C109.136 35.9629 109.165 35.9793 109.196 35.9874C109.236 35.9954 109.267 35.9737 109.291 35.9219C109.308 35.883 109.328 35.8453 109.351 35.8091C109.39 35.6973 109.42 35.5821 109.44 35.465C109.459 35.3479 109.488 35.2328 109.528 35.1209C109.552 35.0491 109.572 34.9759 109.587 34.9017C109.604 34.8266 109.62 34.7532 109.635 34.6821C109.69 34.4922 109.74 34.2984 109.783 34.1007C109.827 33.9032 109.876 33.7094 109.932 33.5193C109.955 33.4322 109.975 33.3495 109.991 33.27C110.007 33.1899 110.027 33.1107 110.051 33.0327C110.082 32.9142 110.114 32.772 110.146 32.6059C110.159 32.4728 110.222 32.3499 110.323 32.2618C110.381 32.2293 110.447 32.211 110.513 32.2084C110.585 32.2044 110.663 32.2024 110.75 32.2024H111.368C111.462 32.2024 111.549 32.2064 111.629 32.214C111.701 32.2196 111.771 32.2443 111.83 32.2855C111.87 32.3174 111.899 32.3609 111.913 32.4099C111.929 32.4613 111.945 32.5107 111.961 32.5581C111.992 32.6689 112.018 32.7777 112.038 32.8845C112.059 32.9955 112.088 33.1047 112.127 33.2109C112.222 33.5193 112.302 33.8356 112.37 34.1601C112.437 34.4845 112.514 34.8009 112.601 35.1092C112.633 35.2043 112.659 35.3014 112.678 35.3999C112.697 35.4947 112.723 35.5878 112.756 35.6786C112.778 35.7651 112.81 35.8488 112.851 35.9279C112.859 35.9364 112.869 35.9425 112.881 35.9456C112.894 35.9514 112.905 35.962 112.91 35.9753C112.938 35.9758 112.965 35.969 112.989 35.9554C113.013 35.9418 113.033 35.9221 113.047 35.8982C113.066 35.8548 113.088 35.8054 113.112 35.75C113.16 35.6203 113.2 35.4875 113.231 35.3525C113.262 35.214 113.298 35.0775 113.337 34.943C113.361 34.8643 113.381 34.7868 113.396 34.7117C113.412 34.6367 113.432 34.5596 113.456 34.4805C113.543 34.2361 113.614 33.9864 113.669 33.7329C113.723 33.4843 113.791 33.2388 113.871 32.9973C113.916 32.8676 113.952 32.7347 113.977 32.5998C113.991 32.4803 114.046 32.3692 114.132 32.2854C114.188 32.2453 114.254 32.2207 114.322 32.214C114.401 32.2059 114.48 32.202 114.559 32.2023H115.39C115.45 32.2009 115.51 32.2089 115.567 32.226C115.602 32.2362 115.633 32.2562 115.656 32.2836C115.679 32.311 115.694 32.3446 115.698 32.3802C115.705 32.4609 115.693 32.5421 115.663 32.6175C115.608 32.7998 115.554 32.9758 115.502 33.1455C115.451 33.3157 115.394 33.4917 115.331 33.6734C115.14 34.2512 114.956 34.8306 114.779 35.4116C114.601 35.9933 114.417 36.5729 114.227 37.1501C114.187 37.2765 114.15 37.401 114.114 37.5239C114.079 37.6463 114.041 37.7709 114.002 37.8977C113.969 37.9848 113.941 38.0619 113.912 38.129C113.898 38.1634 113.876 38.1944 113.848 38.2199C113.821 38.2454 113.788 38.2649 113.753 38.2771C113.656 38.3197 113.549 38.336 113.444 38.3245C113.317 38.3169 113.203 38.313 113.1 38.3128C112.973 38.3128 112.815 38.3149 112.625 38.3189C112.489 38.3311 112.351 38.3129 112.222 38.2655C112.176 38.2288 112.14 38.1821 112.115 38.129C112.09 38.0737 112.07 38.016 112.056 37.9567C112.017 37.8508 111.987 37.7417 111.967 37.6307C111.947 37.5239 111.921 37.4151 111.89 37.3043C111.866 37.2323 111.846 37.159 111.83 37.0847C111.813 37.0056 111.789 36.9282 111.759 36.8534C111.688 36.6241 111.626 36.3868 111.575 36.1415C111.524 35.8967 111.458 35.655 111.38 35.4176C111.33 35.2701 111.291 35.1195 111.261 34.9667C111.237 34.824 111.171 34.6917 111.071 34.5873C111.04 34.5828 111.008 34.5892 110.981 34.6054C110.954 34.6215 110.934 34.6465 110.923 34.676C110.903 34.7354 110.881 34.7969 110.857 34.8599C110.803 35.0145 110.761 35.1732 110.733 35.3345C110.704 35.4959 110.663 35.6547 110.608 35.8091C110.521 36.0942 110.448 36.385 110.389 36.6816C110.33 36.9758 110.257 37.2668 110.169 37.5537C110.154 37.6091 110.137 37.6721 110.121 37.7432C110.105 37.8147 110.09 37.8817 110.074 37.9451C110.059 38.0066 110.037 38.0662 110.009 38.123C109.985 38.1733 109.951 38.2178 109.908 38.2535C109.859 38.2883 109.801 38.3069 109.742 38.3069C109.671 38.3109 109.591 38.3129 109.505 38.3129H108.531C108.484 38.3053 108.441 38.2973 108.401 38.2892C108.364 38.2823 108.328 38.2703 108.295 38.2535C108.238 38.2124 108.196 38.1541 108.176 38.0873C108.152 38.0162 108.128 37.9451 108.104 37.8737C108.065 37.7552 108.026 37.6326 107.986 37.5059C107.946 37.3794 107.906 37.2529 107.867 37.1265C107.67 36.5411 107.482 35.9557 107.304 35.3703C107.125 34.7849 106.942 34.1995 106.752 33.6141C106.697 33.4563 106.645 33.3017 106.598 33.1516C106.55 33.0014 106.503 32.8508 106.456 32.7007C106.44 32.6533 106.421 32.5878 106.402 32.5047C106.391 32.4727 106.387 32.4388 106.39 32.4051C106.393 32.3714 106.403 32.3388 106.42 32.3092C106.462 32.2653 106.515 32.2326 106.574 32.214C106.606 32.2165 106.638 32.2125 106.669 32.2024V32.2024Z" fill="#A7A8AA"/>
<path d="M121.904 35.2162C121.92 35.2865 121.92 35.3595 121.904 35.4298C121.901 35.4598 121.892 35.4889 121.878 35.5154C121.864 35.5419 121.845 35.5652 121.821 35.584C121.77 35.6199 121.711 35.6425 121.649 35.6494C121.566 35.6618 121.483 35.6697 121.399 35.6731C121.309 35.6771 121.218 35.6771 121.126 35.6731C121.036 35.6691 120.955 35.6671 120.884 35.6671H117.828C117.782 35.6663 117.736 35.6743 117.692 35.6908C117.653 35.7084 117.618 35.7339 117.59 35.7655C117.561 35.7971 117.539 35.8343 117.526 35.8747C117.51 35.9142 117.506 35.9574 117.514 35.9991C117.529 36.0433 117.539 36.0892 117.543 36.1357C117.548 36.1822 117.558 36.228 117.573 36.2722C117.625 36.4395 117.703 36.5976 117.804 36.7407C117.906 36.8732 118.033 36.9841 118.179 37.0671C118.238 37.1053 118.304 37.1314 118.374 37.1442C118.444 37.157 118.514 37.1749 118.582 37.1976C118.668 37.2168 118.755 37.2287 118.843 37.2334C118.938 37.2421 119.034 37.2381 119.128 37.2213H119.235C119.313 37.2057 119.386 37.1879 119.454 37.1679C119.521 37.1482 119.586 37.1266 119.65 37.1029C119.741 37.0559 119.83 37.0043 119.916 36.9483C120 36.8986 120.075 36.8344 120.136 36.7588C120.176 36.7034 120.217 36.65 120.261 36.5986C120.303 36.5476 120.358 36.5087 120.421 36.4857C120.516 36.4433 120.62 36.425 120.723 36.4323C120.846 36.4364 120.959 36.4384 121.061 36.4384C121.109 36.4384 121.159 36.4364 121.21 36.4323C121.256 36.4277 121.303 36.4338 121.346 36.45H121.465C121.524 36.4583 121.58 36.4785 121.631 36.5094C121.648 36.5207 121.663 36.5366 121.672 36.5554C121.682 36.5742 121.686 36.5952 121.685 36.6162C121.689 36.6644 121.683 36.7131 121.667 36.7587C121.631 36.8607 121.587 36.9597 121.536 37.055C121.486 37.1457 121.431 37.233 121.37 37.3164C121.212 37.5603 121.011 37.7734 120.777 37.9452C120.522 38.1201 120.241 38.256 119.946 38.3487C119.862 38.3794 119.774 38.3992 119.685 38.4077C119.593 38.4166 119.502 38.4325 119.412 38.4555C119.379 38.4633 119.345 38.4652 119.312 38.4611C119.278 38.457 119.244 38.459 119.21 38.4671H119.08C119.037 38.4834 118.99 38.4894 118.944 38.4848C118.898 38.4815 118.852 38.4756 118.807 38.4671C118.752 38.4591 118.696 38.4591 118.641 38.4671C118.59 38.4746 118.537 38.4706 118.487 38.4555C118.445 38.4391 118.401 38.4309 118.356 38.4314C118.312 38.432 118.267 38.424 118.226 38.4077C118.138 38.392 118.052 38.374 117.965 38.3543C117.882 38.3363 117.802 38.3064 117.727 38.2656C117.641 38.2338 117.559 38.2041 117.484 38.1764C117.412 38.1502 117.342 38.1164 117.277 38.0756C117.028 37.9215 116.801 37.7361 116.6 37.524C116.399 37.3092 116.235 37.0625 116.114 36.794C116.074 36.708 116.042 36.6187 116.019 36.527C115.994 36.432 115.962 36.3389 115.924 36.2484C115.916 36.2193 115.912 36.1894 115.912 36.1593C115.911 36.1294 115.908 36.0996 115.9 36.0705C115.868 35.9705 115.848 35.8668 115.841 35.7618L115.817 35.4297C115.817 35.39 115.815 35.3466 115.811 35.2992C115.807 35.2557 115.809 35.2118 115.817 35.1687V35.0262L115.853 34.7416C115.884 34.6071 115.912 34.4766 115.936 34.3501C115.958 34.2279 115.994 34.1085 116.043 33.994C116.197 33.6006 116.431 33.243 116.729 32.943C117.026 32.6431 117.382 32.4072 117.775 32.2498C117.883 32.2031 117.997 32.1692 118.113 32.149C118.228 32.1294 118.348 32.1037 118.475 32.0719C118.534 32.0642 118.594 32.0602 118.653 32.0599C118.713 32.0596 118.772 32.0557 118.831 32.0483C119.182 32.033 119.533 32.0791 119.869 32.1844C120.144 32.2768 120.406 32.4067 120.646 32.5702C120.72 32.6197 120.792 32.6732 120.86 32.7304C120.928 32.7866 120.991 32.8481 121.049 32.9143C121.073 32.9534 121.106 32.986 121.145 33.0091C121.208 33.0962 121.267 33.1853 121.322 33.2761C121.378 33.3672 121.437 33.46 121.501 33.5551C121.54 33.6256 121.574 33.6989 121.602 33.7743C121.629 33.8498 121.659 33.9309 121.69 34.0176C121.73 34.1218 121.762 34.2289 121.786 34.3381C121.809 34.4489 121.836 34.5597 121.868 34.6705C121.885 34.7384 121.891 34.8084 121.886 34.8781C121.881 34.9478 121.887 35.0178 121.904 35.0857L121.904 35.2162ZM120.124 34.516C120.152 34.4731 120.168 34.4238 120.171 34.3729C120.174 34.322 120.164 34.2712 120.142 34.2253C120.099 34.1109 120.065 34.0259 120.041 33.9703C119.942 33.7697 119.79 33.5996 119.602 33.4781C119.37 33.3502 119.108 33.2867 118.843 33.2942C118.831 33.302 118.817 33.3071 118.803 33.3092C118.788 33.3112 118.774 33.31 118.76 33.3058C118.733 33.2982 118.704 33.2982 118.676 33.3058C118.635 33.3223 118.591 33.3323 118.546 33.3355C118.502 33.339 118.457 33.349 118.415 33.3653C118.249 33.4153 118.095 33.4991 117.962 33.6113C117.83 33.7236 117.721 33.8619 117.645 34.0177C117.629 34.0494 117.611 34.0912 117.591 34.1422C117.572 34.1921 117.558 34.2439 117.55 34.2968C117.542 34.346 117.543 34.3964 117.555 34.4449C117.567 34.492 117.594 34.5338 117.633 34.5638C117.712 34.6071 117.803 34.6276 117.893 34.6228H119.531C119.642 34.6228 119.758 34.6212 119.881 34.6172C119.927 34.6218 119.973 34.615 120.015 34.5974C120.058 34.5797 120.095 34.5517 120.124 34.516V34.516Z" fill="#A7A8AA"/>
<path d="M126.199 32.0596C126.276 32.0587 126.354 32.0666 126.43 32.0833C126.495 32.0979 126.552 32.136 126.591 32.1901C126.647 32.2893 126.671 32.4031 126.661 32.5165V32.9257C126.661 33.0128 126.664 33.112 126.668 33.2224C126.675 33.3115 126.661 33.4011 126.626 33.4834C126.612 33.5097 126.592 33.5327 126.569 33.5511C126.545 33.5695 126.518 33.5828 126.489 33.5902C126.424 33.6069 126.356 33.6149 126.288 33.6139C126.212 33.6139 126.134 33.6102 126.051 33.6022C125.973 33.5939 125.895 33.5979 125.819 33.6139C125.765 33.6297 125.709 33.6397 125.653 33.6436C125.601 33.6471 125.549 33.6571 125.498 33.6733C125.366 33.7159 125.239 33.7737 125.119 33.8455C125.005 33.9103 124.904 33.9969 124.822 34.1005C124.783 34.1639 124.741 34.229 124.698 34.2964C124.654 34.3635 124.613 34.4325 124.573 34.504C124.549 34.5674 124.528 34.6326 124.508 34.6995C124.488 34.767 124.471 34.8324 124.455 34.8955C124.439 34.9514 124.431 35.0092 124.431 35.0673C124.431 35.1256 124.423 35.1836 124.407 35.2396C124.399 35.2686 124.397 35.2989 124.402 35.3287C124.406 35.3545 124.403 35.381 124.395 35.4058V35.5957C124.379 35.6556 124.375 35.7182 124.384 35.7796C124.391 35.8445 124.395 35.9098 124.395 35.9751V37.743C124.395 37.8462 124.391 37.9409 124.384 38.028C124.379 38.1043 124.355 38.178 124.312 38.2416C124.293 38.2675 124.266 38.2862 124.235 38.295C124.198 38.3072 124.16 38.317 124.122 38.3244H124.063C124.02 38.3327 123.976 38.3367 123.933 38.3364H123.292C123.243 38.3284 123.193 38.3244 123.143 38.3244H122.983C122.944 38.3087 122.904 38.2951 122.865 38.283C122.846 38.2777 122.828 38.2679 122.814 38.2545C122.799 38.2411 122.788 38.2244 122.782 38.2059C122.746 38.1556 122.727 38.0953 122.728 38.0337C122.724 37.9586 122.722 37.8815 122.722 37.8024V32.5403C122.72 32.4756 122.736 32.4116 122.77 32.3564C122.789 32.325 122.815 32.2982 122.846 32.2777C122.877 32.2572 122.912 32.2435 122.948 32.2375C123.042 32.2205 123.137 32.2125 123.232 32.2138H123.838C123.921 32.213 124.004 32.219 124.087 32.2319C124.121 32.2371 124.154 32.2498 124.183 32.2693C124.211 32.2887 124.235 32.3144 124.253 32.3443C124.28 32.3956 124.294 32.4526 124.295 32.5105C124.299 32.5816 124.304 32.6511 124.312 32.7181C124.319 32.7808 124.333 32.8425 124.354 32.902C124.361 32.9267 124.375 32.9484 124.396 32.9635C124.416 32.9786 124.441 32.9863 124.467 32.9851C124.473 32.9782 124.48 32.9726 124.488 32.9685C124.496 32.9645 124.505 32.9621 124.514 32.9614C124.523 32.9609 124.532 32.9585 124.54 32.9545C124.548 32.9504 124.555 32.9447 124.561 32.9377C124.609 32.8982 124.651 32.8523 124.686 32.8012C124.723 32.7483 124.769 32.7022 124.822 32.6647C124.853 32.642 124.881 32.6161 124.906 32.5876C124.93 32.5589 124.958 32.5331 124.989 32.5105C125.06 32.4632 125.133 32.4157 125.208 32.368C125.283 32.3206 125.36 32.2773 125.44 32.2375C125.519 32.2062 125.6 32.1785 125.682 32.1548C125.766 32.1307 125.851 32.1069 125.938 32.0833C125.983 32.0744 126.029 32.0724 126.074 32.0773C126.142 32.0817 126.183 32.0757 126.199 32.0596Z" fill="#A7A8AA"/>
<path d="M132.737 35.2162C132.753 35.2865 132.753 35.3595 132.737 35.4298C132.734 35.4598 132.726 35.4889 132.711 35.5154C132.697 35.5419 132.678 35.5652 132.654 35.584C132.603 35.6199 132.544 35.6425 132.482 35.6494C132.4 35.6618 132.316 35.6697 132.233 35.6731C132.142 35.6771 132.051 35.6771 131.96 35.6731C131.869 35.6691 131.788 35.6671 131.717 35.6671H128.662C128.615 35.6663 128.569 35.6743 128.525 35.6908C128.486 35.7084 128.452 35.7339 128.423 35.7655C128.394 35.7971 128.373 35.8343 128.359 35.8747C128.343 35.9142 128.339 35.9574 128.347 35.9991C128.362 36.0433 128.372 36.0892 128.377 36.1357C128.381 36.1822 128.391 36.228 128.406 36.2722C128.458 36.4395 128.537 36.5976 128.638 36.7407C128.74 36.8732 128.867 36.9841 129.012 37.0671C129.071 37.1053 129.138 37.1314 129.207 37.1442C129.277 37.157 129.347 37.1749 129.415 37.1976C129.501 37.2168 129.588 37.2287 129.676 37.2334C129.771 37.2421 129.867 37.2381 129.961 37.2213H130.068C130.146 37.2057 130.22 37.1879 130.287 37.1679C130.354 37.1482 130.419 37.1266 130.483 37.1029C130.574 37.0559 130.663 37.0043 130.75 36.9483C130.833 36.8986 130.908 36.8344 130.97 36.7588C131.009 36.7034 131.051 36.65 131.094 36.5986C131.137 36.5476 131.192 36.5087 131.254 36.4857C131.349 36.4433 131.453 36.425 131.557 36.4323C131.679 36.4364 131.792 36.4384 131.895 36.4384C131.942 36.4384 131.992 36.4364 132.043 36.4323C132.089 36.4277 132.136 36.4338 132.18 36.45H132.299C132.357 36.4583 132.413 36.4785 132.464 36.5094C132.482 36.5207 132.496 36.5366 132.505 36.5554C132.515 36.5742 132.519 36.5952 132.518 36.6162C132.522 36.6644 132.516 36.7131 132.5 36.7587C132.464 36.8607 132.42 36.9597 132.369 37.055C132.32 37.1457 132.264 37.233 132.203 37.3164C132.045 37.5603 131.845 37.7734 131.61 37.9452C131.355 38.12 131.075 38.256 130.779 38.3487C130.695 38.3794 130.607 38.3992 130.518 38.4077C130.426 38.4166 130.335 38.4325 130.245 38.4555C130.212 38.4633 130.178 38.4652 130.145 38.4611C130.111 38.457 130.077 38.459 130.044 38.4671H129.914C129.87 38.4834 129.823 38.4894 129.777 38.4848C129.731 38.4815 129.686 38.4756 129.641 38.4671C129.586 38.4591 129.53 38.4591 129.474 38.4671C129.423 38.4746 129.37 38.4706 129.32 38.4555C129.279 38.4391 129.234 38.4309 129.189 38.4314C129.145 38.432 129.101 38.424 129.059 38.4077C128.972 38.392 128.885 38.374 128.798 38.3543C128.715 38.3363 128.635 38.3064 128.561 38.2656C128.474 38.2338 128.393 38.2041 128.317 38.1764C128.245 38.1502 128.175 38.1164 128.11 38.0756C127.862 37.9215 127.634 37.7361 127.433 37.524C127.232 37.3092 127.068 37.0625 126.947 36.794C126.908 36.708 126.876 36.6187 126.852 36.527C126.827 36.432 126.795 36.3389 126.757 36.2484C126.749 36.2193 126.745 36.1894 126.745 36.1593C126.745 36.1294 126.741 36.0996 126.734 36.0705C126.701 35.9705 126.681 35.8668 126.674 35.7618L126.65 35.4297C126.65 35.39 126.649 35.3466 126.645 35.2992C126.64 35.2557 126.642 35.2118 126.65 35.1687V35.0262L126.686 34.7416C126.718 34.6071 126.745 34.4766 126.769 34.3501C126.792 34.2279 126.828 34.1085 126.876 33.994C127.031 33.6006 127.264 33.243 127.562 32.943C127.86 32.6431 128.216 32.4072 128.608 32.2498C128.716 32.2031 128.83 32.1692 128.946 32.149C129.061 32.1294 129.181 32.1037 129.308 32.0719C129.367 32.0642 129.427 32.0602 129.486 32.0599C129.546 32.0596 129.605 32.0557 129.664 32.0483C130.015 32.033 130.367 32.0791 130.702 32.1844C130.978 32.2768 131.239 32.4067 131.48 32.5702C131.554 32.6197 131.625 32.6732 131.693 32.7304C131.761 32.7866 131.824 32.8481 131.883 32.9143C131.906 32.9534 131.939 32.986 131.978 33.0091C132.041 33.0962 132.1 33.1853 132.156 33.2761C132.211 33.3672 132.271 33.46 132.334 33.5551C132.373 33.6256 132.407 33.6989 132.435 33.7743C132.462 33.8498 132.492 33.9309 132.523 34.0176C132.564 34.1218 132.596 34.2289 132.619 34.3381C132.642 34.4489 132.67 34.5597 132.702 34.6705C132.718 34.7384 132.724 34.8084 132.719 34.8781C132.715 34.9478 132.721 35.0178 132.737 35.0857V35.2162ZM130.958 34.516C130.985 34.4731 131.001 34.4238 131.004 34.3729C131.007 34.322 130.997 34.2712 130.975 34.2253C130.932 34.1109 130.898 34.0259 130.874 33.9703C130.775 33.7697 130.623 33.5996 130.436 33.4781C130.203 33.3502 129.941 33.2867 129.676 33.2942C129.664 33.302 129.65 33.3071 129.636 33.3092C129.622 33.3112 129.607 33.31 129.593 33.3058C129.566 33.2982 129.537 33.2982 129.51 33.3058C129.468 33.3223 129.424 33.3323 129.38 33.3355C129.335 33.339 129.291 33.349 129.249 33.3653C129.082 33.4153 128.928 33.4991 128.795 33.6113C128.663 33.7236 128.555 33.8619 128.478 34.0177C128.462 34.0494 128.444 34.0912 128.424 34.1422C128.405 34.1921 128.391 34.2439 128.383 34.2968C128.375 34.346 128.377 34.3964 128.389 34.4449C128.4 34.492 128.428 34.5338 128.466 34.5638C128.546 34.6071 128.636 34.6276 128.727 34.6228H130.364C130.475 34.6228 130.591 34.6212 130.714 34.6172C130.76 34.6218 130.806 34.615 130.849 34.5974C130.891 34.5797 130.929 34.5517 130.958 34.516V34.516Z" fill="#A7A8AA"/>
<path d="M139.536 37.6604V37.9864C139.54 38.0771 139.515 38.1667 139.464 38.2418C139.422 38.2827 139.368 38.3096 139.31 38.3189C139.24 38.3312 139.168 38.3371 139.097 38.3365H138.445C138.365 38.3365 138.292 38.3345 138.224 38.3305C138.167 38.3301 138.111 38.3114 138.065 38.2771C138.039 38.2599 138.017 38.2372 138 38.2106C137.984 38.1839 137.973 38.154 137.97 38.1229C137.961 38.058 137.945 37.9942 137.922 37.933C137.906 37.9174 137.892 37.9033 137.881 37.8917L137.839 37.8499C137.805 37.8469 137.771 37.8505 137.738 37.8607C137.706 37.8709 137.676 37.8874 137.65 37.9093C137.609 37.9491 137.57 37.9884 137.531 38.0282C137.475 38.0675 137.424 38.1011 137.376 38.1289C137.329 38.1566 137.277 38.1904 137.222 38.2297C137.19 38.2458 137.156 38.2614 137.121 38.2771C137.086 38.2932 137.048 38.3088 137.009 38.3245C136.898 38.3642 136.779 38.3995 136.652 38.4313C136.618 38.4461 136.582 38.4543 136.545 38.4554C136.513 38.4553 136.482 38.4592 136.451 38.467C136.417 38.4667 136.384 38.4687 136.35 38.4731C136.317 38.4774 136.283 38.4794 136.249 38.4791H136.142C136.073 38.4969 136 38.5029 135.929 38.4967C135.86 38.497 135.792 38.4869 135.727 38.467C135.679 38.4519 135.629 38.446 135.579 38.4494C135.532 38.4528 135.486 38.4467 135.442 38.4313C135.347 38.3996 135.254 38.3703 135.163 38.3426C135.072 38.3148 134.983 38.2811 134.897 38.2418C134.611 38.1164 134.357 37.9276 134.155 37.6897C133.945 37.4531 133.771 37.1874 133.639 36.9008C133.601 36.8182 133.569 36.7329 133.544 36.6458C133.52 36.5627 133.492 36.478 133.461 36.3908C133.453 36.3617 133.449 36.3318 133.449 36.3017C133.447 36.2669 133.439 36.2327 133.425 36.2009C133.41 36.1375 133.395 36.0684 133.384 35.9933C133.372 35.9182 133.358 35.8408 133.342 35.7617C133.334 35.7348 133.332 35.7063 133.337 35.6785C133.34 35.6508 133.338 35.6226 133.33 35.5958V35.483C133.33 35.4451 133.326 35.4073 133.318 35.3702C133.31 35.3252 133.306 35.2794 133.307 35.2337C133.306 35.1919 133.309 35.1501 133.318 35.1092C133.326 35.0721 133.33 35.0343 133.33 34.9964V34.8836C133.338 34.8466 133.34 34.8087 133.337 34.7711C133.332 34.7326 133.339 34.6937 133.354 34.6583C133.369 34.5712 133.384 34.4885 133.395 34.409C133.407 34.3287 133.425 34.2494 133.449 34.1717C133.48 34.0769 133.508 33.9862 133.532 33.899C133.556 33.8096 133.588 33.7223 133.627 33.6381C133.739 33.3975 133.879 33.1705 134.042 32.9615C134.06 32.9358 134.082 32.9137 134.107 32.8965C134.133 32.8786 134.155 32.8565 134.172 32.831C134.202 32.7938 134.234 32.7581 134.267 32.7242C134.299 32.6929 134.335 32.6612 134.374 32.6295C134.406 32.6134 134.434 32.5912 134.458 32.564C134.48 32.5369 134.509 32.5148 134.54 32.499C134.753 32.357 134.985 32.2452 135.228 32.1665C135.285 32.1506 135.343 32.1387 135.401 32.1308C135.463 32.1227 135.524 32.1109 135.585 32.0955C135.655 32.0776 135.726 32.0676 135.799 32.0658C135.885 32.0617 135.972 32.0597 136.06 32.0597C136.146 32.0597 136.231 32.0638 136.314 32.0718C136.384 32.0775 136.454 32.0893 136.522 32.1071C136.641 32.1469 136.755 32.1826 136.866 32.2139C136.974 32.2446 137.078 32.2885 137.175 32.3444C137.23 32.3842 137.282 32.4215 137.329 32.4572C137.376 32.493 137.428 32.5307 137.483 32.5701C137.515 32.5937 137.56 32.6255 137.62 32.6648C137.644 32.6841 137.675 32.6946 137.706 32.6946C137.737 32.6946 137.767 32.6841 137.792 32.6648C137.807 32.6573 137.82 32.6454 137.828 32.6305C137.837 32.6157 137.84 32.5987 137.839 32.5817C137.839 32.541 137.848 32.5008 137.863 32.4633V32.3444C137.871 32.3175 137.875 32.2897 137.874 32.2617V30.553C137.874 30.4662 137.873 30.3691 137.869 30.2623C137.86 30.1776 137.878 30.0921 137.922 30.0189C137.94 29.9863 137.965 29.9585 137.996 29.9379C138.027 29.9172 138.063 29.9044 138.1 29.9005C138.115 29.8926 138.131 29.8905 138.147 29.8945C138.163 29.8985 138.18 29.8963 138.195 29.8885H139.037C139.124 29.8881 139.211 29.8921 139.298 29.9005C139.333 29.9021 139.367 29.9115 139.398 29.9279C139.429 29.9442 139.456 29.9673 139.476 29.9953C139.519 30.0692 139.539 30.1535 139.536 30.2386V37.6604H139.536ZM137.922 35.3345C137.93 35.3016 137.932 35.2674 137.928 35.2337C137.924 35.2003 137.922 35.1666 137.922 35.1329C137.922 35.0538 137.918 34.9747 137.91 34.8956C137.904 34.8237 137.892 34.7523 137.874 34.682C137.858 34.5953 137.845 34.5158 137.833 34.4448C137.822 34.3746 137.8 34.3067 137.768 34.2432C137.671 33.9785 137.505 33.7448 137.287 33.5667C137.021 33.3839 136.702 33.2962 136.38 33.3177C136.316 33.3195 136.252 33.3274 136.19 33.3414C136.126 33.3571 136.069 33.3711 136.018 33.3828C135.966 33.3947 135.916 33.4126 135.869 33.4362C135.665 33.5154 135.491 33.6565 135.371 33.8397C135.248 34.0312 135.152 34.2389 135.086 34.4568C135.063 34.5342 135.047 34.6136 135.039 34.6941C135.03 34.7782 135.014 34.8615 134.992 34.943V35.1092C134.974 35.2051 134.97 35.303 134.979 35.3999C134.983 35.4899 134.994 35.5793 135.015 35.6669C135.015 35.6888 135.017 35.7106 135.021 35.732C135.025 35.7496 135.027 35.7674 135.027 35.7854C135.043 35.8488 135.057 35.9083 135.069 35.9637C135.081 36.0191 135.094 36.0781 135.11 36.1415C135.22 36.5203 135.465 36.8454 135.799 37.055C135.929 37.1375 136.073 37.194 136.225 37.2212C136.272 37.2306 136.32 37.2347 136.368 37.2333C136.405 37.2434 136.442 37.2493 136.48 37.2509C136.522 37.2555 136.564 37.2534 136.605 37.2449C136.667 37.2292 136.731 37.2174 136.795 37.2095C136.86 37.2009 136.923 37.1849 136.985 37.1618C137.165 37.087 137.327 36.9737 137.459 36.8297C137.589 36.6775 137.693 36.5051 137.768 36.3194C137.799 36.249 137.823 36.1753 137.839 36.0998C137.855 36.0247 137.87 35.944 137.886 35.8569C137.894 35.8198 137.896 35.7817 137.892 35.7441C137.889 35.7055 137.895 35.6667 137.91 35.6312C137.918 35.6042 137.922 35.5762 137.922 35.5481V35.3345L137.922 35.3345Z" fill="#A7A8AA"/>
<path d="M149.87 34.9665C149.889 35.0462 149.897 35.1281 149.893 35.2099C149.895 35.2911 149.891 35.3724 149.882 35.4532C149.882 35.4869 149.88 35.5205 149.876 35.5539C149.871 35.5874 149.87 35.621 149.87 35.6547C149.854 35.7148 149.846 35.7766 149.846 35.8386C149.845 35.9006 149.838 35.9623 149.823 36.0225C149.819 36.0785 149.811 36.1341 149.799 36.1887C149.775 36.2839 149.753 36.3806 149.733 36.4794C149.714 36.5755 149.684 36.6691 149.644 36.7585C149.515 37.0925 149.335 37.4046 149.11 37.6839C148.884 37.9546 148.595 38.1662 148.268 38.3006C148.197 38.3322 148.124 38.3579 148.049 38.3777C147.973 38.3974 147.892 38.4195 147.805 38.4432C147.758 38.459 147.707 38.467 147.657 38.4669C147.607 38.4668 147.557 38.4708 147.508 38.4789H147.402C147.34 38.4961 147.276 38.5021 147.212 38.4966C147.148 38.495 147.084 38.485 147.023 38.4669H146.951C146.908 38.4582 146.864 38.4523 146.82 38.4492C146.773 38.4452 146.725 38.4392 146.678 38.4311C146.528 38.3918 146.389 38.352 146.263 38.3127C146.137 38.2738 146.018 38.2179 145.907 38.1465C145.86 38.1152 145.814 38.0834 145.771 38.0517C145.726 38.0197 145.685 37.984 145.646 37.9449C145.622 37.9293 145.598 37.9132 145.575 37.8975C145.553 37.8825 145.529 37.8704 145.503 37.8618C145.433 37.8381 145.388 37.8542 145.373 37.9092C145.332 37.9673 145.305 38.0345 145.296 38.1051C145.289 38.1715 145.257 38.2327 145.207 38.277C145.157 38.3095 145.1 38.328 145.041 38.3304C144.977 38.3344 144.906 38.3364 144.827 38.3364H144.258C144.202 38.3364 144.145 38.3384 144.086 38.3424C144.032 38.3469 143.977 38.3407 143.925 38.3243C143.876 38.3108 143.832 38.2826 143.799 38.2434C143.766 38.2043 143.746 38.156 143.741 38.1051C143.729 37.9848 143.723 37.8639 143.724 37.743V30.2324C143.719 30.1529 143.74 30.074 143.783 30.0071C143.801 29.978 143.825 29.9533 143.854 29.9349C143.883 29.9164 143.915 29.9046 143.949 29.9003C143.966 29.8921 143.985 29.89 144.002 29.8943C144.02 29.8985 144.039 29.8964 144.056 29.8883H144.804C144.927 29.8874 145.049 29.8933 145.172 29.9059C145.22 29.911 145.266 29.9316 145.303 29.9648C145.339 29.998 145.364 30.0419 145.373 30.0902C145.399 30.1929 145.406 30.2992 145.396 30.4046C145.388 30.5351 145.385 30.6475 145.385 30.7427V32.2969C145.384 32.3728 145.392 32.4486 145.408 32.5226C145.416 32.5619 145.425 32.5957 145.433 32.6234C145.436 32.637 145.444 32.6493 145.454 32.6588C145.465 32.6683 145.478 32.6745 145.492 32.6768C145.501 32.685 145.511 32.6914 145.522 32.6955C145.533 32.6996 145.545 32.7013 145.557 32.7005C145.579 32.7014 145.602 32.6973 145.622 32.6884C145.676 32.6582 145.727 32.6246 145.776 32.5876C145.824 32.5523 145.875 32.5147 145.93 32.4748C146.032 32.4046 146.139 32.3431 146.251 32.2909C146.37 32.2365 146.493 32.191 146.619 32.1548C146.68 32.1314 146.744 32.1173 146.809 32.1131C146.873 32.109 146.936 32.099 146.998 32.0833C147.056 32.0673 147.116 32.0593 147.177 32.0597H147.485C147.512 32.0679 147.54 32.07 147.568 32.0657C147.599 32.0616 147.632 32.0637 147.662 32.0717C147.743 32.0937 147.824 32.1115 147.906 32.1251C147.982 32.1371 148.056 32.159 148.126 32.1901C148.459 32.3207 148.762 32.5186 149.016 32.7715C149.26 33.0317 149.457 33.3331 149.597 33.6617C149.637 33.7582 149.671 33.8572 149.698 33.958C149.725 34.0612 149.755 34.168 149.786 34.2784C149.802 34.3306 149.812 34.3843 149.816 34.4386C149.821 34.4967 149.831 34.5544 149.846 34.6108C149.862 34.6523 149.868 34.697 149.864 34.7413C149.86 34.7888 149.862 34.8365 149.87 34.8835L149.87 34.9665ZM148.114 36.0819C148.142 35.9846 148.164 35.8854 148.179 35.7852C148.199 35.6655 148.211 35.5447 148.215 35.4235C148.218 35.301 148.218 35.1784 148.215 35.0557C148.213 34.9497 148.199 34.8442 148.173 34.7413C148.15 34.6678 148.134 34.5922 148.126 34.5156C148.118 34.4455 148.098 34.3773 148.066 34.3141C147.963 34.0479 147.803 33.8072 147.598 33.6082C147.352 33.399 147.035 33.2946 146.713 33.3175C146.686 33.3174 146.658 33.3192 146.631 33.3232C146.603 33.3276 146.576 33.3297 146.548 33.3292C146.493 33.3453 146.441 33.3589 146.393 33.3709C146.346 33.3826 146.298 33.3966 146.251 33.4123C146.038 33.5016 145.856 33.6524 145.729 33.8455C145.604 34.044 145.505 34.2572 145.433 34.4803C145.409 34.543 145.395 34.6089 145.391 34.6759C145.387 34.742 145.377 34.8076 145.361 34.8718C145.351 34.9105 145.347 34.9504 145.349 34.9902C145.341 35.0213 145.339 35.0536 145.343 35.0854C145.347 35.1171 145.345 35.1492 145.337 35.1801C145.32 35.2661 145.317 35.354 145.326 35.4411C145.328 35.5213 145.34 35.601 145.361 35.6784C145.376 35.7448 145.386 35.8124 145.391 35.8804C145.395 35.9454 145.409 36.0094 145.433 36.0703C145.494 36.2715 145.58 36.4646 145.687 36.6456C145.792 36.8142 145.937 36.9547 146.109 37.0548C146.229 37.1317 146.361 37.1878 146.5 37.221C146.518 37.2212 146.536 37.2233 146.554 37.227C146.575 37.2312 146.597 37.2332 146.619 37.233C146.658 37.2433 146.697 37.2492 146.738 37.2507C146.785 37.2551 146.833 37.2531 146.88 37.2447C146.959 37.229 147.032 37.215 147.1 37.2033C147.166 37.1914 147.231 37.1735 147.295 37.1499C147.503 37.058 147.682 36.9101 147.811 36.7227C147.942 36.5244 148.043 36.3086 148.114 36.0819H148.114Z" fill="#A7A8AA"/>
<path d="M150.117 32.1901H151.257C151.327 32.1881 151.396 32.2045 151.458 32.2375C151.558 32.3086 151.628 32.4144 151.654 32.5342C151.689 32.6687 151.727 32.7916 151.767 32.902C151.806 32.9987 151.84 33.0978 151.868 33.1987C151.895 33.2997 151.928 33.3988 151.968 33.4954C152.031 33.6773 152.091 33.8572 152.146 34.035C152.202 34.2133 152.261 34.3894 152.324 34.5634L152.574 35.3106C152.597 35.3821 152.618 35.4553 152.639 35.5302C152.659 35.6053 152.684 35.6787 152.716 35.7499C152.74 35.8133 152.765 35.8844 152.793 35.9635C152.803 35.9995 152.826 36.0304 152.858 36.0502C152.89 36.0699 152.928 36.0771 152.965 36.0703C152.976 36.0574 152.99 36.0472 153.006 36.0405C153.022 36.0339 153.037 36.0237 153.048 36.0108C153.071 35.9728 153.091 35.933 153.107 35.892C153.123 35.8526 153.139 35.8133 153.155 35.7735C153.195 35.6837 153.227 35.5903 153.25 35.4945C153.274 35.3957 153.301 35.299 153.332 35.2038C153.443 34.8718 153.55 34.5436 153.653 34.2193C153.756 33.8949 153.862 33.5666 153.973 33.2344C154.013 33.1236 154.046 33.0148 154.074 32.908C154.102 32.8012 154.135 32.6963 154.175 32.5936C154.199 32.5306 154.22 32.4693 154.24 32.4097C154.261 32.3493 154.3 32.2972 154.353 32.2616C154.403 32.2207 154.466 32.1977 154.531 32.1961C154.602 32.1921 154.681 32.1901 154.768 32.1901H155.492C155.568 32.1899 155.643 32.1939 155.717 32.2021C155.779 32.206 155.838 32.2311 155.883 32.2732C155.907 32.303 155.922 32.3388 155.926 32.3766C155.93 32.4143 155.924 32.4525 155.908 32.4868C155.891 32.5511 155.871 32.6145 155.848 32.6767C155.824 32.7402 155.801 32.8032 155.777 32.8666C155.666 33.1433 155.559 33.4261 155.456 33.715C155.354 34.0037 155.247 34.2865 155.136 34.5634C155.089 34.6819 155.045 34.8024 155.006 34.9252C154.966 35.048 154.922 35.1686 154.875 35.2869C154.836 35.3977 154.796 35.5045 154.757 35.6073C154.717 35.7101 154.677 35.8169 154.638 35.9277C154.48 36.3232 154.332 36.7207 154.193 37.1202C154.054 37.5197 153.906 37.9132 153.748 38.3006C153.726 38.3506 153.708 38.4023 153.694 38.4552C153.682 38.5043 153.664 38.5519 153.641 38.5973C153.578 38.7475 153.519 38.8939 153.463 39.0366C153.408 39.1787 153.348 39.3151 153.285 39.4457C153.223 39.5739 153.148 39.6952 153.06 39.8075C152.969 39.9218 152.861 40.0218 152.74 40.1042C152.635 40.1763 152.521 40.2342 152.402 40.2765C152.279 40.3198 152.146 40.3613 152.004 40.4009C151.942 40.4165 151.878 40.4245 151.814 40.4246C151.75 40.4245 151.686 40.4325 151.624 40.4483H151.09C151.003 40.4483 150.918 40.4443 150.835 40.4366C150.752 40.4286 150.677 40.4186 150.609 40.4069C150.557 40.4004 150.506 40.3821 150.462 40.3535C150.424 40.3256 150.397 40.2859 150.384 40.2407C150.372 40.1974 150.359 40.144 150.343 40.0805V39.3686C150.343 39.2185 150.39 39.1233 150.485 39.084C150.536 39.0657 150.591 39.0557 150.645 39.0543C150.703 39.0491 150.762 39.0551 150.817 39.0719H151.257C151.287 39.064 151.319 39.0601 151.351 39.0603C151.384 39.0599 151.417 39.0517 151.446 39.0366C151.562 39.0061 151.667 38.9447 151.751 38.859C151.834 38.7733 151.893 38.6665 151.921 38.55C151.941 38.5042 151.957 38.4564 151.968 38.4074C151.984 38.3533 151.984 38.2957 151.968 38.2416C151.953 38.2039 151.945 38.1635 151.945 38.1227C151.945 38.0821 151.936 38.0418 151.921 38.0043C151.873 37.8461 151.822 37.6898 151.766 37.5353C151.711 37.3811 151.652 37.229 151.588 37.0788C151.525 36.9287 151.467 36.7784 151.416 36.6279C151.365 36.4778 151.308 36.3275 151.244 36.177C151.205 36.084 151.172 35.9888 151.143 35.892C151.115 35.7953 151.082 35.7003 151.043 35.6073C150.916 35.307 150.799 34.9985 150.693 34.6818C150.586 34.3654 150.469 34.0569 150.343 33.7564C150.329 33.7328 150.321 33.7065 150.319 33.6793C150.317 33.6557 150.309 33.633 150.295 33.6138C150.232 33.4733 150.179 33.3287 150.135 33.181C150.092 33.0367 150.039 32.8959 149.975 32.7598C149.959 32.712 149.933 32.6428 149.898 32.5522C149.863 32.48 149.857 32.3972 149.88 32.3206C149.893 32.2887 149.914 32.2608 149.941 32.2399C149.968 32.219 150 32.206 150.034 32.2021C150.04 32.1984 150.047 32.1959 150.054 32.1948C150.061 32.1938 150.068 32.1942 150.075 32.1961C150.082 32.1979 150.09 32.1984 150.097 32.1974C150.104 32.1963 150.111 32.1939 150.117 32.1901V32.1901Z" fill="#A7A8AA"/>
<path d="M162.322 29.8772H163.33C163.417 29.8772 163.5 29.8812 163.579 29.8888C163.645 29.8915 163.708 29.9166 163.757 29.9599C163.793 30.011 163.816 30.0702 163.822 30.1322C163.835 30.2128 163.843 30.294 163.846 30.3755C163.85 30.4626 163.85 30.5493 163.846 30.6365C163.842 30.7236 163.84 30.8027 163.84 30.8737V35.2759C163.84 35.4577 163.842 35.6455 163.846 35.8392C163.851 36.0167 163.834 36.1943 163.793 36.3672C163.777 36.4027 163.771 36.4415 163.775 36.48C163.778 36.5185 163.772 36.5572 163.757 36.5928C163.733 36.6647 163.713 36.738 163.698 36.8124C163.682 36.8878 163.658 36.9612 163.627 37.0316C163.48 37.43 163.22 37.7766 162.879 38.0286C162.766 38.1087 162.645 38.1763 162.518 38.2301C162.387 38.2856 162.25 38.337 162.108 38.3843C162.045 38.4 161.984 38.414 161.924 38.4261C161.865 38.4377 161.803 38.4514 161.74 38.4674C161.672 38.4837 161.602 38.4917 161.532 38.4911C161.459 38.491 161.385 38.4989 161.313 38.5148H161.182C161.118 38.5324 161.052 38.5385 160.986 38.5329C160.92 38.5313 160.855 38.5213 160.791 38.5032C160.727 38.5049 160.664 38.5009 160.601 38.4911C160.524 38.4755 160.447 38.4637 160.37 38.4558C160.3 38.4487 160.231 38.4367 160.162 38.4201C160.075 38.3883 159.988 38.3607 159.901 38.3369C159.815 38.3135 159.731 38.2817 159.652 38.2422C159.398 38.1308 159.165 37.9762 158.963 37.7853C158.761 37.5964 158.6 37.3682 158.489 37.1148C158.458 37.0357 158.429 36.9566 158.406 36.8775C158.382 36.7984 158.359 36.7157 158.335 36.6285C158.321 36.5821 158.314 36.5343 158.311 36.486C158.296 36.4526 158.29 36.4158 158.293 36.3792C158.296 36.3427 158.29 36.3059 158.275 36.2724C158.266 36.2518 158.262 36.2294 158.263 36.207V36.0231C158.255 35.9821 158.252 35.9404 158.252 35.8986V35.7741C158.252 35.6633 158.255 35.5585 158.263 35.4598C158.263 35.4191 158.272 35.3789 158.291 35.3427C158.31 35.3066 158.337 35.2755 158.37 35.2521C158.448 35.2089 158.536 35.1883 158.625 35.1927H158.928C159 35.1927 159.082 35.1907 159.177 35.1867C159.272 35.1827 159.365 35.1827 159.456 35.1867C159.54 35.1899 159.623 35.1999 159.705 35.2164C159.734 35.2195 159.763 35.2284 159.788 35.2427C159.813 35.257 159.836 35.2763 159.853 35.2995C159.911 35.3911 159.935 35.5005 159.919 35.6079C159.906 35.7268 159.912 35.847 159.937 35.964C159.952 36.0082 159.961 36.0538 159.966 36.1002C159.971 36.1467 159.981 36.1925 159.996 36.2367C160.025 36.3414 160.065 36.4428 160.114 36.5394C160.163 36.6313 160.232 36.7105 160.317 36.7707C160.435 36.853 160.568 36.9132 160.708 36.9485C160.874 36.9963 161.05 37.0005 161.218 36.9606C161.252 36.946 161.288 36.938 161.325 36.9369C161.358 36.9366 161.391 36.9285 161.42 36.9132C161.53 36.8729 161.63 36.8082 161.713 36.724C161.795 36.6398 161.857 36.5381 161.894 36.4266C161.926 36.3569 161.946 36.2828 161.954 36.207C161.961 36.1319 161.973 36.0512 161.989 35.9641V35.8275C161.989 35.7818 161.993 35.7361 162.001 35.691C162.009 35.646 162.011 35.6001 162.007 35.5545C162.003 35.5031 162.001 35.4537 162.001 35.4064V30.5176C162.001 30.4309 161.999 30.3397 161.995 30.245C161.988 30.1622 162.007 30.0795 162.049 30.0077C162.094 29.9502 162.156 29.9086 162.227 29.8888C162.259 29.891 162.291 29.887 162.322 29.8772V29.8772Z" fill="#A7A8AA"/>
<path d="M166.759 29.9599C166.82 30.0418 166.849 30.1431 166.842 30.245V30.9332C166.847 30.9746 166.842 31.0167 166.828 31.0559C166.814 31.0951 166.79 31.1303 166.759 31.1584C166.706 31.2001 166.642 31.225 166.575 31.2299C166.494 31.2378 166.413 31.2417 166.332 31.2415H165.668C165.59 31.242 165.513 31.2381 165.436 31.2299C165.373 31.2235 165.313 31.1987 165.264 31.1584C165.226 31.1224 165.203 31.0738 165.199 31.0219C165.186 30.9474 165.178 30.8722 165.175 30.7967C165.171 30.7135 165.171 30.6288 165.175 30.5417C165.179 30.4546 165.181 30.3795 165.181 30.316C165.181 30.253 165.183 30.1956 165.187 30.1442C165.19 30.096 165.204 30.0492 165.228 30.0077C165.243 29.978 165.265 29.9532 165.293 29.9362C165.322 29.9206 165.351 29.9049 165.383 29.8888C165.403 29.8886 165.422 29.8866 165.442 29.8828C165.462 29.8795 165.482 29.8776 165.501 29.8772H166.367C166.442 29.8771 166.518 29.881 166.593 29.8888C166.655 29.8927 166.713 29.9178 166.759 29.9599ZM166.842 37.6845C166.842 37.8427 166.838 37.9772 166.83 38.0876C166.825 38.1436 166.801 38.1962 166.762 38.237C166.724 38.2779 166.672 38.3047 166.617 38.3133C166.567 38.3294 166.515 38.3354 166.463 38.3309C166.407 38.3273 166.348 38.3249 166.284 38.3249H165.62C165.55 38.3251 165.481 38.3212 165.412 38.3132C165.384 38.3119 165.356 38.305 165.331 38.2928C165.305 38.2806 165.283 38.2634 165.264 38.2422C165.215 38.1836 165.188 38.1103 165.187 38.0342C165.183 37.9515 165.181 37.8624 165.181 37.7676V32.5231C165.176 32.487 165.178 32.4501 165.189 32.415C165.199 32.3799 165.216 32.3473 165.239 32.3193C165.263 32.2913 165.292 32.2686 165.325 32.2526C165.358 32.2366 165.394 32.2277 165.43 32.2264C165.451 32.2179 165.473 32.2158 165.495 32.2204C165.517 32.2251 165.54 32.223 165.561 32.2144H166.154C166.202 32.2144 166.255 32.2128 166.314 32.2088C166.364 32.2044 166.414 32.2063 166.463 32.2144H166.557C166.6 32.2292 166.643 32.2411 166.688 32.2501C166.708 32.2545 166.727 32.2631 166.743 32.2753C166.759 32.2876 166.773 32.3032 166.783 32.3212C166.817 32.3698 166.836 32.4279 166.836 32.4874C166.84 32.5585 166.842 32.634 166.842 32.7127L166.842 37.6845Z" fill="#A7A8AA"/>
<path d="M167.768 32.2137H168.635C168.722 32.2137 168.805 32.2158 168.884 32.2198C168.954 32.2216 169.023 32.2399 169.085 32.2732C169.184 32.346 169.25 32.4548 169.269 32.5759C169.3 32.7063 169.338 32.8349 169.383 32.9614C169.469 33.2223 169.552 33.4893 169.631 33.7624C169.71 34.035 169.793 34.3059 169.88 34.575C169.944 34.7649 170.003 34.9587 170.059 35.1564C170.114 35.3543 170.177 35.5443 170.248 35.7261C170.272 35.7972 170.298 35.8723 170.325 35.9514C170.336 35.988 170.359 36.0197 170.391 36.0413C170.422 36.063 170.46 36.0732 170.498 36.0702C170.508 36.0586 170.52 36.0485 170.533 36.0405C170.546 36.0323 170.558 36.0223 170.569 36.0108C170.592 35.9729 170.612 35.9332 170.628 35.892C170.644 35.8526 170.659 35.8089 170.675 35.7615C170.715 35.6741 170.745 35.5827 170.764 35.4888C170.784 35.3962 170.81 35.305 170.842 35.2158C170.952 34.8834 171.057 34.5492 171.156 34.2133C171.255 33.8772 171.36 33.543 171.47 33.2107C171.51 33.1165 171.541 33.0193 171.565 32.92C171.588 32.8255 171.616 32.7323 171.649 32.641C171.664 32.5765 171.684 32.5131 171.708 32.4511C171.729 32.3911 171.766 32.3379 171.815 32.2969C171.864 32.2689 171.916 32.2451 171.969 32.2258C172.019 32.2098 172.071 32.2038 172.123 32.2082C172.179 32.2122 172.23 32.2138 172.277 32.2138H172.859C172.945 32.2138 173.027 32.2158 173.102 32.2198C173.166 32.2192 173.227 32.2426 173.274 32.2852C173.298 32.3063 173.315 32.3334 173.325 32.3637C173.334 32.394 173.335 32.4263 173.328 32.4571C173.319 32.5194 173.305 32.5809 173.286 32.641C173.247 32.7518 173.206 32.8686 173.167 32.9911C173.128 33.114 173.088 33.2304 173.048 33.3412C173.026 33.393 173.008 33.4466 172.995 33.5014C172.983 33.5528 172.97 33.6022 172.953 33.6496C172.915 33.7345 172.881 33.8216 172.853 33.9105C172.825 33.9977 172.795 34.0847 172.764 34.1715C172.755 34.1965 172.749 34.2224 172.746 34.2486C172.742 34.2763 172.732 34.3027 172.717 34.3261C172.669 34.4446 172.627 34.5654 172.592 34.6879C172.556 34.8107 172.518 34.9313 172.479 35.0496C172.392 35.2869 172.309 35.5302 172.23 35.7796C172.15 36.0285 172.063 36.2717 171.969 36.5091C171.929 36.6199 171.894 36.7287 171.862 36.8355C171.83 36.9423 171.795 37.0511 171.755 37.1615C171.742 37.1945 171.73 37.2283 171.72 37.2627C171.712 37.2904 171.7 37.3237 171.684 37.3635C171.653 37.4506 171.623 37.5393 171.595 37.6305C171.567 37.7212 171.538 37.8104 171.506 37.8975C171.466 37.9846 171.431 38.0653 171.4 38.1404C171.383 38.1783 171.359 38.2122 171.328 38.2398C171.297 38.2675 171.261 38.2882 171.221 38.3006C171.157 38.3244 171.088 38.3346 171.02 38.3303C170.948 38.3267 170.877 38.3243 170.806 38.3243H169.78C169.704 38.3259 169.629 38.3097 169.56 38.2769C169.507 38.2403 169.466 38.1887 169.442 38.1287C169.418 38.0693 169.394 38.0043 169.37 37.9328C169.33 37.8358 169.294 37.7368 169.264 37.6361C169.232 37.5337 169.196 37.4345 169.157 37.3398C169.142 37.3119 169.132 37.2818 169.127 37.2506C169.121 37.216 169.111 37.1822 169.097 37.1499C169.058 37.0547 169.022 36.9559 168.991 36.8531C168.959 36.7504 168.923 36.6476 168.884 36.5448C168.869 36.5083 168.857 36.4706 168.848 36.432C168.84 36.3934 168.827 36.3557 168.812 36.3191C168.781 36.2474 168.753 36.1741 168.73 36.0995C168.706 36.0244 168.682 35.9514 168.658 35.8803C168.643 35.8576 168.635 35.8307 168.635 35.8032C168.635 35.7756 168.626 35.7487 168.611 35.7261C168.58 35.6568 168.554 35.5854 168.534 35.5125C168.512 35.436 168.486 35.3607 168.457 35.2869C168.386 35.105 168.319 34.9171 168.255 34.7231C168.192 34.5296 168.128 34.3378 168.066 34.1478C167.979 33.9364 167.904 33.7207 167.84 33.5014C167.776 33.2838 167.705 33.0681 167.626 32.8545L167.519 32.5341C167.511 32.5052 167.505 32.4755 167.502 32.4454C167.498 32.4107 167.504 32.3755 167.519 32.3442C167.536 32.313 167.56 32.2861 167.589 32.2656C167.618 32.245 167.651 32.2314 167.686 32.2258C167.714 32.2276 167.742 32.2235 167.768 32.2137V32.2137Z" fill="#A7A8AA"/>
<path d="M179.775 35.2164C179.791 35.2867 179.791 35.3597 179.775 35.43C179.773 35.4599 179.764 35.4891 179.75 35.5156C179.736 35.5421 179.716 35.5654 179.693 35.5842C179.642 35.6201 179.583 35.6426 179.521 35.6496C179.438 35.662 179.355 35.6699 179.271 35.6733C179.18 35.6773 179.09 35.6773 178.998 35.6733C178.907 35.6693 178.826 35.6673 178.756 35.6673H175.7C175.653 35.6665 175.607 35.6745 175.564 35.691C175.525 35.7086 175.49 35.734 175.461 35.7657C175.433 35.7973 175.411 35.8345 175.397 35.8748C175.382 35.9144 175.377 35.9575 175.385 35.9993C175.4 36.0435 175.41 36.0893 175.415 36.1358C175.419 36.1823 175.429 36.2282 175.445 36.2723C175.497 36.4397 175.575 36.5978 175.676 36.7409C175.778 36.8734 175.905 36.9843 176.05 37.0673C176.11 37.1054 176.176 37.1316 176.245 37.1444C176.316 37.1572 176.385 37.175 176.453 37.1978C176.539 37.2169 176.626 37.2289 176.714 37.2335C176.809 37.2423 176.905 37.2382 176.999 37.2215H177.106C177.185 37.2058 177.258 37.188 177.325 37.1681C177.393 37.1484 177.458 37.1267 177.521 37.103C177.613 37.0561 177.702 37.0045 177.788 36.9485C177.872 36.8987 177.946 36.8346 178.008 36.7589C178.047 36.7035 178.089 36.6501 178.132 36.5987C178.175 36.5478 178.23 36.5089 178.292 36.4859C178.387 36.4435 178.491 36.4251 178.595 36.4325C178.718 36.4365 178.83 36.4385 178.933 36.4385C178.98 36.4385 179.03 36.4365 179.082 36.4325C179.128 36.4279 179.175 36.4339 179.218 36.4502H179.337C179.396 36.4585 179.452 36.4787 179.502 36.5096C179.52 36.5209 179.534 36.5368 179.544 36.5556C179.553 36.5744 179.558 36.5954 179.556 36.6164C179.561 36.6646 179.555 36.7133 179.538 36.7589C179.502 36.8608 179.459 36.9599 179.408 37.0552C179.358 37.1459 179.302 37.2332 179.241 37.3166C179.084 37.5605 178.883 37.7736 178.649 37.9454C178.393 38.1203 178.113 38.2563 177.818 38.3489C177.733 38.3796 177.646 38.3994 177.557 38.408C177.465 38.4168 177.373 38.4328 177.284 38.4557C177.251 38.4635 177.217 38.4654 177.183 38.4614C177.149 38.4572 177.115 38.4592 177.082 38.4674H176.952C176.908 38.4836 176.862 38.4896 176.815 38.485C176.77 38.4817 176.724 38.4758 176.679 38.4674C176.624 38.4593 176.568 38.4593 176.513 38.4674C176.461 38.4748 176.408 38.4709 176.359 38.4557C176.317 38.4394 176.272 38.4312 176.228 38.4316C176.183 38.4323 176.139 38.4242 176.098 38.4079C176.01 38.3923 175.923 38.3742 175.837 38.3545C175.753 38.3366 175.673 38.3067 175.599 38.2658C175.512 38.2341 175.431 38.2044 175.356 38.1767C175.283 38.1504 175.214 38.1166 175.148 38.0759C174.9 37.9218 174.673 37.7364 174.471 37.5242C174.27 37.3094 174.106 37.0628 173.986 36.7943C173.946 36.7083 173.914 36.6189 173.89 36.5273C173.865 36.4323 173.833 36.3392 173.795 36.2486C173.788 36.2195 173.784 36.1896 173.783 36.1595C173.783 36.1296 173.779 36.0998 173.772 36.0708C173.739 35.9708 173.719 35.867 173.713 35.762L173.689 35.43C173.689 35.3902 173.687 35.3469 173.683 35.2995C173.679 35.2559 173.68 35.212 173.689 35.169V35.0265L173.725 34.7418C173.756 34.6073 173.783 34.4768 173.807 34.3503C173.83 34.2281 173.866 34.1087 173.914 33.9942C174.069 33.6008 174.302 33.2432 174.6 32.9433C174.898 32.6434 175.254 32.4075 175.646 32.2501C175.755 32.2033 175.868 32.1695 175.984 32.1493C176.099 32.1296 176.22 32.1039 176.347 32.0722C176.406 32.0644 176.465 32.0604 176.525 32.0601C176.584 32.0598 176.643 32.0559 176.702 32.0485C177.054 32.0333 177.405 32.0793 177.741 32.1846C178.016 32.2771 178.278 32.4069 178.518 32.5705C178.592 32.62 178.663 32.6734 178.731 32.7307C178.799 32.7868 178.863 32.8483 178.921 32.9145C178.944 32.9537 178.977 32.9863 179.017 33.0093C179.079 33.0964 179.139 33.1856 179.194 33.2763C179.249 33.3675 179.309 33.4602 179.372 33.5554C179.411 33.6258 179.445 33.6991 179.473 33.7746C179.501 33.8501 179.53 33.9312 179.562 34.0179C179.602 34.122 179.634 34.2291 179.657 34.3383C179.681 34.4491 179.708 34.5599 179.74 34.6707C179.756 34.7387 179.762 34.8087 179.758 34.8783C179.753 34.948 179.759 35.018 179.775 35.0859L179.775 35.2164ZM177.996 34.5162C178.023 34.4733 178.04 34.424 178.043 34.3731C178.046 34.3222 178.036 34.2714 178.014 34.2255C177.97 34.111 177.936 34.026 177.912 33.9705C177.813 33.7699 177.662 33.5998 177.474 33.4782C177.242 33.3504 176.979 33.2869 176.714 33.2944C176.702 33.3022 176.689 33.3073 176.674 33.3093C176.66 33.3113 176.645 33.3102 176.632 33.306C176.604 33.2983 176.575 33.2983 176.548 33.306C176.506 33.3225 176.463 33.3325 176.418 33.3357C176.373 33.3392 176.329 33.3492 176.287 33.3654C176.121 33.4155 175.966 33.4993 175.834 33.6115C175.701 33.7237 175.593 33.8621 175.516 34.0179C175.5 34.0496 175.482 34.0913 175.462 34.1423C175.443 34.1922 175.429 34.2441 175.421 34.2969C175.413 34.3462 175.415 34.3966 175.427 34.4451C175.439 34.4921 175.466 34.534 175.504 34.5639C175.584 34.6073 175.674 34.6277 175.765 34.6229H177.402C177.513 34.6229 177.63 34.6213 177.753 34.6173C177.798 34.622 177.845 34.6152 177.887 34.5975C177.93 34.5799 177.967 34.5519 177.996 34.5162V34.5162Z" fill="#A7A8AA"/>
</svg>
