<?xml version="1.0" encoding="UTF-8"?>
<svg width="181px" height="30px" viewBox="0 0 181 30" version="1.1" xmlns="http://www.w3.org/2000/svg" xmlns:xlink="http://www.w3.org/1999/xlink">
    <!-- Generator: Sketch 55.1 (78136) - https://sketchapp.com -->
    <title>LMI_GoToTraining_Magenta_HEX</title>
    <desc>Created with Sketch.</desc>
    <g id="Page-1" stroke="none" stroke-width="1" fill="none" fill-rule="evenodd">
        <g id="Logos_Colour" transform="translate(-24.000000, -384.000000)">
            <g id="LMI_GoToTraining_Magenta_HEX" transform="translate(24.000000, 384.000000)">
                <path d="M24.6201136,16.8138529 C23.3033588,16.0151324 21.638647,16.0746433 20.3821691,16.9653529 C20.136267,17.1422378 19.8098801,17.1592822 19.5469246,17.0089706 L15.7066452,14.7896706 C15.6767411,14.7723867 15.6583198,14.7404472 15.6583198,14.7058824 C15.6583198,14.6713175 15.6767411,14.639378 15.7066452,14.6220941 L19.5252751,12.4152824 C19.7897421,12.2641713 20.1181557,12.2823409 20.3643746,12.4617059 C21.6197241,13.3624532 23.2902335,13.4287921 24.6129265,12.6304235 C26.3621056,11.5498485 26.9765109,9.29793185 26.0188617,7.47739412 C25.1482234,5.86297017 23.2646771,5.08243015 21.5087802,5.60842018 C19.7528833,6.13441021 18.6073408,7.82233298 18.7658214,9.65008824 C18.7942228,9.95063891 18.6458267,10.2403789 18.385457,10.3927412 L14.5467291,12.6111765 C14.5168235,12.6284565 14.47998,12.6284551 14.4500757,12.6111728 C14.4201715,12.5938905 14.4017489,12.5619525 14.4017469,12.5273882 L14.4017763,8.08867647 C14.4032064,7.78555255 14.5811594,7.511122 14.8571676,7.38639412 C16.5075441,6.62669378 17.4069719,4.81937345 17.0186372,3.04311247 C16.6303026,1.26685149 15.0589506,0.000487423281 13.2424255,0.000487423281 C11.4259004,0.000487423281 9.85417132,1.26584011 9.46530751,3.04198508 C9.07644371,4.81813006 9.97533297,6.6257188 11.6254831,7.38591176 C11.9019665,7.5106198 12.0803676,7.78530465 12.0820262,8.08885294 L12.0820262,12.5274118 C12.0820242,12.561976 12.0636016,12.593914 12.0336973,12.6111963 C12.0037931,12.6284786 11.9669496,12.62848 11.937044,12.6112 L8.09815744,10.3926471 C7.83806215,10.2407475 7.68966328,9.95157366 7.71779886,9.65147059 C7.87451618,7.84057088 6.75068022,6.16466673 5.01698558,5.6239218 C3.28329095,5.08317686 1.40731509,5.82343004 0.508622543,7.40290529 C-0.390070004,8.98238054 -0.0691018553,10.9750934 1.27997625,12.1918117 C2.62905436,13.4085301 4.64239606,13.5211051 6.11845818,12.4623529 C6.3648718,12.2826081 6.69368313,12.2642038 6.95858026,12.4153294 L10.7771102,14.6220824 C10.8070143,14.6393662 10.8254357,14.6713057 10.8254357,14.7058706 C10.8254357,14.7404355 10.8070143,14.772375 10.7771102,14.7896588 L6.936825,17.0089706 C6.67387168,17.1592826 6.34748616,17.1422382 6.1015864,16.9653529 C4.84510846,16.0746433 3.1803967,16.0151324 1.86364182,16.8138529 C0.119394752,17.8965037 -0.49140408,20.1450158 0.464976071,21.9627118 C1.33802684,23.580689 3.22792456,24.3603444 4.98635686,23.8279549 C6.74478916,23.2955655 7.88617893,21.5981464 7.7170114,19.7670588 C7.68666078,19.4650331 7.83510518,19.1730405 8.09689396,19.0198235 L11.937044,16.8005882 C11.9669491,16.7833043 12.0037947,16.7833037 12.0337003,16.8005868 C12.0636059,16.8178699 12.0820278,16.8498107 12.0820262,16.8843765 L12.0820262,21.3230882 C12.0805966,21.6262 11.9026502,21.9006195 11.6266525,22.0253412 C9.97625036,22.7850228 9.0767898,24.592347 9.46510614,26.3686279 C9.85342249,28.1449087 11.4247751,29.4113174 13.2413157,29.4113174 C15.0578563,29.4113174 16.6296091,28.1459818 17.0184869,26.369824 C17.4073647,24.5936662 16.5084755,22.7860573 14.8583135,22.0258529 C14.5818311,21.9011437 14.4034304,21.6264596 14.4017704,21.3229118 L14.4017704,16.8843588 C14.4017688,16.849793 14.4201907,16.8178523 14.4500963,16.8005692 C14.4800019,16.7832861 14.5168475,16.7832866 14.5467526,16.8005706 L18.3869026,19.0198235 C18.6486892,19.1730426 18.7971328,19.4650336 18.7667852,19.7670588 C18.5976177,21.5981464 19.7390074,23.2955655 21.4974397,23.8279549 C23.255872,24.3603444 25.1457698,23.580689 26.0188205,21.9627118 C26.9751932,20.1450055 26.3643756,17.8964904 24.6201136,16.8138529 Z" id="Path" fill="#992977"></path>
                <path d="M47.517642,13.7758824 L41.7616951,13.7758824 C41.4168241,13.7345849 41.0718518,13.8520835 40.8237188,14.09536 C40.5755857,14.3386364 40.4510727,14.681434 40.4851691,15.0274235 L40.4851691,15.6007235 C40.4511477,15.9466941 40.5756849,16.2894453 40.8237998,16.5327028 C41.0719147,16.7759603 41.4168416,16.8934825 41.7616951,16.8522588 L44.9133282,16.8522588 L44.9133282,19.6678353 C43.9259143,20.1572923 42.8373065,20.4073428 41.7354913,20.3977765 C40.1690442,20.4710727 38.6436027,19.8838975 37.529815,18.7789212 C36.4160273,17.6739449 35.8158451,16.1523126 35.8750991,14.5837471 C35.833785,13.0521106 36.4144507,11.5691185 37.4844762,10.4734762 C38.5545016,9.37783382 40.0224987,8.76311723 41.5531867,8.76972353 C42.7458554,8.71412726 43.932023,8.97498971 44.9915696,9.52589412 C45.7207939,9.86501765 46.2677078,9.81295294 46.7363861,9.16092941 L47.3873691,8.32681176 C47.6271583,8.07227426 47.7322757,7.71906138 47.6707295,7.3746705 C47.6091834,7.03027961 47.388254,6.73544826 47.0751793,6.57990588 C45.3995684,5.60956356 43.4883683,5.12231826 41.5531867,5.17211765 C35.8492772,5.17211765 31.7337016,9.44795294 31.7337016,14.6099706 C31.7337016,19.7202941 35.7710359,23.9957547 41.6576378,23.9957547 C43.9406205,23.9994037 46.1625656,23.2579898 47.9867082,21.8838706 C48.5176315,21.5337921 48.8245828,20.9292487 48.7941563,20.2935941 L48.7941563,15.0274059 C48.8283057,14.6814069 48.7038106,14.3385805 48.4556666,14.0952944 C48.2075225,13.8520083 47.8625212,13.73453 47.517642,13.7758824 Z" id="Path" fill="#53565A"></path>
                <path d="M58.1199227,10.0212471 C53.8748439,10.0212471 50.6970128,13.1500706 50.6970128,17.0088941 C50.6970128,20.8931412 53.8748439,23.9957529 58.1199227,23.9957529 C62.3657831,23.9957529 65.5432146,20.8672941 65.5432146,17.0088941 C65.5432146,13.1500941 62.3657655,10.0212471 58.1199227,10.0212471 Z M58.1199227,20.7368765 C56.606785,20.7853805 55.2157301,19.9095514 54.6041725,18.5233073 C53.9926149,17.1370632 54.2830162,15.517993 55.3381324,14.4312718 C56.3932486,13.3445506 58.0017975,13.0077892 59.4035765,13.5801416 C60.8053555,14.1524939 61.7196648,15.5193492 61.7144006,17.0347294 C61.7429543,18.0070104 61.3768456,18.949407 60.6995856,19.6469537 C60.0223256,20.3445004 59.091676,20.7377054 58.1199227,20.7368765 Z" id="Shape" fill="#53565A" fill-rule="nonzero"></path>
                <path d="M77.7858666,7.70104118 L77.7858666,6.7103 C77.8199783,6.36437659 77.6955254,6.02163226 77.447474,5.77836419 C77.1994226,5.53509613 76.8545394,5.41755486 76.5097225,5.45876471 L64.0593084,5.45876471 C63.7170132,5.41866235 63.3752079,5.53758172 63.1315513,5.7815458 C62.8878947,6.02550987 62.7691892,6.36768254 62.8093506,6.7103 L62.8093506,7.70104118 C62.7691892,8.04365864 62.8878947,8.38583131 63.1315513,8.62979538 C63.3752079,8.87375945 63.7170132,8.99267883 64.0593084,8.95257647 L68.2269157,8.95257647 L68.2269157,22.4575471 C68.186778,22.8002244 68.305543,23.1424416 68.549274,23.3864113 C68.793005,23.6303811 69.1348882,23.7492635 69.477232,23.7090882 L71.0401494,23.7090882 C71.3824784,23.7491971 71.7243218,23.6302934 71.9680376,23.38634 C72.2117534,23.1423866 72.3305413,22.8002098 72.2904715,22.4575471 L72.2904715,8.95257647 L76.5097225,8.95257647 C76.8545394,8.99378631 77.1994226,8.87624505 77.447474,8.63297698 C77.6955254,8.38970892 77.8199783,8.04696459 77.7858666,7.70104118 L77.7858666,7.70104118 Z" id="Path" fill="#53565A"></path>
                <path d="M82.4749536,10.0212471 C78.2298748,10.0212471 75.0520437,13.1500706 75.0520437,17.0088941 C75.0520437,20.8931412 78.2298748,23.9957529 82.4749536,23.9957529 C86.720814,23.9957529 89.8982455,20.8672941 89.8982455,17.0088941 C89.8982455,13.1500941 86.7207964,10.0212471 82.4749536,10.0212471 Z M82.4749536,20.7368765 C80.961816,20.7853805 79.570761,19.9095514 78.9592034,18.5233073 C78.3476458,17.1370632 78.6380472,15.517993 79.6931633,14.4312718 C80.7482795,13.3445506 82.3568284,13.0077892 83.7586074,13.5801416 C85.1603864,14.1524939 86.0746957,15.5193492 86.0694315,17.0347294 C86.0979852,18.0070104 85.7318765,18.949407 85.0546165,19.6469537 C84.3773565,20.3445004 83.4467069,20.7377054 82.4749536,20.7368765 Z" id="Shape" fill="#53565A" fill-rule="nonzero"></path>
                <path d="M102.193305,6.47573529 L102.193305,6.16284706 C102.211946,5.97099139 102.143846,5.78085165 102.007672,5.64455253 C101.871499,5.50825342 101.681541,5.44009593 101.489873,5.45876471 L88.154193,5.45876471 C87.9625309,5.44010725 87.7725831,5.50826975 87.6364182,5.64456742 C87.5002533,5.78086509 87.4321571,5.97099814 87.4507964,6.16284706 L87.4507964,6.47573529 C87.4378224,6.66389298 87.5087378,6.84814539 87.6444763,6.97895466 C87.7802149,7.10976392 87.9668463,7.17370554 88.154193,7.15358824 L93.7802489,7.15358824 L93.7802489,23.005 C93.7615932,23.1967849 93.8296289,23.3868669 93.9657124,23.5231582 C94.1017958,23.6594495 94.2916552,23.7276564 94.4832635,23.7090882 L95.1346343,23.7090882 C95.3262426,23.7276564 95.5161019,23.6594495 95.6521854,23.5231582 C95.7882689,23.3868669 95.8563046,23.1967849 95.8376489,23.005 L95.8376489,7.15358824 L101.489915,7.15358824 C101.67726,7.17370152 101.863888,7.10975835 101.999625,6.97894981 C102.135362,6.84814127 102.206277,6.66389127 102.193305,6.47573529 Z" id="Path" fill="#53565A"></path>
                <path d="M108.002447,10.4649176 C107.79523,10.4355098 107.586502,10.417991 107.377286,10.4124471 C105.475611,10.4124471 104.069182,11.7419235 103.574682,13.8537941 L103.574682,11.4032059 C103.593218,11.2113446 103.525017,11.0212463 103.388775,10.8850221 C103.252534,10.748798 103.062545,10.6807404 102.870892,10.6995059 L102.27194,10.6995059 C102.085281,10.6909124 101.903972,10.7632351 101.774377,10.8979795 C101.644783,11.032724 101.579468,11.2168255 101.595135,11.4032059 L101.595135,23.005 C101.574951,23.1924813 101.638746,23.3792849 101.769362,23.515166 C101.899978,23.6510471 102.084003,23.7220541 102.27194,23.7090882 L102.87088,23.7090882 C103.062596,23.7278218 103.252627,23.6596982 103.388872,23.5233951 C103.525118,23.387092 103.59328,23.1969129 103.57467,23.005 L103.57467,18.7554 C103.600492,13.8021 105.580039,12.3418706 107.247001,12.3418706 C107.482078,12.3471283 107.716728,12.3645121 107.950016,12.3939529 C108.288809,12.4981176 108.471114,12.2897882 108.471114,11.7944176 L108.471114,11.2465824 C108.471114,10.8557353 108.392884,10.5428529 108.002447,10.4649176 Z" id="Path" fill="#53565A"></path>
                <path d="M121.781407,10.6994882 L121.182068,10.6994882 C120.99411,10.6863045 120.809979,10.757172 120.679262,10.8930055 C120.548545,11.0288389 120.484683,11.2156717 120.504875,11.4031882 L120.504875,13.2804941 C119.463157,11.4539447 117.500206,10.3511276 115.399917,10.4124471 C111.414979,10.4124471 108.914364,13.4888294 108.914364,17.2172118 C108.914364,20.9455941 111.466652,23.9957353 115.399917,23.9957353 C117.497294,24.0731491 119.464104,22.9782712 120.504875,21.1539235 L120.504875,23.005 C120.480197,23.1935435 120.542542,23.383086 120.674297,23.5200737 C120.806052,23.6570614 120.992907,23.7266171 121.182068,23.7090882 L121.781407,23.7090882 C121.973016,23.7276564 122.162875,23.6594495 122.298958,23.5231582 C122.435042,23.3868669 122.503078,23.1967849 122.484422,23.005 L122.484422,11.4031882 C122.502995,11.2114571 122.434918,11.0214612 122.29884,10.8852509 C122.162763,10.7490407 121.972952,10.680897 121.781407,10.6994882 L121.781407,10.6994882 Z M115.634254,22.2229824 C112.639115,22.2229824 110.893911,19.9548588 110.893911,17.2172118 C110.893911,14.4795647 112.612905,12.1855941 115.608432,12.1855941 C118.551539,12.1855941 120.531085,14.3491647 120.531085,17.2172118 C120.598735,18.5461931 120.108164,19.842953 119.178065,20.7937442 C118.247965,21.7445355 116.963069,22.262741 115.634254,22.2229824 Z" id="Shape" fill="#53565A" fill-rule="nonzero"></path>
                <path d="M127.564716,10.6994882 L126.965764,10.6994882 C126.775268,10.685239 126.588023,10.7547742 126.452906,10.8899426 C126.317789,11.025111 126.24821,11.2124978 126.262333,11.4031882 L126.262333,23.005 C126.24369,23.1968566 126.31179,23.3869981 126.447963,23.5232986 C126.584136,23.6595991 126.774095,23.7277573 126.965764,23.7090882 L127.564716,23.7090882 C127.752691,23.7220731 127.936763,23.6510871 128.067445,23.5152153 C128.198127,23.3793436 128.262006,23.1925298 128.241908,23.005 L128.241908,11.4031882 C128.261925,11.2157119 128.198005,11.0289832 128.067329,10.893192 C127.936652,10.7574008 127.752627,10.6864786 127.564716,10.6994882 L127.564716,10.6994882 Z" id="Path" fill="#53565A"></path>
                <path d="M127.252132,4.88546471 C126.654544,4.86944543 126.106617,5.21675816 125.865587,5.76434978 C125.624558,6.3119414 125.738293,6.95106159 126.153398,7.3816622 C126.568503,7.81226282 127.202539,7.94882766 127.757844,7.72724355 C128.31315,7.50565944 128.679443,6.96993242 128.684759,6.37157059 C128.701063,5.98170909 128.557106,5.60218048 128.286419,5.32138886 C128.015732,5.04059725 127.641948,4.88305719 127.252132,4.88546471 Z" id="Path" fill="#53565A"></path>
                <path d="M138.530454,10.4124471 C136.515528,10.326439 134.67906,11.5626297 133.998619,13.4629824 L133.998619,11.4031882 C134.017171,11.2113875 133.949027,11.0213374 133.812861,10.8851201 C133.676696,10.7489028 133.48679,10.6808049 133.295187,10.6994882 L132.696236,10.6994882 C132.509538,10.6908771 132.328182,10.7631797 132.198522,10.8979151 C132.068862,11.0326505 132.003463,11.2167614 132.019043,11.4031882 L132.019043,23.005 C131.998946,23.1925298 132.062825,23.3793436 132.193507,23.5152153 C132.324188,23.6510871 132.508261,23.7220731 132.696236,23.7090882 L133.295187,23.7090882 C133.486856,23.7277573 133.676816,23.6595991 133.812989,23.5232986 C133.949162,23.3869981 134.017262,23.1968566 133.998619,23.005 L133.998619,17.3997059 C134.024441,13.2021882 136.967936,12.1855882 138.400175,12.1855882 C140.041316,12.1855882 141.682075,13.1763235 141.682075,16.3306353 L141.682075,23.005 C141.663432,23.1968566 141.731532,23.3869981 141.867706,23.5232986 C142.003879,23.6595991 142.193838,23.7277573 142.385507,23.7090882 L142.984458,23.7090882 C143.176127,23.7277573 143.366086,23.6595991 143.50226,23.5232986 C143.638433,23.3869981 143.706533,23.1968566 143.68789,23.005 L143.68789,16.3306412 C143.687831,12.0289588 141.291656,10.4124471 138.530454,10.4124471 Z" id="Path" fill="#53565A"></path>
                <path d="M148.559217,10.6994882 L147.960272,10.6994882 C147.769818,10.6852637 147.582626,10.7548219 147.44758,10.8899986 C147.312534,11.0251752 147.243042,11.2125486 147.257251,11.4031882 L147.257251,23.005 C147.238529,23.196802 147.306544,23.386925 147.442645,23.5232323 C147.578746,23.6595396 147.768646,23.7277242 147.960272,23.7090882 L148.559217,23.7090882 C148.747247,23.722156 148.931405,23.651211 149.062167,23.5153328 C149.192928,23.3794546 149.256869,23.1925925 149.236792,23.005 L149.236792,11.4031882 C149.25679,11.2156488 149.192809,11.0288704 149.062053,10.8930723 C148.931296,10.7572742 148.747184,10.6863936 148.559217,10.6994882 Z" id="Path" fill="#53565A"></path>
                <path d="M148.247027,4.88546471 C147.649409,4.86928688 147.101366,5.21649548 146.860213,5.76407046 C146.619061,6.31164544 146.732697,6.95082669 147.147767,7.38150828 C147.562838,7.81218988 148.196901,7.94882922 148.752254,7.72727195 C149.307608,7.50571467 149.673945,6.96996679 149.679266,6.37157059 C149.69559,5.98177083 149.551692,5.60229068 149.281085,5.32150625 C149.010478,5.04072181 148.636783,4.88314184 148.247027,4.88546471 L148.247027,4.88546471 Z" id="Path" fill="#53565A"></path>
                <path d="M159.524955,10.4124471 C157.510031,10.3264397 155.673565,11.5626307 154.993127,13.4629824 L154.993127,11.4031882 C155.011677,11.2113931 154.943536,11.0213487 154.807378,10.8851325 C154.671219,10.7489164 154.481322,10.6808143 154.289724,10.6994882 L153.690773,10.6994882 C153.504075,10.6908752 153.322717,10.7631771 153.193056,10.897913 C153.063396,11.0326489 152.997998,11.2167609 153.01358,11.4031882 L153.01358,23.005 C152.993483,23.1925298 153.057362,23.3793436 153.188044,23.5152153 C153.318725,23.6510871 153.502798,23.7220731 153.690773,23.7090882 L154.289724,23.7090882 C154.481388,23.7277479 154.671339,23.6595854 154.807506,23.5232862 C154.943672,23.3869869 155.011768,23.196851 154.993127,23.005 L154.993127,17.3997059 C155.018949,13.2021882 157.962443,12.1855882 159.394682,12.1855882 C161.035823,12.1855882 162.676583,13.1763235 162.676583,16.3306353 L162.676583,23.005 C162.65794,23.1968566 162.726039,23.3869981 162.862213,23.5232986 C162.998386,23.6595991 163.188345,23.7277573 163.380014,23.7090882 L163.978948,23.7090882 C164.170611,23.727746 164.36056,23.6595827 164.496725,23.5232837 C164.632891,23.3869846 164.700986,23.1968499 164.682345,23.005 L164.682345,16.3306412 C164.682333,12.0289588 162.286146,10.4124471 159.524955,10.4124471 Z" id="Path" fill="#53565A"></path>
                <path d="M180.050402,10.6994882 L179.451451,10.6994882 C179.263493,10.6863045 179.079361,10.757172 178.948645,10.8930055 C178.817928,11.0288389 178.754066,11.2156717 178.774258,11.4031882 L178.774258,13.2804941 C177.732607,11.4538765 175.769612,10.3510343 173.6693,10.4124471 C169.684003,10.4124471 167.183747,13.4888294 167.183747,17.2172118 C167.183747,20.9455941 169.736417,23.9957353 173.6693,23.9957353 C175.766676,24.0731477 177.733486,22.9782702 178.774258,21.1539235 L178.774258,23.3962 C178.774258,26.3684176 176.846726,28.0890882 174.033909,28.0890882 C172.578131,28.129517 171.143995,27.7296597 169.918728,26.9417176 C169.501693,26.6554529 169.189115,26.7071471 168.980983,27.1508176 L168.798678,27.4633176 C168.692816,27.6171814 168.655132,27.8079759 168.694538,27.9905874 C168.733944,28.1731989 168.846941,28.3314145 169.006811,28.4278235 C170.492441,29.4156526 172.251844,29.9084896 174.033909,29.8359941 C177.706247,29.8359941 180.753828,27.7241176 180.753828,23.5528353 L180.753828,11.4031882 C180.772379,11.2113886 180.704236,11.0213397 180.568072,10.8851226 C180.431908,10.7489055 180.242004,10.6808068 180.050402,10.6994882 L180.050402,10.6994882 Z M173.903636,22.2229824 C170.908498,22.2229824 169.163293,19.9548588 169.163293,17.2172118 C169.163293,14.4795647 170.882288,12.1855941 173.877427,12.1855941 C176.820922,12.1855941 178.800468,14.3491647 178.800468,17.2172118 C178.868183,18.5462106 178.377633,19.8430085 177.447519,20.7938146 C176.517405,21.7446207 175.232471,22.2628057 173.903636,22.2229824 Z" id="Shape" fill="#53565A" fill-rule="nonzero"></path>
            </g>
        </g>
    </g>
</svg>