<svg xmlns="http://www.w3.org/2000/svg" width="115" height="115" viewBox="0 0 115 115">
    <g fill="none" fill-rule="evenodd">
        <circle cx="57.5" cy="57.5" r="57.5" fill="#0097E1"/>
        <g stroke="#FFF" stroke-linecap="round" stroke-linejoin="round" stroke-width="2">
            <path d="M19.078 22.56c3.564-4.599 9.144-7.563 15.423-7.563 6.267 0 11.85 2.961 15.414 7.563" transform="translate(23 26)"/>
            <path d="M13.459 17.57C18.406 11.428 25.989 7.498 34.5 7.498c8.49 0 16.065 3.918 21.018 10.044" transform="translate(23 26)"/>
            <path d="M7.456 13.068C13.771 5.103 23.533 0 34.501 0 45.475 0 55.25 5.118 61.567 13.101" transform="translate(23 26)"/>
            <g>
                <g>
                    <path d="M14.848 19.95c0 .859-.585 2.187-1.758 3.982-7.517 1.49-11.764 3.572-12.74 6.245-.3.82-.407 2.204-.321 4.154M22.392 19.95c0 .859.587 2.187 1.758 3.982 7.518 1.49 11.766 3.572 12.74 6.245.306.835.411 2.257.316 4.267" transform="translate(23 26) translate(0 24) translate(15.5)"/>
                    <path d="M26.6 9.693c0 5.88-3.465 11.587-7.314 11.587-3.85 0-7.316-5.708-7.316-11.587C11.97 3.82 14.247 0 19.286 0 24.323 0 26.6 3.813 26.6 9.693h0z" transform="translate(23 26) translate(0 24) translate(15.5)"/>
                </g>
                <g>
                    <path d="M6.164 15c0 .646-.44 1.644-1.322 2.994-1.569.31-2.949.656-4.139 1.036M11.836 15c0 .646.441 1.644 1.322 2.994 5.653 1.12 8.847 2.686 9.58 4.696.318.869.347 2.587.086 5.153" transform="translate(23 26) translate(0 24) translate(46 6)"/>
                    <path d="M15 7.288C15 11.708 12.395 16 9.5 16 6.607 16 4 11.709 4 7.288 4 2.872 5.712 0 9.5 0 13.289 0 15 2.867 15 7.288h0z" transform="translate(23 26) translate(0 24) translate(46 6)"/>
                </g>
                <g>
                    <path d="M6.164 15c0 .646-.44 1.644-1.322 2.994-1.569.31-2.949.656-4.139 1.036M11.836 15c0 .646.441 1.644 1.322 2.994 5.653 1.12 8.847 2.686 9.58 4.696.318.869.347 2.587.086 5.153" transform="translate(23 26) translate(0 24) matrix(-1 0 0 1 23 6)"/>
                    <path d="M15 7.288C15 11.708 12.395 16 9.5 16 6.607 16 4 11.709 4 7.288 4 2.872 5.712 0 9.5 0 13.289 0 15 2.867 15 7.288h0z" transform="translate(23 26) translate(0 24) matrix(-1 0 0 1 23 6)"/>
                </g>
            </g>
            <path d="M19 22.563C22.564 17.964 28.144 15 34.423 15c6.267 0 11.85 2.961 15.414 7.563" transform="translate(23 26)"/>
            <path d="M13 17.071C17.947 10.93 25.531 7 34.042 7c8.49 0 16.065 3.918 21.018 10.044" transform="translate(23 26)"/>
            <path d="M7 13.068C13.315 5.103 23.077 0 34.045 0c10.974 0 20.748 5.118 27.066 13.101" transform="translate(23 26)"/>
        </g>
    </g>
</svg>
