<svg id="computer_access" data-name="computer access" xmlns="http://www.w3.org/2000/svg" viewBox="0 0 60 60"><defs><style>.cls-1{fill:#2a969d;}</style></defs><title>multi-monitor-nav-g2a</title><path class="cls-1" d="M30.13,34.88a0.75,0.75,0,0,0,.16.24l1.64,1.64A0.75,0.75,0,1,0,33,35.7l-0.36-.36h3.71v3.71L36,38.7a0.75,0.75,0,0,0-1.06,1.06l1.64,1.64a0.75,0.75,0,0,0,1.06,0l1.64-1.64A0.75,0.75,0,0,0,38.2,38.7l-0.36.36V35.34h3.71l-0.36.36a0.75,0.75,0,1,0,1.06,1.06l1.64-1.64a0.75,0.75,0,0,0,0-1.06l-1.64-1.64a0.75,0.75,0,0,0-1.06,1.06l0.36,0.36H37.84V30.13l0.36,0.36a0.75,0.75,0,0,0,1.06-1.06l-1.64-1.64a0.75,0.75,0,0,0-1.06,0l-1.64,1.64A0.75,0.75,0,0,0,36,30.49l0.36-.36v3.71H32.63L33,33.49a0.75,0.75,0,0,0-1.06-1.06l-1.64,1.64A0.75,0.75,0,0,0,30.13,34.88Z"/><path class="cls-1" d="M16.15,23.87H7.55a1.29,1.29,0,0,1-1.2-1.36V21.15H30.92a0.75,0.75,0,0,0,.75-0.75V7.73A2.79,2.79,0,0,0,29,4.87H7.55a2.79,2.79,0,0,0-2.7,2.86V22.51a2.79,2.79,0,0,0,2.7,2.86h8.6A0.75,0.75,0,0,0,16.15,23.87ZM7.55,6.37H29a1.29,1.29,0,0,1,1.2,1.36V19.65H6.35V7.73A1.29,1.29,0,0,1,7.55,6.37Z"/><path class="cls-1" d="M16.15,28.09H9.82a0.75,0.75,0,0,0,0,1.5h6.33A0.75,0.75,0,0,0,16.15,28.09Z"/><path class="cls-1" d="M50.76,23.87h-27a4.36,4.36,0,0,0-4.13,4.55V46.14a4.36,4.36,0,0,0,4.13,4.55H36.51v2.72H28.81a0.75,0.75,0,1,0,0,1.5H45.7a0.75,0.75,0,0,0,0-1.5H38V50.69H50.76a4.36,4.36,0,0,0,4.13-4.55V28.42A4.36,4.36,0,0,0,50.76,23.87Zm-27,1.5h27a2.86,2.86,0,0,1,2.63,3V42.86h-32a0.74,0.74,0,0,0-.31.07V28.42A2.86,2.86,0,0,1,23.75,25.37Zm27,23.82h-27a2.86,2.86,0,0,1-2.63-3V44.29a0.74,0.74,0,0,0,.31.07h32v1.78A2.86,2.86,0,0,1,50.76,49.19Z"/><circle class="cls-1" cx="37.26" cy="46.78" r="1.06"/></svg>