<?xml version="1.0" encoding="UTF-8"?>
<svg width="194px" height="30px" viewBox="0 0 194 30" version="1.1" xmlns="http://www.w3.org/2000/svg" xmlns:xlink="http://www.w3.org/1999/xlink">
    <!-- Generator: Sketch 55.1 (78136) - https://sketchapp.com -->
    <title>LMI_GoToWebinar_Blue_HEX</title>
    <desc>Created with Sketch.</desc>
    <g id="Page-1" stroke="none" stroke-width="1" fill="none" fill-rule="evenodd">
        <g id="Logos_Colour" transform="translate(-24.000000, -444.000000)">
            <g id="LMI_GoToWebinar_Blue_HEX" transform="translate(24.000000, 444.000000)">
                <g id="Group" transform="translate(32.433437, 4.800000)" fill="#53565A">
                    <path d="M16.132031,9.2514 L10.2489659,9.2514 C9.42371517,9.2514 8.94442105,9.7038 8.94442105,10.5282 L8.94442105,11.1132 C8.94442105,11.9376 9.42371517,12.39 10.2489659,12.39 L13.4700867,12.39 L13.4700867,15.2622 C12.5114985,15.7674 11.3138638,16.0068 10.2219381,16.0068 C6.38878638,16.0068 4.23256347,13.2144 4.23256347,10.0764 C4.23256347,6.7788 6.70831579,4.146 10.0357461,4.146 C11.100644,4.146 12.1391146,4.1994 13.549969,4.917 C14.2953375,5.2626 14.8545139,5.2098 15.3332074,4.545 L15.9986935,3.6942 C16.4779876,3.0294 16.3981053,2.3646 15.6797647,1.9122 C14.056291,0.9552 12.2454241,0.4764 10.0363467,0.4764 C4.20613622,0.4758 0,4.8372 0,10.1022 C0,15.3144 4.12625387,19.6758 10.1426563,19.6758 C12.3517337,19.6758 14.6142663,19.011 16.6113251,17.5218 C17.2239567,17.0694 17.4365759,16.5642 17.4365759,15.9 L17.4365759,10.5282 C17.4365759,9.7032 16.9572817,9.2514 16.132031,9.2514 Z" id="Path"></path>
                    <path d="M26.9678019,5.4222 C22.6289288,5.4222 19.3813808,8.6136 19.3813808,12.549 C19.3813808,16.5114 22.6295294,19.6758 26.9678019,19.6758 C31.3072755,19.6758 34.5548235,16.4844 34.5548235,12.549 C34.5548235,8.6136 31.3072755,5.4222 26.9678019,5.4222 Z M26.9678019,16.3518 C24.8920619,16.3518 23.2944149,14.703 23.2944149,12.5754 C23.2944149,10.4214 24.8920619,8.7726 26.9678019,8.7726 C29.0177152,8.7726 30.6417895,10.4214 30.6417895,12.5754 C30.6417895,14.703 29.0177152,16.3518 26.9678019,16.3518 Z" id="Shape" fill-rule="nonzero"></path>
                    <path d="M47.0675232,3.0552 L47.0675232,2.0448 C47.0675232,1.2204 46.5882291,0.7686 45.7629783,0.7686 L33.0382601,0.7686 C32.2136099,0.7686 31.760743,1.2204 31.760743,2.0448 L31.760743,3.0552 C31.760743,3.8796 32.2136099,4.332 33.0382601,4.332 L37.2978514,4.332 L37.2978514,18.1068 C37.2978514,18.9312 37.7507183,19.3836 38.575969,19.3836 L40.1736161,19.3836 C40.9982663,19.3836 41.4517337,18.9312 41.4517337,18.1068 L41.4517337,4.3314 L45.7641796,4.3314 C46.5882291,4.3314 47.0675232,3.8796 47.0675232,3.0552 Z" id="Path"></path>
                    <path d="M51.8598638,5.4222 C47.5209907,5.4222 44.2734427,8.6136 44.2734427,12.549 C44.2734427,16.5114 47.5215913,19.6758 51.8598638,19.6758 C56.1993375,19.6758 59.4468854,16.4844 59.4468854,12.549 C59.4468854,8.6136 56.1993375,5.4222 51.8598638,5.4222 Z M51.8598638,16.3518 C49.7841238,16.3518 48.1864768,14.703 48.1864768,12.5754 C48.1864768,10.4214 49.7841238,8.7726 51.8598638,8.7726 C53.9097771,8.7726 55.5338514,10.4214 55.5338514,12.5754 C55.5332508,14.703 53.9097771,16.3518 51.8598638,16.3518 Z" id="Shape" fill-rule="nonzero"></path>
                    <path d="M83.3797585,0.768 L82.7406997,0.768 C82.3142601,0.768 82.0487864,0.954 81.9418762,1.353 L77.2834737,15.9528 L72.9181734,1.965 C72.8112632,1.566 72.5457895,1.38 72.1193498,1.38 L71.5866006,1.38 C71.1877895,1.38 70.8946873,1.566 70.7883777,1.965 L66.4224768,15.9528 L61.7905015,1.353 C61.6571641,0.954 61.3910898,0.768 60.991678,0.768 L60.3526192,0.768 C59.8468978,0.768 59.6072508,1.0872 59.7405882,1.5924 L65.171387,18.798 C65.3047245,19.197 65.5707988,19.383 65.9702105,19.383 L66.6356966,19.383 C67.0615356,19.383 67.3276099,19.197 67.4339195,18.798 L71.8526749,4.5708 L76.2714303,18.798 C76.4047678,19.197 76.6708421,19.383 77.0702539,19.383 L77.7357399,19.383 C78.1351517,19.383 78.401226,19.197 78.5339628,18.798 L83.9911889,1.5924 C84.1251269,1.0872 83.8854799,0.768 83.3797585,0.768 Z" id="Path"></path>
                    <path d="M90.9151269,5.8206 C86.8153003,5.8206 83.8073994,8.9586 83.8073994,12.8148 C83.8073994,16.5642 86.6819628,19.6758 91.2610836,19.6758 C92.9380124,19.6758 94.7482786,19.2504 96.2924706,17.9472 C96.7453375,17.5746 96.7453375,17.1492 96.4522353,16.83 L96.2390155,16.6176 C95.9465139,16.3248 95.5999567,16.2984 95.254,16.5378 C94.0299381,17.4684 92.6725387,17.8674 91.2610836,17.8674 C87.9871084,17.8674 85.6705201,15.687 85.8573127,12.735 L96.8510464,12.735 C97.3303406,12.735 97.6228421,12.4692 97.5429598,12.0168 C97.1976037,7.7622 94.1626749,5.8206 90.9151269,5.8206 Z M86.0435046,11.166 C86.8153003,8.7192 88.8922415,7.629 90.968582,7.629 C92.8052755,7.629 94.8816161,8.427 95.4942477,11.166 L86.0435046,11.166 Z" id="Shape" fill-rule="nonzero"></path>
                    <path d="M107.341461,5.8206 C105.238693,5.8206 103.348545,6.7248 102.15091,8.7192 L102.15091,0.8742 C102.15091,0.4224 101.884836,0.156 101.431969,0.156 L100.819938,0.156 C100.394099,0.156 100.128025,0.4218 100.128025,0.8742 L100.128025,18.6648 C100.128025,19.1166 100.394099,19.383 100.819938,19.383 L101.431969,19.383 C101.884836,19.383 102.15091,19.1172 102.15091,18.6648 L102.15091,16.7766 C103.348545,18.7974 105.238693,19.6752 107.341461,19.6752 C111.387833,19.6752 113.996923,16.5636 113.996923,12.7608 C113.996322,8.9322 111.387833,5.8206 107.341461,5.8206 Z M107.128241,17.8674 C104.199622,17.8674 102.123282,15.7398 102.096854,12.7614 C102.123282,9.7566 104.199622,7.629 107.128241,7.629 C110.16317,7.629 111.946409,9.9426 111.946409,12.7614 C111.947009,15.5538 110.16317,17.8674 107.128241,17.8674 Z" id="Shape" fill-rule="nonzero"></path>
                    <path d="M117.857703,0.183 C117.005424,0.183 116.393393,0.8214 116.393393,1.6986 C116.393393,2.5494 117.005424,3.1878 117.857703,3.1878 C118.682353,3.1878 119.321412,2.5494 119.321412,1.6986 C119.321412,0.8214 118.682353,0.183 117.857703,0.183 Z" id="Path"></path>
                    <path d="M118.176632,6.1134 L117.564601,6.1134 C117.111734,6.1134 116.84626,6.4062 116.84626,6.8316 L116.84626,18.6654 C116.84626,19.1172 117.112334,19.3836 117.564601,19.3836 L118.176632,19.3836 C118.603071,19.3836 118.868546,19.1178 118.868546,18.6654 L118.868546,6.831 C118.869146,6.3792 118.603071,6.1134 118.176632,6.1134 Z" id="Path"></path>
                    <path d="M129.384186,5.8206 C127.414755,5.8206 125.471152,6.831 124.752211,8.9322 L124.752211,6.831 C124.752211,6.3792 124.486136,6.1128 124.033269,6.1128 L123.421238,6.1128 C122.995399,6.1128 122.729325,6.4056 122.729325,6.831 L122.729325,18.6648 C122.729325,19.1166 122.995399,19.383 123.421238,19.383 L124.033269,19.383 C124.486136,19.383 124.752211,19.1172 124.752211,18.6648 L124.752211,12.9474 C124.778638,8.6658 127.787139,7.629 129.250848,7.629 C130.928378,7.629 132.605307,8.6394 132.605307,11.8572 L132.605307,18.6648 C132.605307,19.1166 132.871381,19.383 133.324248,19.383 L133.936279,19.383 C134.389146,19.383 134.65522,19.1172 134.65522,18.6648 L134.65522,11.8572 C134.65522,7.4694 132.206495,5.8206 129.384186,5.8206 Z" id="Path"></path>
                    <path d="M150.362012,6.1134 L149.749981,6.1134 C149.297115,6.1134 149.058068,6.4062 149.058068,6.8316 L149.058068,8.7462 C147.860433,6.7518 145.996712,5.8206 143.840489,5.8206 C139.76709,5.8206 137.212056,8.9586 137.212056,12.7614 C137.212056,16.5642 139.821146,19.6758 143.840489,19.6758 C145.970285,19.6758 147.859833,18.798 149.058068,16.7772 L149.058068,18.6654 C149.058068,19.1172 149.297715,19.3836 149.749981,19.3836 L150.362012,19.3836 C150.814879,19.3836 151.080954,19.1178 151.080954,18.6654 L151.080954,6.831 C151.080954,6.3792 150.814879,6.1134 150.362012,6.1134 Z M144.080136,17.8674 C141.01878,17.8674 139.235542,15.5538 139.235542,12.7614 C139.235542,9.969 140.992353,7.629 144.053709,7.629 C147.062211,7.629 149.085096,9.8364 149.085096,12.7614 C149.084495,15.7398 147.008155,17.8674 144.080136,17.8674 Z" id="Shape" fill-rule="nonzero"></path>
                    <path d="M160.878854,5.874 C160.692663,5.847 160.39956,5.8206 160.239796,5.8206 C158.296793,5.8206 156.85891,7.1766 156.353189,9.3312 L156.353189,6.8316 C156.353189,6.3798 156.087115,6.1134 155.634248,6.1134 L155.022217,6.1134 C154.596378,6.1134 154.330303,6.4062 154.330303,6.8316 L154.330303,18.6654 C154.330303,19.1172 154.596378,19.3836 155.022217,19.3836 L155.634248,19.3836 C156.087115,19.3836 156.353189,19.1178 156.353189,18.6654 L156.353189,14.3304 C156.379616,9.2778 158.402502,7.7886 160.106458,7.7886 C160.319678,7.7886 160.585752,7.815 160.825399,7.842 C161.171356,7.9482 161.357548,7.7358 161.357548,7.2306 L161.357548,6.672 C161.357548,6.273 161.278266,5.9538 160.878854,5.874 Z" id="Path"></path>
                </g>
                <path d="M25.1629412,17.1504 C23.7695046,16.308 22.073356,16.4274 20.8312755,17.3052 C20.5778142,17.484 20.2462724,17.5044 19.9777957,17.3496 L16.0527492,15.0858 C15.9866811,15.048 15.9866811,14.9526 16.0527492,14.9148 L19.9555728,12.6636 C20.2258514,12.5076 20.5597957,12.5298 20.813257,12.711 C22.0541362,13.5984 23.7568916,13.7244 25.1557337,12.8832 C26.9347678,11.8128 27.5804334,9.4518 26.5924149,7.6272 C25.5293189,5.6634 23.0619752,4.9752 21.1399938,6.084 C19.7681796,6.8754 19.0522415,8.364 19.1795728,9.843 C19.206,10.1508 19.0582477,10.446 18.7909721,10.6008 L14.8677276,12.8634 C14.8016594,12.9012 14.7193746,12.8538 14.7193746,12.7782 L14.7193746,8.2506 C14.7193746,7.941 14.9031641,7.6638 15.1848545,7.5342 C16.6749907,6.849 17.6648111,5.2644 17.4581981,3.477 C17.2503839,1.6806 15.7854737,0.225 13.9866192,0.0252 C11.6015604,-0.2394 9.58227864,1.6182 9.58227864,3.9474 C9.58227864,5.538 10.5246502,6.909 11.8814489,7.5336 C12.1637399,7.6632 12.34813,7.9404 12.34813,8.2506 L12.34813,12.7782 C12.34813,12.8544 12.2658452,12.9018 12.1997771,12.8634 L8.27653251,10.6002 C8.00925697,10.446 7.86090402,10.1514 7.88793189,9.8442 C8.0290774,8.2176 7.1497709,6.579 5.49986997,5.8692 C3.84035913,5.1552 1.85050774,5.6946 0.779003096,7.1484 C-0.643863777,9.0792 -0.0426439628,11.7558 1.97663777,12.9204 C3.36286687,13.7196 5.031387,13.5846 6.25364706,12.711 C6.50770898,12.5292 6.84165325,12.507 7.11253251,12.663 L11.015356,14.9136 C11.0814241,14.9514 11.0814241,15.0468 11.015356,15.0846 L7.0903096,17.3484 C6.82183282,17.5032 6.4896904,17.4828 6.23682972,17.304 C4.99534985,16.4268 3.29860062,16.3074 1.90516409,17.1492 C0.131535604,18.2214 -0.510526316,20.5794 0.475690402,22.401 C1.53878638,24.3642 4.00613003,25.0524 5.92811146,23.9436 C7.30713313,23.148 8.02427245,21.648 7.88733127,20.1612 C7.85910217,19.8522 8.00625387,19.554 8.27533127,19.3992 L12.2003777,17.1354 C12.2664458,17.0976 12.3487307,17.145 12.3487307,17.2206 L12.3487307,21.7482 C12.3487307,22.0578 12.1649412,22.335 11.8832508,22.4646 C10.3931146,23.1498 9.40329412,24.7344 9.60990712,26.5218 C9.81772136,28.3182 11.2826316,29.7738 13.0814861,29.9736 C15.4665449,30.2382 17.4858266,28.3806 17.4858266,26.0514 C17.4858266,24.4608 16.5434551,23.0898 15.1866563,22.4652 C14.9043653,22.3356 14.7199752,22.0584 14.7199752,21.7482 L14.7199752,17.2206 C14.7199752,17.1444 14.8022601,17.097 14.8683282,17.1354 L18.7933746,19.3992 C19.062452,19.5546 19.2102043,19.8522 19.1813746,20.1612 C19.0444334,21.648 19.7615728,23.148 21.1405944,23.9436 C23.0625759,25.0524 25.5299195,24.3642 26.5930155,22.401 C27.5786316,20.58 26.9365697,18.2226 25.1629412,17.1504 Z" id="Path" fill="#00C0F3"></path>
            </g>
        </g>
    </g>
</svg>