<svg width="227" height="40" viewBox="0 0 227 40" fill="none" xmlns="http://www.w3.org/2000/svg">
<path d="M19.0537 31.4354C18.7492 31.2489 18.392 31.1668 18.0364 31.2018H9.51133C8.57461 31.258 7.64827 30.981 6.89683 30.4199C6.19198 29.7106 5.8445 28.7222 5.95073 27.7288V5.03238C5.95073 4.57879 5.86934 4.29445 5.70657 4.17936C5.41959 4.03844 5.09941 3.97874 4.78082 4.00673H1.12866C0.830815 3.98317 0.53282 4.05045 0.274122 4.19967C0.0647477 4.42327 -0.0324296 4.72921 0.00962018 5.03238V27.739C0.00667769 28.8438 0.136464 29.945 0.396199 31.019C0.64284 32.0374 1.10794 32.9902 1.7594 33.8116C2.46409 34.6725 3.36852 35.3487 4.39424 35.7817C5.72584 36.3115 7.15288 36.5605 8.58557 36.5129H17.3039C17.846 36.5352 18.3889 36.4943 18.9215 36.391C19.2111 36.3219 19.4819 36.1902 19.715 36.0051C19.8536 35.8265 19.9124 35.5988 19.8777 35.3755C19.8777 35.3755 19.5522 32.8469 19.3996 32.329C19.247 31.8111 19.3386 31.6588 19.0537 31.4354ZM59.1969 24.4589C58.4439 23.8795 57.6158 23.4046 56.735 23.0473C55.8093 22.6615 54.8631 22.2959 53.8967 21.9608C52.9303 21.6257 52.33 21.4022 51.74 21.1484C51.239 20.9399 50.7587 20.6849 50.3056 20.3867C49.9766 20.1805 49.6984 19.9028 49.4917 19.5743C49.3184 19.2455 49.2276 18.8796 49.2272 18.5081C49.2318 17.9059 49.5038 17.3367 49.9699 16.9544C50.659 16.4192 51.5194 16.1521 52.3911 16.2029C53.3539 16.1803 54.3169 16.2381 55.2701 16.3755C56.3253 16.5499 57.3634 16.8149 58.3729 17.1676C58.551 17.2489 58.7488 17.2771 58.9426 17.2488C59.0748 17.2488 59.1867 17.0864 59.2681 16.8426L60.2854 14.2734C60.3413 14.0707 60.3413 13.8567 60.2854 13.654C60.2139 13.4495 60.0528 13.2887 59.848 13.2173C58.665 12.7448 57.4334 12.4042 56.1755 12.2018C54.9211 11.9998 53.6514 11.9081 52.3809 11.9276C51.137 11.9245 49.9006 12.1199 48.7186 12.5065C47.7542 12.8152 46.8593 13.3085 46.0837 13.9586C45.3805 14.5674 44.8359 15.3376 44.4967 16.2029C44.1358 17.06 43.9657 17.9851 43.9982 18.9143C43.9927 19.7273 44.1663 20.5316 44.5069 21.2702C44.8532 21.9664 45.3338 22.5876 45.921 23.0981C46.6177 23.6838 47.3955 24.166 48.2303 24.53C49.2878 25.0183 50.3711 25.4488 51.4755 25.8197C52.7524 26.2213 53.9887 26.7414 55.1683 27.3734C55.8742 27.7519 56.3407 28.4608 56.4084 29.2577C56.4761 30.0547 56.1359 30.8319 55.5041 31.3237C54.6722 31.8857 53.6789 32.1603 52.6759 32.1056C51.4901 32.1083 50.3072 31.9891 49.1458 31.7502C47.8966 31.5122 46.6783 31.134 45.514 30.623C45.1783 30.4808 44.9342 30.4503 44.7917 30.5316C44.5915 30.6527 44.4348 30.834 44.3441 31.0495L43.3268 33.5679C43.2226 33.7444 43.1997 33.9571 43.264 34.1516C43.3284 34.3462 43.4736 34.5035 43.6625 34.5834C44.332 34.9424 45.0336 35.2382 45.7582 35.4669C46.5309 35.7078 47.3196 35.8944 48.1184 36.0254C48.9424 36.1575 49.7562 36.259 50.5701 36.3199C51.3839 36.3809 52.1367 36.5129 52.9099 36.5129C54.1027 36.5031 55.2893 36.3393 56.44 36.0254C57.45 35.7567 58.3994 35.2983 59.2376 34.6748C60.0098 34.0878 60.6305 33.3254 61.0484 32.4509C61.5038 31.4692 61.7199 30.394 61.6791 29.313C61.6917 28.3339 61.4499 27.3682 60.9772 26.5102C60.5251 25.7217 59.9199 25.0312 59.1969 24.4792V24.4589ZM31.9736 11.7042C30.5545 11.7074 29.1373 11.8058 27.7314 11.9987C26.3097 12.1748 24.9133 12.5156 23.5706 13.0142C23.3857 13.0817 23.237 13.2226 23.1599 13.4035C23.0828 13.5843 23.0842 13.789 23.1637 13.9688L23.7944 16.5685C23.817 16.774 23.9334 16.9576 24.1098 17.0661C24.3536 17.122 24.6085 17.1043 24.8422 17.0153C25.8007 16.7287 26.7804 16.5182 27.7721 16.3857C28.8793 16.2105 29.9981 16.1189 31.1191 16.1115C31.9094 16.0907 32.6984 16.19 33.4589 16.406C33.9983 16.5601 34.4888 16.8504 34.8831 17.2488C35.2377 17.5981 35.4908 18.0368 35.6156 18.5182C35.7419 19.0402 35.8034 19.5756 35.7987 20.1126V20.8843H30.7121C29.1548 20.8435 27.6022 21.0738 26.124 21.5647C24.9943 21.9493 23.9556 22.561 23.0721 23.3622C22.3042 24.0754 21.7212 24.964 21.3732 25.9517C21.0283 26.9304 20.8528 27.9606 20.8543 28.9982C20.8508 29.9937 21.0018 30.9837 21.302 31.933C21.6096 32.8657 22.1651 33.6975 22.9093 34.3397C23.8183 35.1001 24.8797 35.6576 26.0223 35.9747C27.6313 36.4196 29.2974 36.6249 30.9665 36.584C31.6888 36.584 32.4517 36.584 33.2452 36.523C34.0387 36.4621 34.8526 36.391 35.6664 36.2692C36.4659 36.1513 37.2575 35.9851 38.0368 35.7716C38.7716 35.5714 39.4894 35.3133 40.1833 34.9998C40.7549 34.7264 41.0958 34.1269 41.0379 33.4968V19.879C41.1958 17.6319 40.4023 15.4216 38.8506 13.786C37.3959 12.3948 35.1069 11.7042 31.9736 11.7042ZM35.7173 31.608C35.3021 31.7686 34.873 31.8909 34.4355 31.9736C33.9675 32.065 33.5199 32.1361 33.1028 32.197C32.7051 32.2571 32.3043 32.2943 31.9024 32.3087H31.0275C29.82 32.3606 28.6201 32.0945 27.5483 31.5369C26.6339 30.9427 26.1277 29.889 26.236 28.8052C26.1924 28.0587 26.3731 27.3162 26.7548 26.6727C27.0829 26.1708 27.5348 25.7617 28.0671 25.4845C28.5863 25.2139 29.1527 25.045 29.7355 24.987C30.2829 24.9284 30.833 24.8978 31.3836 24.8956H35.7173V31.608ZM78.8717 34.9998L78.3427 32.0853C78.3373 31.9253 78.272 31.7731 78.1596 31.6588C78.0782 31.5775 77.8748 31.5674 77.5798 31.6588L76.7862 31.7806L75.8401 31.8924L74.9144 31.9533H74.1921C73.4717 32.0015 72.7557 31.8086 72.1575 31.4049C71.6285 30.8692 71.3769 30.1196 71.4759 29.3739V17.2184H76.0131C76.3454 17.2184 76.5489 17.1575 76.6235 17.0356C76.7097 16.8518 76.7482 16.6492 76.7354 16.4466V13.9383C76.7403 13.756 76.7019 13.575 76.6235 13.4103C76.5523 13.2782 76.3488 13.2072 76.0131 13.2072H71.4759V7.43912C71.4759 7.104 71.4047 6.88059 71.2521 6.77904C71.0772 6.66501 70.8591 6.63874 70.662 6.70796L67.427 7.61175C67.1745 7.69434 66.9373 7.81785 66.725 7.97733C66.439 8.15256 66.2804 8.47716 66.3181 8.81004V13.2072H64.1004C63.7341 13.2072 63.612 13.2884 63.5205 13.4103C63.4289 13.5321 63.2356 13.9992 63.1949 14.0805C63.1543 14.1617 62.3709 16.2638 62.3099 16.4771C62.2555 16.6545 62.3067 16.8475 62.4421 16.9747C62.596 17.1318 62.8132 17.2103 63.0322 17.1879H66.3588L66.2367 30.0848C66.0921 31.8443 66.6435 33.5904 67.7729 34.949C68.7902 35.9645 70.5399 36.5433 73.012 36.5433C73.5817 36.5433 74.3854 36.5433 75.4027 36.4519C76.4405 36.3821 77.4656 36.1842 78.4546 35.863C78.7293 35.7411 78.8717 35.6091 78.8819 35.4771C78.9032 35.3184 78.8997 35.1574 78.8717 34.9998Z" fill="#2C2A29"/>
<path d="M224.999 10.516C224.606 10.5133 224.23 10.6675 223.952 10.9443C223.675 11.221 223.521 11.5971 223.523 11.9885V35.6496C223.587 36.4128 224.226 36.9999 224.993 36.9999C225.761 36.9999 226.4 36.4128 226.463 35.6496V11.9885C226.463 11.1792 225.809 10.5216 224.999 10.516ZM103.562 21.1686C104.336 20.1338 104.89 18.9519 105.19 17.6956C105.43 16.6969 105.567 15.6759 105.596 14.6491C105.612 13.229 105.342 11.8203 104.803 10.5059C103.799 8.00211 101.77 6.04683 99.2281 5.13386C97.8339 4.62453 96.3584 4.37332 94.874 4.39255H85.7995C85.5325 4.36183 85.2629 4.36183 84.9959 4.39255C84.5668 4.45493 84.1739 4.66724 83.887 4.99169C83.653 5.26588 83.6632 5.4182 83.5716 5.84471C83.4934 6.24675 83.4458 6.65411 83.4292 7.06331V35.5582C83.4292 35.9746 83.5208 36.2488 83.714 36.3706C83.956 36.5152 84.2364 36.5825 84.5177 36.5636H87.4985C87.8954 36.5881 88.2932 36.5329 88.6684 36.4011C88.8108 36.2894 88.882 36.0051 88.882 35.5582V25.2001H94.3857C96.3762 25.2873 98.3575 24.8827 100.154 24.0222C101.496 23.3469 102.662 22.3701 103.562 21.1686ZM98.7601 18.772C97.5764 19.8671 95.9829 20.4096 94.3755 20.2648H88.5971V9.61221H94.2839C95.2803 9.58093 96.2719 9.76091 97.1934 10.1403C97.8805 10.4382 98.4896 10.8899 98.9737 11.4604C99.3994 11.9737 99.7084 12.5731 99.8792 13.2172C100.049 13.7911 100.138 14.3858 100.144 14.9842C100.198 16.3791 99.7012 17.7394 98.7601 18.772ZM113.623 11.6635C111.837 11.7308 110.068 12.0383 108.364 12.5775C107.977 12.7298 107.845 13.0548 107.957 13.532L108.598 16.1216C108.608 16.3311 108.728 16.5199 108.913 16.6192C109.148 16.6925 109.4 16.6925 109.635 16.6192C110.651 16.3063 111.705 16.132 112.769 16.1013C113.562 16.0814 114.354 16.1806 115.119 16.3958C115.652 16.5563 116.138 16.8458 116.533 17.2386C116.872 17.5944 117.114 18.0316 117.235 18.508C117.361 19.0299 117.422 19.5654 117.418 20.1023V20.8741H112.331C110.774 20.8333 109.221 21.0636 107.743 21.5545C106.614 21.9401 105.575 22.5517 104.691 23.3519C103.924 24.0659 103.341 24.9543 102.992 25.9414C102.647 26.9202 102.472 27.9504 102.473 28.988C102.467 29.9844 102.622 30.9753 102.931 31.9227C103.235 32.8548 103.787 33.6867 104.528 34.3295C105.44 35.0858 106.5 35.6428 107.641 35.9644C109.25 36.4094 110.916 36.6147 112.585 36.5737C113.308 36.5737 114.071 36.5737 114.874 36.5026C115.678 36.4316 116.472 36.3808 117.285 36.2589C118.084 36.1372 118.875 35.9711 119.656 35.7613C120.39 35.5582 121.107 35.3002 121.802 34.9896C122.397 34.7263 122.758 34.1133 122.697 33.4663V19.8789C122.859 17.6313 122.065 15.4195 120.51 13.7859C119.059 12.3981 116.763 11.7041 113.623 11.7041V11.6635ZM117.377 31.547C116.958 31.7062 116.525 31.8285 116.085 31.9126C115.617 32.004 115.18 32.0751 114.752 32.136C114.325 32.1969 113.928 32.2375 113.552 32.2579H112.677C111.469 32.3098 110.27 32.0436 109.198 31.4861C108.287 30.9142 107.766 29.8869 107.845 28.8153C107.804 28.069 107.985 27.3274 108.364 26.6828C108.698 26.1886 109.148 25.7841 109.676 25.5048C110.196 25.2355 110.762 25.0667 111.344 25.0072C111.892 24.9486 112.442 24.9181 112.992 24.9158H117.336L117.377 31.547ZM193.279 19.361C191.208 19.3198 189.319 20.5359 188.503 22.4359C187.686 24.3359 188.105 26.5403 189.562 28.0096C191.019 29.4788 193.223 29.9196 195.135 29.1239C197.046 28.3282 198.284 26.455 198.264 24.3877C198.264 21.6425 196.049 19.4092 193.299 19.3813L193.279 19.361ZM210.013 19.361C207.944 19.3239 206.058 20.5427 205.245 22.4431C204.431 24.3435 204.853 26.5463 206.311 28.0134C207.769 29.4806 209.972 29.9194 211.882 29.1231C213.793 28.3267 215.029 26.4541 215.008 24.3877C215.009 21.6307 212.775 19.3925 210.013 19.3813V19.361ZM140.836 24.4385C140.076 23.8747 139.245 23.4137 138.364 23.0676C137.438 22.6817 136.492 22.3161 135.516 21.981C134.539 21.6459 133.949 21.4225 133.359 21.1686C132.859 20.958 132.379 20.7031 131.925 20.407C131.598 20.2006 131.323 19.9228 131.121 19.5946C130.637 18.7206 130.832 17.6277 131.589 16.9746C132.284 16.4451 133.148 16.1853 134.02 16.2434C134.98 16.2214 135.939 16.2792 136.889 16.4161C137.927 16.592 138.948 16.857 139.941 17.2082C140.119 17.2894 140.317 17.3176 140.511 17.2894C140.643 17.2894 140.755 17.1269 140.846 16.8832L141.864 14.314C141.914 14.1105 141.914 13.898 141.864 13.6945C141.79 13.4916 141.629 13.3318 141.426 13.2579C140.239 12.7867 139.004 12.4462 137.744 12.2424C136.489 12.04 135.219 11.9483 133.949 11.9682C132.708 11.9649 131.475 12.1603 130.297 12.547C129.329 12.8558 128.431 13.3489 127.652 13.9992C126.99 14.6092 126.479 15.3633 126.156 16.2028C125.8 17.0613 125.63 17.9854 125.658 18.9142C125.646 20.5243 126.35 22.0568 127.581 23.0981C128.278 23.6887 129.055 24.1776 129.89 24.5502C130.951 25.0384 132.038 25.4689 133.145 25.8399C134.415 26.2353 135.644 26.7486 136.818 27.3733C137.58 27.7657 138.062 28.5478 138.069 29.4043C138.102 30.1562 137.759 30.8755 137.154 31.3236C136.322 31.8856 135.328 32.1602 134.325 32.1055C131.876 32.0917 129.455 31.5875 127.204 30.6229C126.988 30.4904 126.725 30.4571 126.482 30.5315C126.284 30.6557 126.128 30.8361 126.034 31.0494L125.017 33.5679C124.913 33.7443 124.89 33.9571 124.954 34.1516C125.019 34.3461 125.164 34.5035 125.353 34.5834C126.023 34.9404 126.725 35.2361 127.448 35.4668C128.225 35.7077 129.017 35.8943 129.819 36.0254C130.633 36.1574 131.446 36.2589 132.26 36.3199C133.074 36.3808 133.847 36.4011 134.58 36.3909C135.769 36.3812 136.952 36.2174 138.1 35.9035C139.112 35.6325 140.064 35.1743 140.907 34.5529C141.691 33.9651 142.322 33.1992 142.749 32.3188C143.201 31.3363 143.413 30.2611 143.369 29.1809C143.382 28.2018 143.14 27.2361 142.667 26.3781C142.193 25.6336 141.578 24.9886 140.857 24.4791L140.836 24.4385ZM176.513 19.361C174.443 19.3239 172.558 20.5427 171.744 22.4431C170.931 24.3435 171.353 26.5463 172.811 28.0134C174.269 29.4806 176.472 29.9194 178.382 29.1231C180.292 28.3267 181.529 26.4541 181.508 24.3877C181.508 21.6386 179.288 19.4036 176.534 19.3813L176.513 19.361ZM161.101 24.4385C160.367 23.8808 159.563 23.4201 158.71 23.0676C157.785 22.6817 156.839 22.3161 155.862 21.981C154.885 21.6459 154.295 21.4225 153.705 21.1686C153.205 20.958 152.725 20.7031 152.271 20.407C151.945 20.2006 151.67 19.9228 151.467 19.5946C150.983 18.7206 151.178 17.6277 151.935 16.9746C152.63 16.4451 153.494 16.1853 154.366 16.2434C155.326 16.2206 156.286 16.2784 157.235 16.4161C158.294 16.5891 159.336 16.8541 160.348 17.2082C160.523 17.2875 160.717 17.3156 160.908 17.2894C161.05 17.2894 161.152 17.1269 161.243 16.8832L162.261 14.314C162.306 14.11 162.306 13.8985 162.261 13.6945C162.189 13.49 162.028 13.3293 161.823 13.2579C160.64 12.7868 159.408 12.4462 158.151 12.2424C156.893 12.0404 155.62 11.9486 154.346 11.9682C153.106 11.9649 151.872 12.1603 150.694 12.547C149.729 12.8536 148.833 13.3471 148.059 13.9992C147.343 14.5934 146.778 15.3485 146.411 16.2028C146.06 17.0628 145.89 17.9858 145.913 18.9142C145.915 19.7274 146.092 20.5307 146.431 21.2702C146.771 21.9707 147.252 22.5931 147.845 23.0981C148.537 23.691 149.312 24.1801 150.145 24.5502C151.206 25.0384 152.292 25.4689 153.4 25.8399C154.673 26.2347 155.906 26.7481 157.083 27.3733C157.794 27.7462 158.267 28.4549 158.337 29.2541C158.407 30.0533 158.065 30.8331 157.429 31.3236C156.593 31.8857 155.596 32.1602 154.59 32.1055C152.141 32.0917 149.72 31.5875 147.469 30.6229C147.253 30.4904 146.99 30.4571 146.747 30.5315C146.55 30.6537 146.397 30.835 146.309 31.0494L145.292 33.5679C145.188 33.7443 145.165 33.9571 145.229 34.1516C145.294 34.3461 145.439 34.5035 145.628 34.5834C146.298 34.9404 147 35.2361 147.723 35.4668C148.5 35.7077 149.292 35.8943 150.094 36.0254C150.908 36.1574 151.721 36.2589 152.545 36.3199C153.369 36.3808 154.132 36.4011 154.855 36.3909C156.044 36.3812 157.227 36.2174 158.375 35.9035C159.387 35.6325 160.339 35.1743 161.182 34.5529C161.967 33.9666 162.599 33.2003 163.024 32.3188C163.476 31.3363 163.688 30.2611 163.644 29.1809C163.657 28.2018 163.415 27.2361 162.942 26.3781C162.465 25.6326 161.847 24.9875 161.121 24.4791L161.101 24.4385Z" fill="#D22630"/>
</svg>
