<?xml version="1.0" encoding="UTF-8"?>
<svg width="73px" height="58px" viewBox="0 0 73 58" version="1.1" xmlns="http://www.w3.org/2000/svg" xmlns:xlink="http://www.w3.org/1999/xlink">
    <title>6ED92AAC-13FD-4D80-8C16-E989370DD9C2</title>
    <defs>
        <polygon id="path-1" points="0 0.188939394 53.3139555 0.188939394 53.3139555 52.6199288 0 52.6199288"></polygon>
    </defs>
    <g id="homepage--changes" stroke="none" stroke-width="1" fill="none" fill-rule="evenodd">
        <g id="homepage-desktop" transform="translate(-1292.000000, -2111.000000)">
            <g id="img-icon-dark-web" transform="translate(1292.000000, 2111.000000)">
                <path d="M42.5229636,56.1676394 L69.6379636,56.1676394 L56.0800242,29.0535182 L42.5229636,56.1676394 Z M70.9671303,57.8109727 L41.193797,57.8109727 C40.9086303,57.8109727 40.6445545,57.6637758 40.4947212,57.4212303 C40.3448879,57.1791242 40.3312667,56.8763818 40.4586909,56.6219727 L55.3453576,26.8482 C55.4846455,26.5700636 55.7689333,26.3943061 56.0800242,26.3943061 C56.3911152,26.3943061 56.6758424,26.5700636 56.8151303,26.8482 L71.7022364,56.6219727 C71.8296606,56.8763818 71.8160394,57.1791242 71.6662061,57.4212303 C71.5163727,57.6637758 71.252297,57.8109727 70.9671303,57.8109727 L70.9671303,57.8109727 Z" id="Fill-1" fill="#DF5041"></path>
                <path d="M56.0802439,48.7507136 C55.62635,48.7507136 55.2585773,48.3829409 55.2585773,47.929047 L55.2585773,37.5734106 C55.2585773,37.1195167 55.62635,36.7513045 56.0802439,36.7513045 C56.5341379,36.7513045 56.9019106,37.1195167 56.9019106,37.5734106 L56.9019106,47.929047 C56.9019106,48.3829409 56.5341379,48.7507136 56.0802439,48.7507136" id="Fill-3" fill="#DF5041"></path>
                <path d="M56.0802439,52.1075076 C56.0002742,52.1075076 55.9352439,52.1725379 55.9352439,52.2525076 C55.9352439,52.3324773 56.0002742,52.3975076 56.0802439,52.3975076 C56.160653,52.3975076 56.2256833,52.3324773 56.2256833,52.2525076 C56.2256833,52.1725379 56.160653,52.1075076 56.0802439,52.1075076 M56.0802439,53.7508409 C55.2541833,53.7508409 54.58235,53.0785682 54.58235,52.2525076 C54.58235,51.426447 55.2541833,50.7541742 56.0802439,50.7541742 C56.9063045,50.7541742 57.5785773,51.426447 57.5785773,52.2525076 C57.5785773,53.0785682 56.9063045,53.7508409 56.0802439,53.7508409" id="Fill-5" fill="#DF5243"></path>
                <g id="Group-9" transform="translate(0.000000, 0.250455)">
                    <mask id="mask-2" fill="white">
                        <use xlink:href="#path-1"></use>
                    </mask>
                    <g id="Clip-8"></g>
                    <path d="M35.7046682,46.7096409 L34.3882439,43.5042621 C36.7899712,39.1032924 40.3363197,36.3443379 43.154153,34.7212167 L46.3819409,36.0697167 C43.3250773,37.6937167 38.5848955,40.9773076 35.7046682,46.7096409 L35.7046682,46.7096409 Z M19.4211682,47.4851712 L21.060547,43.5613833 C25.5436833,42.3838076 29.68585,42.8776864 32.6403348,43.631247 L34.2414864,47.5286712 C31.0545621,46.5690348 25.4584409,45.5483227 19.4211682,47.4851712 L19.4211682,47.4851712 Z M17.5884561,47.5545955 C16.0532136,44.5249742 12.7445773,39.4723833 6.73806212,36.4453985 L10.8314561,34.7642773 C15.0913803,37.3751561 17.6802894,41.0440955 19.1272136,43.7648227 L19.1834561,43.7349439 L17.5884561,47.5545955 Z M5.78765303,19.1126258 L9.70309242,20.7484894 C11.1539712,25.7228682 10.5019106,30.3211258 9.60862273,33.466747 L5.63825909,35.0973379 C6.71697121,31.8748227 8.06766818,25.7211106 5.78765303,19.1126258 L5.78765303,19.1126258 Z M17.4421379,6.62680758 L19.0424106,10.5237924 C16.5057894,14.8935652 12.8482742,17.5716712 10.0647136,19.0954894 L6.09478939,17.4372167 C9.02686515,16.0047924 14.2864106,12.7304288 17.4421379,6.62680758 L17.4421379,6.62680758 Z M27.1298955,6.72127727 C29.6142288,6.72127727 32.3600015,6.37942879 35.1831076,5.43297424 L33.5371379,9.37126212 C28.3891985,10.8190652 23.6208955,10.2153379 20.3693803,9.3730197 L18.7677894,5.47295909 C20.7186985,6.06306515 23.6670318,6.72127727 27.1298955,6.72127727 L27.1298955,6.72127727 Z M37.0716227,30.3764894 L37.2359561,30.3518833 C36.9248652,28.2687167 36.9217894,26.1126106 37.2166227,23.9270652 L41.9282439,21.9919742 C41.3341833,24.8779136 41.0810924,28.5086258 41.9770167,32.4253833 L37.0716227,30.3764894 Z M31.5115318,36.5007621 L31.5343803,36.5174591 C32.8283955,34.7691106 34.4066985,33.1969591 36.2323803,31.8300045 L41.1491985,33.8837318 C38.6248803,35.5055348 35.7604712,37.942853 33.5503197,41.4637167 L31.5115318,36.5007621 Z M23.6586833,37.3404439 C25.7431682,37.0645045 27.8997136,37.0891106 30.0861379,37.4111864 L31.8226227,41.6394742 C29.0895924,41.0779288 25.6341985,40.8107773 21.8931985,41.5669742 L23.6586833,37.3404439 Z M18.83985,31.4749742 L25.4364712,28.7656712 L22.6102894,35.5314591 C21.4832439,34.0151106 20.2191076,32.6604591 18.83985,31.4749742 L18.83985,31.4749742 Z M16.9965924,32.23205 C18.8003045,33.6570045 20.4089258,35.3882167 21.7807136,37.3944894 L21.8532136,37.3452773 L20.0103955,41.7559136 C18.5226076,39.2649894 16.2149106,36.3118227 12.8038955,33.9540348 L16.9965924,32.23205 Z M21.6014409,16.7535197 C20.1804409,18.6345652 18.4285773,20.3090955 16.38935,21.7375652 L12.0991076,19.9452773 C14.622547,18.3942167 17.5625318,16.0228076 19.8680318,12.5335803 L21.6014409,16.7535197 Z M30.9095621,15.6633833 C28.3382288,16.0698227 25.6566076,16.0548833 22.9354409,15.6203227 L21.191047,11.3731409 C22.9033652,11.7373985 24.9118348,12.0071864 27.1114409,12.0071864 C28.8676985,12.0071864 30.7456682,11.8349439 32.6891076,11.4025803 L30.9095621,15.6633833 Z M32.1780924,16.9459742 L33.9027136,12.81655 C35.5684561,15.3435045 38.0418045,18.1718833 41.5956227,20.3288682 L37.2012439,22.1334591 C35.3065773,20.7238833 33.6197439,18.97905 32.1780924,16.9459742 L32.1780924,16.9459742 Z M29.3585015,27.154853 L35.3593045,24.6902924 C35.198047,26.3731712 35.2015621,28.0384742 35.3777591,29.6690652 L29.3585015,27.154853 Z M28.2182742,28.4822621 L34.3706682,31.0522773 C33.023047,32.1454894 31.8129561,33.350747 30.7540167,34.6561864 L28.2182742,28.4822621 Z M29.3185167,35.5420045 C27.6672742,35.3644894 26.0331682,35.3451561 24.4328955,35.4875197 L26.885153,29.6172167 L29.3185167,35.5420045 Z M31.3893803,18.83405 C32.5695924,20.3618227 33.8873348,21.7257015 35.3298652,22.9023985 L28.5218955,25.6987015 L31.3893803,18.83405 Z M23.7100924,17.5062015 C24.8533955,17.6459288 25.9892288,17.7162318 27.1131985,17.7162318 C28.1277591,17.7162318 29.132653,17.6577924 30.1243652,17.54355 L26.8978955,25.2672167 L23.7100924,17.5062015 Z M18.2835773,22.5284742 C19.8161833,21.3583682 21.1835773,20.049853 22.3673045,18.6178682 L25.1517439,25.3972773 L18.2835773,22.5284742 Z M17.9153652,24.1788379 L25.0085015,27.1416712 L17.7554258,30.1207621 C18.0476227,28.1109742 18.0994712,26.1213985 17.9153652,24.1788379 L17.9153652,24.1788379 Z M11.7357288,21.5973985 L16.0549712,23.40155 C16.3933045,25.8296409 16.3251985,28.3530803 15.8436227,30.9059591 L11.6359864,32.6340955 C12.3227591,29.6629136 12.6878955,25.7953682 11.7357288,21.5973985 L11.7357288,21.5973985 Z M36.368153,6.91461061 C38.0611379,10.0909894 41.5169712,15.0249439 47.6166379,17.8559591 L43.4511833,19.5669591 L43.5324712,19.4136106 C39.1723652,17.091853 36.3984712,13.6399742 34.7314106,10.8326864 L36.368153,6.91461061 Z M47.6016985,34.7748227 L44.01185,33.2756106 C42.6444561,28.6219894 43.1207591,24.2952773 43.9178197,21.1747015 L47.2058045,19.8240045 C46.2417742,23.3215803 45.4622894,28.8865045 47.6016985,34.7748227 L47.6016985,34.7748227 Z M37.5149712,51.1172015 L36.6225621,48.9443985 C36.6880318,48.7853379 36.74735,48.6236409 36.8163348,48.4667773 C39.123153,43.2076712 43.1444864,40.0009742 46.1253348,38.2293379 L48.8232136,32.8331409 C47.1631833,27.0630197 48.3548197,21.7757924 49.3056682,18.9619136 L52.7975318,17.5277318 C53.2228652,17.352853 53.4258652,16.8664439 53.2514258,16.4411106 C53.0761076,16.0157773 52.5901379,15.8127773 52.1652439,15.9876561 L49.8395318,16.9424591 L49.8597439,16.888853 C42.2419712,14.0547621 38.5769864,7.65323182 37.2653955,4.76685303 L37.3378955,4.59285303 C37.4060015,4.56253485 37.474547,4.53441364 37.5430924,4.50321667 L37.4552136,4.31164091 L38.4961379,1.82071667 C38.6727742,1.39670152 38.47285,0.908974242 38.0483955,0.731898485 C37.6235015,0.554822727 37.136653,0.755186364 36.9595773,1.17920152 L36.1119864,3.20876212 C28.1273197,6.53453485 20.4866985,4.29406515 17.8854864,3.3260803 L16.8094106,0.705534848 C16.6345318,0.279322727 16.1485621,0.0767621212 15.7232288,0.251640909 C15.2983348,0.426519697 15.0953348,0.912489394 15.2697742,1.33782273 L16.5361076,4.42105 C16.5057894,4.49311061 16.4794258,4.56692879 16.4482288,4.63811061 C13.0736833,12.3314591 6.01965303,15.6449288 3.93824394,16.4771409 L3.96680455,16.5483227 L1.15336515,15.3733833 C0.728031818,15.1954288 0.241183333,15.3957924 0.0645469697,15.820247 C-0.112968182,16.2442621 0.0873954545,16.7319894 0.51185,16.9090652 L3.52828939,18.1688076 C3.6363803,18.4179439 3.74710758,18.6670803 3.84421364,18.9170955 C6.84044091,26.5946258 4.35303182,33.7905803 3.42327424,36.0073227 L1.75313788,36.6932167 C1.32780455,36.8680955 1.12480455,37.3540652 1.29924394,37.7793985 C1.34274394,37.884853 1.40469848,37.976247 1.48027424,38.0513833 C1.71095606,38.2820652 2.06554697,38.3646712 2.38586515,38.2332924 L4.51385,37.3593379 C12.1729258,40.5133076 15.6318348,47.2777773 16.6718803,49.7484894 L15.9539106,51.4669591 C15.7768348,51.8909742 15.9771985,52.3782621 16.4012136,52.5557773 C16.5066682,52.5992773 16.6147591,52.6199288 16.7219712,52.6199288 C17.0475621,52.6199288 17.3568955,52.4279136 17.4900318,52.1084742 L18.5015167,49.6874136 C25.6829712,46.7737924 32.4887439,48.6926258 35.1237894,49.6764288 L35.9753348,51.7499288 C36.0188348,51.8549439 36.08035,51.9463379 36.1563652,52.0219136 C36.3866076,52.2525955 36.7411985,52.3352015 37.0615167,52.2038227 C37.48685,52.0289439 37.68985,51.5425348 37.5149712,51.1172015 L37.5149712,51.1172015 Z" id="Fill-7" fill="#3B4763" mask="url(#mask-2)"></path>
                </g>
            </g>
        </g>
    </g>
</svg>