<svg width="63" height="63" viewBox="0 0 63 63" fill="none" xmlns="http://www.w3.org/2000/svg">
<g filter="url(#filter0_d)">
<path d="M50.7534 7.99579C48.2319 5.45093 45.2292 3.43335 41.9201 2.06062C38.611 0.687896 35.0619 -0.0125272 31.4794 0.000169574C16.4678 0.000169574 4.23375 12.2308 4.22 27.2458C4.22 32.0549 5.47813 36.7333 7.85344 40.8755L4 55.0002L18.4513 51.212C22.4491 53.3877 26.9279 54.5281 31.4794 54.5292H31.4931C46.5081 54.5292 58.7388 42.2986 58.7525 27.2699C58.7559 23.6881 58.0506 20.1411 56.6772 16.8332C55.3037 13.5253 53.2893 10.5218 50.75 7.99579H50.7534Z" fill="#3BBD4E"/>
</g>
<path d="M50.7534 7.99579C48.2319 5.45093 45.2292 3.43335 41.9201 2.06062C38.611 0.687896 35.0619 -0.0125272 31.4794 0.000169574C16.4678 0.000169574 4.23375 12.2308 4.22 27.2458C4.22 32.0549 5.47813 36.7333 7.85344 40.8755L4 55.0002L18.4512 51.212C22.4491 53.3877 26.9279 54.5281 31.4794 54.5292H31.4931C46.5081 54.5292 58.7388 42.2986 58.7525 27.2699C58.7559 23.6881 58.0506 20.1411 56.6772 16.8332C55.3037 13.5253 53.2893 10.5218 50.75 7.99579H50.7534ZM31.4794 49.9161C27.4197 49.9175 23.4346 48.825 19.9431 46.7536L19.1181 46.2586L10.545 48.5067L12.8344 40.1433L12.2981 39.2805C10.0287 35.6722 8.82847 31.4946 8.83656 27.232C8.83656 14.7677 19.0013 4.59954 31.4931 4.59954C34.4691 4.59421 37.4167 5.17799 40.166 6.31723C42.9153 7.45648 45.4119 9.12866 47.5119 11.2374C49.6192 13.3378 51.2897 15.8348 52.4272 18.5841C53.5647 21.3334 54.1466 24.2808 54.1394 27.2561C54.1256 39.7652 43.9609 49.9161 31.4794 49.9161V49.9161ZM43.9059 32.9555C43.2288 32.6152 39.8841 30.9686 39.255 30.7349C38.6294 30.5114 38.1722 30.3945 37.7253 31.0752C37.2681 31.7524 35.9619 33.2958 35.57 33.7392C35.1781 34.1964 34.7725 34.248 34.0919 33.9111C33.4147 33.5674 31.2181 32.8524 28.6194 30.5252C26.5913 28.7205 25.2334 26.4861 24.8278 25.8089C24.4359 25.1283 24.79 24.7639 25.1303 24.4236C25.4294 24.1211 25.8075 23.6261 26.1478 23.2342C26.4916 22.8424 26.605 22.5536 26.8284 22.0999C27.0519 21.6392 26.9453 21.2474 26.7769 20.907C26.605 20.5667 25.2472 17.2083 24.6731 15.8539C24.1231 14.5167 23.5628 14.7024 23.1434 14.6852C22.7516 14.6611 22.2944 14.6611 21.8372 14.6611C21.4919 14.6697 21.1522 14.7495 20.8393 14.8957C20.5263 15.0418 20.247 15.251 20.0187 15.5102C19.3931 16.1908 17.6434 17.8374 17.6434 21.1958C17.6434 24.5542 20.0841 27.782 20.4278 28.2392C20.7647 28.6964 25.2197 35.568 32.0569 38.5242C33.6725 39.2289 34.9444 39.6449 35.9378 39.9611C37.5706 40.4836 39.0453 40.4045 40.2209 40.2361C41.5272 40.0367 44.2463 38.5861 44.8203 36.9945C45.3841 35.3995 45.3841 34.0383 45.2122 33.753C45.0438 33.4642 44.5866 33.2958 43.9059 32.9555V32.9555Z" fill="white"/>
<defs>
<filter id="filter0_d" x="0" y="0" width="62.7525" height="63.0002" filterUnits="userSpaceOnUse" color-interpolation-filters="sRGB">
<feFlood flood-opacity="0" result="BackgroundImageFix"/>
<feColorMatrix in="SourceAlpha" type="matrix" values="0 0 0 0 0 0 0 0 0 0 0 0 0 0 0 0 0 0 127 0"/>
<feOffset dy="4"/>
<feGaussianBlur stdDeviation="2"/>
<feColorMatrix type="matrix" values="0 0 0 0 0 0 0 0 0 0 0 0 0 0 0 0 0 0 0.25 0"/>
<feBlend mode="normal" in2="BackgroundImageFix" result="effect1_dropShadow"/>
<feBlend mode="normal" in="SourceGraphic" in2="effect1_dropShadow" result="shape"/>
</filter>
</defs>
</svg>
